<?xml version="1.0" standalone="no"?>
<!DOCTYPE svg PUBLIC "-//W3C//DTD SVG 1.1//EN" "http://www.w3.org/Graphics/SVG/1.1/DTD/svg11.dtd" >
<svg xmlns="http://www.w3.org/2000/svg" xmlns:xlink="http://www.w3.org/1999/xlink" version="1.1">
<metadata>
Created by FontForge 20170731 at Tue Mar 16 18:43:32 2021
 By Aleksey,,,
Copyright (c) 1990 ParaGraph Intl., (c) 1998 ParaType Inc., ParaType Ltd. All rights reserved.
</metadata>
<defs>
<font id="Pragmatica-Medium" horiz-adv-x="1228" >
  <font-face 
    font-family="Pragmatica"
    font-weight="500"
    font-stretch="normal"
    units-per-em="2048"
    panose-1="2 11 6 3 4 5 2 2 2 4"
    ascent="1638"
    descent="-410"
    x-height="1040"
    cap-height="1434"
    bbox="-901 -553 2691 2011"
    underline-thickness="102"
    underline-position="-307"
    unicode-range="U+000D-FB04"
  />
<missing-glyph horiz-adv-x="1024" 
d="M119 16h786v1016h-786v-1016zM102 0v1049h820v-1049h-820z" />
    <glyph glyph-name="afii10017.var.accented" unicode="&#x410;`" horiz-adv-x="1327" 
d="M377 301l-105 -301h-280l540 1434h263l540 -1434h-280l-105 301h-573zM446 518h435l-217 637zM657 1843h279l-242 -287h-196z" />
    <glyph glyph-name="afii10022.var.accented" unicode="&#x415;`" horiz-adv-x="1306" 
d="M647 1843h279l-242 -287h-197zM436 844h729v-217h-729v-410h836v-217h-1098v1434h1075v-217h-813v-373z" />
    <glyph glyph-name="afii10026.var.accented" unicode="&#x418;`" horiz-adv-x="1548" 
d="M436 385l682 1049h256v-1434h-262v1049l-682 -1049h-256v1434h262v-1049zM768 1843h279l-242 -287h-197z" />
    <glyph glyph-name="afii10032.var.accented" unicode="&#x41e;`" horiz-adv-x="1589" 
d="M788 1843h279l-242 -287h-196zM795 1477q30 0 57.5 -1.5t81 -9t99.5 -21t105.5 -41t107.5 -64.5t96.5 -96t81 -131.5t53 -174t20.5 -221.5t-20.5 -221.5t-53 -174t-81 -131.5t-96.5 -96t-107.5 -64.5t-105.5 -41t-99.5 -21t-81 -9t-57.5 -1.5t-57.5 1.5t-81 9t-100 21
t-105.5 41t-107.5 64.5t-96.5 96t-81 131.5t-53.5 174t-20.5 221.5t20.5 221.5t53.5 174t81 131.5t96.5 96t107.5 64.5t105.5 41t100 21t81 9t57.5 1.5zM795 1260q-101 0 -178.5 -36t-122.5 -91t-73.5 -130.5t-38 -143.5t-9.5 -142t9.5 -142t38 -143.5t73.5 -130.5
t122.5 -91t178.5 -36t178.5 36t122.5 91t73.5 130.5t38 143.5t9.5 142t-9.5 142t-38 143.5t-73.5 130.5t-122.5 91t-178.5 36z" />
    <glyph glyph-name="afii10037.var.accented" unicode="&#x423;`" horiz-adv-x="1275" 
d="M707 659l303 775h274l-481 -1155q-25 -61 -54.5 -109t-56.5 -79t-61 -53t-59.5 -33t-61.5 -17t-57 -7t-56 -1q-46 0 -65 0.5t-53 5.5t-68 16v227q81 -24 149 -24q78 0 130 37t75 135l-547 1057h322zM631 1843h278l-241 -287h-197z" />
    <glyph glyph-name="afii10045.var.accented" unicode="&#x42b;`" horiz-adv-x="1859" 
d="M436 1434v-553h373q41 0 77.5 -2.5t89 -13.5t95.5 -29t88.5 -52t76.5 -80t51 -116t20 -156q0 -59 -12 -114.5t-46.5 -115t-88 -103t-144.5 -71.5t-209 -28h-633v1434h262zM436 664v-447h320q59 0 103.5 8.5t87.5 31t66 69.5t23 118q0 59 -19 101.5t-45.5 65t-67 35
t-71.5 15.5t-71 3h-326zM1423 1434h263v-1434h-263v1434zM924 1843h278l-241 -287h-197z" />
    <glyph glyph-name="afii10047.var.accented" unicode="&#x42d;`" horiz-adv-x="1531" 
d="M530 844h627q-3 58 -17.5 113.5t-46.5 111.5t-78.5 97.5t-118.5 67.5t-161 26q-162 0 -253 -68.5t-109 -179.5h-260q4 53 18 102.5t41.5 104t74.5 99.5t111 81.5t158.5 57t210.5 20.5q156 0 279 -43t203.5 -115.5t133 -174.5t75 -213.5t22.5 -238.5q0 -180 -52 -320.5
t-147.5 -231t-227 -137t-292.5 -46.5q-136 0 -245 35.5t-176.5 90t-114.5 127.5t-67.5 141t-25.5 138h260q4 -60 29 -114.5t70 -100.5t118 -73t164 -27q92 0 166 30t119.5 76.5t77 109t45 120t16.5 117.5h-627v217zM760 1843h278l-241 -287h-197z" />
    <glyph glyph-name="afii10048.var.accented" unicode="&#x42e;`" horiz-adv-x="2109" 
d="M436 860h185q8 82 30.5 160.5t74.5 164t126 148t194 103.5t269 41q30 0 57.5 -1.5t81 -9t99.5 -21t105.5 -41t107.5 -64.5t96.5 -96t81 -131.5t53 -174t20.5 -221.5t-20.5 -221.5t-53 -174t-81 -131.5t-96.5 -96t-107.5 -64.5t-105.5 -41t-99.5 -21t-81 -9t-57.5 -1.5
q-156 0 -279 44t-198 112t-126 162t-72 182.5t-26 185.5h-178v-643h-262v1434h262v-574zM1315 174q101 0 178.5 36t122.5 91t73.5 130.5t38 143.5t9.5 142t-9.5 142t-38 143.5t-73.5 130.5t-122.5 91t-178.5 36t-178.5 -36t-122.5 -91t-73.5 -130.5t-38 -143.5t-9.5 -142
t9.5 -142t38 -143.5t73.5 -130.5t122.5 -91t178.5 -36zM1049 1843h278l-242 -287h-196z" />
    <glyph glyph-name="afii10049.var.accented" unicode="&#x42f;`" horiz-adv-x="1474" 
d="M1038 535h-250l-344 -535h-331l405 563q-47 6 -91.5 18.5t-99.5 43t-95 74.5t-67.5 118t-27.5 168q0 89 22 160t55.5 117t85.5 80t99 51t109.5 27t104.5 12t96 2h591v-1434h-262v535zM1038 1217h-342q-24 0 -39.5 -0.5t-48.5 -5t-56.5 -13t-52.5 -26t-47 -42t-31 -63.5
t-13 -88q0 -227 307 -227h323v465zM780 1843h279l-242 -287h-196z" />
    <glyph glyph-name="afii10065.var.accented" unicode="&#x430;`" horiz-adv-x="1181" 
d="M582 1434h266l-225 -271h-185zM336 719h-234q-2 73 25 137t82.5 115t150.5 80.5t218 29.5q87 0 157 -14.5t116 -36.5t79.5 -55.5t51.5 -64.5t28.5 -70.5t13 -67t2.5 -59.5v-416q0 -82 14.5 -106.5t75.5 -20.5v-170q-63 -6 -108 -6q-179 0 -203 135q-121 -154 -346 -154
q-102 0 -177.5 24t-113.5 56t-60.5 78t-27 77t-4.5 66q0 61 21 111.5t49.5 81t64.5 53.5t60.5 32t43.5 13q36 10 74.5 16.5t88 12t79.5 10.5q16 3 49.5 7.5t50.5 7.5q71 8 89 19q34 21 34 93q0 180 -202 180q-126 0 -186.5 -56.5t-55.5 -137.5zM780 463v37q-40 -27 -176 -43
q-34 -5 -49 -7t-43.5 -6.5t-41.5 -8t-34.5 -10t-32 -13t-25 -15.5t-21.5 -20t-14.5 -24.5t-10 -30.5t-2.5 -37q0 -64 40 -103t122 -39q41 0 77.5 7t76.5 28t68.5 55t47 93t18.5 137z" />
    <glyph glyph-name="afii10070.var.accented" unicode="&#x435;`" horiz-adv-x="1216" 
d="M600 1434h266l-225 -271h-184zM879 301h233q-9 -47 -25.5 -88t-53.5 -90t-88.5 -83.5t-136.5 -57.5t-192 -23q-23 0 -45.5 1t-62.5 7t-75.5 16t-79 30t-79.5 47t-71.5 68.5t-60 93.5t-39.5 124t-15 156q0 271 134 425t396 154q93 0 169 -21t127 -54.5t90 -83t60.5 -97.5
t35.5 -108t19 -104.5t7 -96.5q0 -12 1 -30t1 -29h-778q0 -43 8.5 -86t29.5 -87.5t52.5 -78.5t82.5 -56t114 -22q89 0 160 46t82 128zM350 625h518q0 33 -5 66.5t-21 75t-41.5 72.5t-72 52.5t-107.5 21.5q-68 0 -122.5 -26t-87 -68t-48 -92t-13.5 -102z" />
    <glyph glyph-name="afii10074.var.accented" unicode="&#x438;`" horiz-adv-x="1298" 
d="M393 291l488 749h270v-1040h-246v750l-487 -750h-271v1040h246v-749zM641 1434h266l-225 -271h-184z" />
    <glyph glyph-name="afii10080.var.accented" unicode="&#x43e;`" horiz-adv-x="1249" 
d="M616 1434h267l-226 -271h-184zM625 1081q126 0 224.5 -40t155.5 -99.5t94 -138.5t49.5 -147.5t12.5 -135.5t-12.5 -135.5t-49.5 -147.5t-94 -138.5t-155.5 -99.5t-224.5 -40q-91 0 -168.5 21t-131.5 55t-96.5 81.5t-68.5 98t-42.5 106.5t-23 104t-6.5 95q0 46 6.5 94
t23 104t42.5 106.5t68.5 98t96.5 82t131.5 55.5t168.5 21zM625 913q-33 0 -63 -6t-71 -30t-70 -64t-50 -116t-21 -177t21 -177t50 -116t70 -64t71 -30t63 -6q26 0 51 5t58.5 17.5t61 40.5t51.5 69.5t38 108.5t14 152t-14 152t-38 108.5t-51.5 69.5t-61 40.5t-58.5 17.5
t-51 5z" />
    <glyph glyph-name="afii10085.var.accented" unicode="&#x443;`" horiz-adv-x="1107" 
d="M545 1434h266l-225 -271h-185zM215 -375v168q50 -12 94 -12q69 0 102.5 37.5t61.5 134.5l14 49l-473 1038h295l314 -774l239 774h246l-397 -1130q-34 -97 -54 -133q-90 -164 -288 -164q-81 0 -154 12z" />
    <glyph glyph-name="afii10093.var.accented" unicode="&#x44b;`" horiz-adv-x="1581" 
d="M147 1040h246v-401h240q45 0 77 -1.5t80.5 -8t83 -19t73 -36.5t62.5 -57t40 -84.5t16 -115.5q0 -317 -375 -317h-543v1040zM393 471v-303h238q79 0 129.5 37.5t50.5 118.5q0 147 -180 147h-238zM1188 1040h246v-1040h-246v1040zM782 1434h267l-226 -271h-184z" />
    <glyph glyph-name="afii10095.var.accented" unicode="&#x44d;`" horiz-adv-x="1204" 
d="M451 451v167h403q-2 54 -20 105t-50 94.5t-85 69.5t-119 26q-109 0 -183 -52t-84 -146h-233q20 173 159.5 269.5t350.5 96.5q37 0 72 -3t90 -16t101.5 -35t97 -64.5t85 -100t57.5 -146.5t23 -198q0 -31 -1.5 -59.5t-13 -88.5t-31 -109.5t-60.5 -108t-97 -99t-145.5 -67.5
t-200.5 -27q-101 0 -183.5 24t-136.5 62.5t-92 91t-56 105.5t-23 110h233q5 -94 72.5 -159.5t181.5 -65.5q62 0 112 22t82 56t54 78.5t31.5 85.5t11.5 82h-403zM594 1434h266l-225 -271h-184z" />
    <glyph glyph-name="afii10096.var.accented" unicode="&#x44e;`" horiz-adv-x="1695" 
d="M393 633h154q6 90 44.5 170.5t103.5 142.5t162.5 98.5t213.5 36.5q91 0 168.5 -21t131.5 -55.5t96.5 -82t68.5 -98t42.5 -106.5t23 -104t6.5 -94t-6.5 -94t-23 -104t-42.5 -106.5t-68.5 -98t-96.5 -82t-131.5 -55.5t-168.5 -21q-106 0 -195 29.5t-149 78.5t-102 114.5
t-62 137t-22 146.5h-148v-465h-246v1040h246v-407zM797 520q0 -85 14 -152t38 -108.5t51.5 -69.5t61 -40.5t58.5 -17.5t51 -5q33 0 63 6t71 30t70 64t50 116t21 177t-21 177t-50 116t-70 64t-71 30t-63 6q-26 0 -51 -5t-58.5 -17.5t-61 -40.5t-51.5 -69.5t-38 -108.5
t-14 -152zM840 1434h266l-225 -271h-185z" />
    <glyph glyph-name="afii10097.var.accented" unicode="&#x44f;`" horiz-adv-x="1181" 
d="M629 387l-283 -387h-270l307 389q-36 3 -70 12.5t-74.5 32t-70.5 55t-50 86.5t-20 123q0 54 11 100.5t28 79t43 59t51 43t57 29t56 18t53 9t43 4t31 0.5h563v-1040h-246v387h-159zM788 872h-217q-114 0 -166.5 -36.5t-52.5 -126.5q0 -80 51.5 -117t167.5 -37h217v317z
M582 1434h266l-225 -271h-185z" />
    <glyph glyph-name="f_f" unicode="ff" horiz-adv-x="1208" 
d="M221 1040v131q0 69 17 119.5t43.5 79.5t65 46t74 22.5t79.5 5.5q71 0 139 -10v-168q-4 0 -27.5 2t-33.5 2q-31 0 -53 -10t-33 -23t-17 -34t-7 -33.5t-1 -30.5v-99h229v131q0 44 5 77.5t24.5 72t53 64t94.5 42.5t145 17t162 -10v-168q-46 4 -99 4q-40 0 -68.5 -11
t-41.5 -24t-20.5 -35t-8 -32.5t-0.5 -28.5v-99h238v-168h-238v-872h-246v872h-229v-872h-246v872h-192v168h192z" />
    <glyph glyph-name="fi" unicode="fi" horiz-adv-x="1089" 
d="M221 1040v131q0 69 17 119.5t43.5 79.5t65 46t74 22.5t79.5 5.5q71 0 139 -10v-168q-4 0 -27.5 2t-33.5 2q-31 0 -53 -10t-33 -23t-17 -34t-7 -33.5t-1 -30.5v-99h475v-1040h-246v872h-229v-872h-246v872h-192v168h192zM696 1217v217h246v-217h-246z" />
    <glyph glyph-name="fl" unicode="fl" horiz-adv-x="1089" 
d="M467 1040h229v394h246v-1434h-246v872h-229v-872h-246v872h-192v168h192v131q0 69 17 119.5t43.5 79.5t65 46t74 22.5t79.5 5.5q71 0 139 -10v-168q-4 0 -27.5 2t-33.5 2q-31 0 -53 -10t-33 -23t-17 -34t-7 -33.5t-1 -30.5v-99z" />
    <glyph glyph-name="f_f_i" unicode="ffi" horiz-adv-x="1564" 
d="M221 1040v131q0 69 17 119.5t43.5 79.5t65 46t74 22.5t79.5 5.5q71 0 139 -10v-168q-4 0 -27.5 2t-33.5 2q-31 0 -53 -10t-33 -23t-17 -34t-7 -33.5t-1 -30.5v-99h229v131q0 69 17 119.5t43.5 79.5t65 46t74 22.5t79.5 5.5q71 0 139 -10v-168q-4 0 -27.5 2t-33.5 2
q-31 0 -53 -10t-33 -23t-17 -34t-7 -33.5t-1 -30.5v-99h475v-1040h-246v872h-229v-872h-246v872h-229v-872h-246v872h-192v168h192zM1171 1217v217h246v-217h-246z" />
    <glyph glyph-name="f_f_l" unicode="ffl" horiz-adv-x="1564" 
d="M221 1040v131q0 69 17 119.5t43.5 79.5t65 46t74 22.5t79.5 5.5q71 0 139 -10v-168q-4 0 -27.5 2t-33.5 2q-31 0 -53 -10t-33 -23t-17 -34t-7 -33.5t-1 -30.5v-99h229v131q0 69 17 119.5t43.5 79.5t65 46t74 22.5t79.5 5.5q71 0 139 -10v-168q-4 0 -27.5 2t-33.5 2
q-31 0 -53 -10t-33 -23t-17 -34t-7 -33.5t-1 -30.5v-99h229v394h246v-1434h-246v872h-229v-872h-246v872h-229v-872h-246v872h-192v168h192z" />
    <glyph glyph-name=".notdef" horiz-adv-x="1024" 
d="M119 16h786v1016h-786v-1016zM102 0v1049h820v-1049h-820z" />
    <glyph glyph-name=".null" horiz-adv-x="0" 
 />
    <glyph glyph-name="uni000D" unicode="&#xd;" horiz-adv-x="477" 
 />
    <glyph glyph-name="NULL" horiz-adv-x="0" 
 />
    <glyph glyph-name="NULL" horiz-adv-x="0" 
 />
    <glyph glyph-name="space" unicode=" " horiz-adv-x="477" 
 />
    <glyph glyph-name="exclam" unicode="!" horiz-adv-x="704" 
d="M217 1434h270v-494l-69 -491h-131l-70 491v494zM217 0v276h270v-276h-270z" />
    <glyph glyph-name="quotedbl" unicode="&#x22;" horiz-adv-x="1024" 
d="M451 1434l-105 -394h-139l-105 394h349zM922 1434l-105 -394h-139l-105 394h349z" />
    <glyph glyph-name="numbersign" unicode="#" horiz-adv-x="1495" 
d="M950 20h-188l49 314h-246l-49 -314h-188l49 314h-275l31 205h275l57 366h-275l31 205h275l49 311h188l-49 -311h246l49 311h188l-49 -311h275l-31 -205h-275l-57 -366h275l-31 -205h-275zM842 539l57 366h-246l-57 -366h246z" />
    <glyph glyph-name="dollar" unicode="$" 
d="M74 420h225q4 -114 61 -191q65 -87 175 -94v512q-87 13 -180 50t-148 87q-105 97 -105 275q0 204 152 323q118 88 281 91v118h167v-118q88 -2 172.5 -32.5t143.5 -84.5q54 -50 87.5 -129t33.5 -172h-226q8 99 -61 172q-61 61 -150 69v-446q203 -34 304 -105
q83 -59 116 -137t33 -192q0 -231 -149 -350q-59 -46 -140 -74t-164 -33v-149h-167v149q-80 -2 -160 20t-139 64q-50 37 -85 89.5t-50 108t-21 97.5t-6 82zM535 885v411q-70 -6 -113 -49q-57 -57 -57 -168q0 -52 18.5 -91t47.5 -59.5t54.5 -30.5t49.5 -13zM702 612v-477
q74 3 123 49q68 65 68 201q0 107 -66 168q-50 50 -125 59z" />
    <glyph glyph-name="percent" unicode="%" horiz-adv-x="1945" 
d="M446 0l863 1434h190l-862 -1434h-191zM459 1450q163 0 255.5 -114t92.5 -296t-92.5 -295.5t-255.5 -113.5t-255.5 113.5t-92.5 295.5t92.5 296t255.5 114zM459 1315q-20 0 -36.5 -2.5t-46.5 -17.5t-50 -42t-36 -82t-16 -131t16 -131t36 -81.5t50 -41.5t46.5 -17.5
t36.5 -2.5t36.5 2.5t46 17.5t50 41.5t36 81.5t15.5 131q0 55 -8 99.5t-20.5 72.5t-30.5 48.5t-34 30.5t-36 16t-31 7t-24 1zM1487 803q163 0 255.5 -114t92.5 -296t-92.5 -295.5t-255.5 -113.5t-255.5 113.5t-92.5 295.5t92.5 296t255.5 114zM1487 668q-13 0 -24 -1t-31 -7
t-36 -16t-34 -30.5t-30.5 -48.5t-20.5 -72.5t-8 -99.5q0 -76 15.5 -131t36 -81.5t50 -41.5t46 -17.5t36.5 -2.5t36.5 2.5t46 17.5t50 41.5t36 81.5t15.5 131q0 55 -8 99.5t-20.5 72.5t-30.5 48.5t-34 30.5t-36 16t-31 7t-24 1z" />
    <glyph glyph-name="ampersand" unicode="&#x26;" horiz-adv-x="1445" 
d="M1118 643h213q-36 -194 -133 -344l248 -299h-283l-112 137q-168 -180 -447 -180q-112 0 -201.5 36.5t-144 98.5t-83 138.5t-28.5 160.5q0 83 25 151.5t73 121.5t106.5 92.5t135.5 74.5q-59 62 -93 141t-34 148q0 141 99.5 227.5t263.5 86.5q77 0 138 -20.5t97.5 -52
t60.5 -73.5t33 -80.5t9 -77.5q0 -115 -65 -201.5t-193 -154.5l256 -303q44 75 59 172zM926 293l-314 383q-104 -43 -153 -110t-49 -167q0 -108 64.5 -178.5t172.5 -70.5q88 0 160.5 44t118.5 99zM686 918q158 73 158 204q0 144 -123 144q-59 0 -101 -30t-42 -101
q0 -53 25.5 -102.5t82.5 -114.5z" />
    <glyph glyph-name="quotesingle" unicode="'" horiz-adv-x="552" 
d="M451 1434l-105 -394h-139l-105 394h349z" />
    <glyph glyph-name="parenleft" unicode="(" horiz-adv-x="806" 
d="M446 1434h189q-250 -484 -250 -906q0 -203 67.5 -447.5t182.5 -457.5h-189q-163 277 -233 482.5t-70 422.5t70 423t233 483z" />
    <glyph glyph-name="parenright" unicode=")" horiz-adv-x="806" 
d="M360 -377h-188q250 484 250 905q0 203 -67.5 445t-182.5 461h188q163 -277 233.5 -483t70.5 -423t-70.5 -422t-233.5 -483z" />
    <glyph glyph-name="asterisk" unicode="*" horiz-adv-x="958" 
d="M479 1055l-153 -207l-105 76l150 209l-236 77l39 119l240 -78v254h131v-254l239 78l39 -119l-235 -77l149 -209l-104 -76z" />
    <glyph glyph-name="plus" unicode="+" 
d="M102 815h424v424h176v-424h424v-176h-424v-424h-176v424h-424v176z" />
    <glyph glyph-name="comma" unicode="," horiz-adv-x="704" 
d="M217 276h270v-284q0 -83 -24 -145.5t-65 -97t-85.5 -52t-95.5 -21.5v142q61 5 99 48t38 111v23h-137v276z" />
    <glyph glyph-name="hyphen" unicode="-" horiz-adv-x="860" 
d="M164 442v217h532v-217h-532z" />
    <glyph glyph-name="period" unicode="." horiz-adv-x="704" 
d="M217 0v276h270v-276h-270z" />
    <glyph glyph-name="slash" unicode="/" horiz-adv-x="901" 
d="M0 -379l733 1813h168l-733 -1813h-168z" />
    <glyph glyph-name="zero" unicode="0" 
d="M614 -43q-94 0 -171 27t-130 71.5t-93.5 108t-64 129.5t-38.5 144t-20 144t-5 136t5 136t20 144t38.5 144t64 129.5t93.5 108t130 71.5t171 27t171 -27t130 -71.5t94 -108t64.5 -129.5t38.5 -144t20 -144t5 -136t-5 -136t-20 -144t-38.5 -144t-64.5 -129.5t-94 -108
t-130 -71.5t-171 -27zM614 174q22 0 40.5 2.5t46 15t49 33.5t45 62t39.5 96.5t26 141t10 192.5t-10 192.5t-26 141t-39.5 96.5t-45 62t-49 33.5t-46 15t-40.5 2.5t-40.5 -2.5t-46 -15t-49 -33.5t-45 -62t-39.5 -96.5t-26 -141t-10 -192.5t10 -192.5t26 -141t39.5 -96.5
t45 -62t49 -33.5t46 -15t40.5 -2.5z" />
    <glyph glyph-name="one" unicode="1" 
d="M250 1044v134h29q150 0 252 72t120 184h193v-1434h-262v1044h-332z" />
    <glyph glyph-name="two" unicode="2" 
d="M1135 217v-217h-1035q-1 75 13 141.5t32 115.5t58.5 100t67.5 80.5t85.5 72t87 60.5t94.5 58q10 6 15 9.5t13.5 8.5t15.5 9q41 24 66 40t60.5 41t57.5 45.5t46.5 49.5t38.5 57.5t23 64.5t9 75q0 24 -3.5 47.5t-18.5 59t-41 61.5t-76.5 45t-118.5 19q-74 0 -128 -22
t-81 -50.5t-42.5 -70.5t-18.5 -68.5t-3 -57.5v-35h-252v37q0 98 26.5 177t65.5 128t95 85.5t103.5 53.5t104.5 27t83.5 11.5t52.5 1.5q112 0 205 -27t163.5 -81t110 -141t39.5 -200q0 -86 -24.5 -159.5t-55 -121t-95 -101t-104.5 -79.5t-125 -76l-30 -18
q-177 -109 -234.5 -155t-81.5 -101h736z" />
    <glyph glyph-name="three" unicode="3" 
d="M74 463h252v-27q0 -16 2 -26q4 -44 18.5 -84t43 -79.5t80.5 -63t122 -23.5q49 0 88 10q57 15 96.5 48t56 73.5t22 70.5t5.5 60q0 58 -18.5 100.5t-43.5 64t-63 33.5t-64.5 14.5t-60.5 2.5h-104v217h55q25 0 43 0.5t48.5 5t52 12t47 23t41.5 36.5t27 54.5t11 75.5
q0 35 -8.5 66.5t-30 63t-66 50.5t-108.5 19q-131 0 -187 -69.5t-58 -209.5h-252q-1 47 3.5 92.5t19 96t38 94t62.5 83.5t89.5 68t122.5 45t158 17q129 0 224.5 -31t151 -87t82 -126.5t26.5 -155.5q0 -117 -67 -202.5t-179 -108.5v-4q116 -13 195 -105t79 -258
q0 -209 -142.5 -325.5t-385.5 -116.5q-102 0 -184.5 21t-136 53t-93 79.5t-60 91t-32.5 97.5t-15 89.5t-3 74.5z" />
    <glyph glyph-name="four" unicode="4" 
d="M721 313h-674v217l676 904h260v-904h199v-217h-199v-313h-262v313zM311 530h410v570z" />
    <glyph glyph-name="five" unicode="5" 
d="M145 387h252q4 -42 20.5 -80.5t46 -72.5t79.5 -54t114 -20q39 0 74.5 7t74 28.5t66.5 55t46 92.5t18 136q0 81 -22.5 140t-52 87.5t-72 45t-67.5 19.5t-54 3q-30 0 -60.5 -5t-65.5 -17.5t-66 -37t-50 -59.5h-248l98 779h838v-217h-645l-47 -332q106 106 315 106
q211 0 338 -132.5t127 -377.5q0 -103 -26 -186.5t-65 -137t-95 -93t-106 -59.5t-109 -31.5t-92.5 -14t-67.5 -2.5q-79 0 -146 14.5t-115 39t-86.5 59.5t-63.5 72t-43 81.5t-27.5 83t-14.5 80.5z" />
    <glyph glyph-name="six" unicode="6" 
d="M1137 1108h-252q-9 40 -29 69t-42.5 44.5t-52.5 24.5t-53 11.5t-51 2.5q-37 0 -70.5 -6.5t-78 -32t-77 -68t-57.5 -122t-30 -187.5h4q95 129 324 129q222 0 348.5 -129.5t126.5 -366.5q0 -244 -142.5 -382t-388.5 -138q-100 0 -180.5 24t-135 63t-95 97t-62.5 115.5
t-35.5 129t-17.5 128.5t-4 123q0 153 19 278t50.5 211t78 150.5t95 102t108 60.5t111 30.5t109.5 7.5q111 0 200.5 -31t146 -84t89.5 -117t44 -137zM352 465q0 -42 6 -79t23.5 -77t45.5 -69t76.5 -47.5t112.5 -18.5q134 0 199.5 81t65.5 210t-65.5 210t-199.5 81
q-63 0 -112 -19t-77 -48t-45.5 -69.5t-23.5 -77.5t-6 -77z" />
    <glyph glyph-name="seven" unicode="7" 
d="M61 1217v217h1106v-181q-140 -145 -233 -288t-168 -324q-71 -161 -102.5 -299t-49.5 -342h-274q38 299 168 604q151 340 420 613h-867z" />
    <glyph glyph-name="eight" unicode="8" 
d="M346 768q-90 39 -140 119.5t-50 195.5q0 57 11 108t41.5 105t80 92.5t133 63.5t192.5 25t192.5 -25t133 -63.5t80.5 -92.5t42 -105t11 -108q0 -115 -50 -195.5t-140 -119.5q30 -9 58.5 -24t61.5 -45t57 -68.5t40 -98t16 -131.5q0 -80 -18.5 -146t-48.5 -111t-72.5 -79.5
t-86.5 -54.5t-95.5 -32.5t-94 -16.5t-86.5 -4q-64 0 -124 8.5t-131.5 37.5t-123.5 75t-87 129.5t-35 193.5q0 88 23 157t60.5 110.5t74 64.5t75.5 35zM614 868q60 0 104 18.5t66.5 50t32.5 63.5t10 67q0 20 -3.5 41.5t-17 50t-35 50t-62.5 36.5t-95 15t-95 -15t-62.5 -36.5
t-35 -50t-17 -50t-3.5 -41.5q0 -35 10 -67t32.5 -63.5t66.5 -50t104 -18.5zM614 174q119 0 177.5 71t58.5 169q0 40 -11 78t-36 75.5t-73.5 60.5t-115.5 23t-115.5 -23t-73 -60.5t-35.5 -75.5t-11 -78q0 -98 58 -169t177 -71z" />
    <glyph glyph-name="nine" unicode="9" 
d="M92 326h252q12 -49 37.5 -82t60.5 -47t64 -18.5t65 -4.5q37 0 71 6.5t78.5 32t77 68t57.5 122t30 187.5h-4q-95 -129 -324 -129q-222 0 -348.5 129t-126.5 366q0 245 142 383t388 138q78 0 144.5 -15t116.5 -40t90.5 -62t68 -78t48.5 -91.5t32.5 -97.5t18.5 -102
t9.5 -99.5t2.5 -94.5q0 -153 -19 -278t-50 -211t-77 -150.5t-94.5 -102t-108.5 -60.5t-111.5 -30.5t-111.5 -7.5q-90 0 -165.5 20.5t-129 55.5t-93 83t-61.5 100t-30 110zM877 969q0 40 -6 77t-24 77.5t-46 69.5t-77 48t-112 19q-134 0 -199 -81t-65 -210t65 -210t199 -81
q79 0 134 27t82 73t38 92t11 99z" />
    <glyph glyph-name="colon" unicode=":" horiz-adv-x="704" 
d="M217 764v276h270v-276h-270zM217 0v276h270v-276h-270z" />
    <glyph glyph-name="semicolon" unicode=";" horiz-adv-x="704" 
d="M217 764v276h270v-276h-270zM217 276h270v-284q0 -83 -24 -145.5t-65 -97t-85.5 -52t-95.5 -21.5v142q61 5 99 48t38 111v23h-137v276z" />
    <glyph glyph-name="less" unicode="&#x3c;" horiz-adv-x="1388" 
d="M330 700l887 -485l-82 -147l-1012 569v127l1012 569l82 -147z" />
    <glyph glyph-name="equal" unicode="=" 
d="M102 999h1024v-176h-1024v176zM102 590h1024v-176h-1024v176z" />
    <glyph glyph-name="greater" unicode="&#x3e;" horiz-adv-x="1388" 
d="M1059 700l-887 486l82 147l1012 -569v-127l-1012 -569l-82 147z" />
    <glyph glyph-name="question" unicode="?" horiz-adv-x="1179" 
d="M440 0v276h271v-276h-271zM360 991h-251q-1 43 3 86t18 92t37 92t61.5 83.5t88.5 69t122 46t159 17.5q102 0 184 -23t135 -61t88.5 -90.5t50.5 -109t15 -118.5q0 -61 -15 -111t-46 -91t-59.5 -68t-73.5 -62q-85 -64 -121 -97.5t-55 -73t-19 -95.5v-37h-205q0 113 14 168
t72 125q23 28 71 68.5t82 70t61.5 79.5t27.5 108q0 88 -51.5 144.5t-159.5 56.5q-49 0 -89.5 -13t-76 -42t-54 -83.5t-14.5 -130.5z" />
    <glyph glyph-name="at" unicode="@" horiz-adv-x="1761" 
d="M1190 193l72 -130q-86 -52 -174 -79t-205 -27q-158 0 -295.5 51t-241 146t-163.5 240.5t-60 324.5q0 224 100 398t272.5 267t387.5 93q151 0 277 -38.5t213 -105.5t147.5 -158.5t89 -196t28.5 -218.5q0 -194 -107 -326.5t-274 -132.5q-67 0 -121.5 22t-76.5 66
q-64 -100 -219 -100q-69 0 -131 23t-113 69.5t-81 126.5t-30 184q0 81 20.5 152.5t60.5 128.5t106.5 90t152.5 33q58 0 112.5 -22t88.5 -64h4v57h205v-485q0 -23 1 -37t6 -34.5t17.5 -31t32.5 -10.5q28 0 57 14.5t58.5 45.5t48.5 91t19 140q0 83 -19.5 162t-65 154.5
t-112 131.5t-168.5 90.5t-227 34.5q-175 0 -311.5 -81t-210.5 -220.5t-74 -312.5q0 -271 166.5 -445t429.5 -174q172 0 307 93zM1006 690q0 62 -11 108.5t-26.5 70.5t-37.5 38t-37.5 17.5t-31.5 3.5q-44 0 -76.5 -20.5t-50.5 -55t-26.5 -75.5t-8.5 -87q0 -73 16 -123t43 -72
t50.5 -30t50.5 -8q146 0 146 233z" />
    <glyph glyph-name="A" unicode="A" horiz-adv-x="1327" 
d="M377 301l-105 -301h-280l540 1434h263l540 -1434h-280l-105 301h-573zM446 518h435l-217 637z" />
    <glyph glyph-name="B" unicode="B" horiz-adv-x="1464" 
d="M174 1434h676q105 0 185 -23.5t126.5 -59t75.5 -85.5t39 -96.5t10 -98.5q0 -118 -66 -203t-171 -104v-4q40 -7 77 -20.5t78.5 -41t71.5 -66t50 -98.5t20 -133q0 -75 -18.5 -136t-47.5 -102t-73 -71.5t-88.5 -47.5t-100 -27.5t-100.5 -13.5t-97 -3h-647v1434zM436 1217
v-365h346q115 0 174.5 40t59.5 130q0 53 -20.5 92t-47.5 58t-65 30t-60.5 13t-46.5 2h-340zM436 635v-418h359q64 0 111.5 9.5t87 32t60.5 66t21 105.5q0 54 -19 94t-45.5 60.5t-67 32.5t-71.5 15t-71 3h-365z" />
    <glyph glyph-name="C" unicode="C" horiz-adv-x="1501" 
d="M1163 489h260q-5 -51 -15.5 -98.5t-32.5 -102.5t-52.5 -101t-79 -89.5t-109 -73.5t-145.5 -48.5t-186 -18.5q-28 0 -54 1t-80 8.5t-100.5 20t-107.5 38.5t-110 62t-99 92.5t-83.5 127t-55 169.5t-21.5 216q0 172 38.5 308t103.5 224t155.5 146t189 82.5t209.5 24.5
q141 0 251 -33.5t175.5 -85t108.5 -121.5t60 -134t20 -132h-260q-7 51 -25.5 96.5t-56.5 91.5t-108 73.5t-165 27.5q-93 0 -165.5 -30t-119 -80.5t-76 -123t-42 -152t-12.5 -172.5q0 -248 122 -388t320 -140q86 0 153 27t107 73t62 100.5t26 114.5z" />
    <glyph glyph-name="D" unicode="D" horiz-adv-x="1527" 
d="M174 1434h569q123 0 224 -24t171.5 -63.5t124.5 -97t86 -118.5t52.5 -134.5t27.5 -139t7 -136.5q0 -721 -744 -721h-518v1434zM436 1217v-1000h244q36 0 67 2.5t82 13.5t92 30t86.5 56.5t76 88.5t51 130.5t20.5 178.5q0 126 -31 221t-75.5 146.5t-107 83t-113.5 40.5
t-107 9h-285z" />
    <glyph glyph-name="E" unicode="E" horiz-adv-x="1306" 
d="M436 844h729v-217h-729v-410h836v-217h-1098v1434h1075v-217h-813v-373z" />
    <glyph glyph-name="F" unicode="F" horiz-adv-x="1216" 
d="M436 823h649v-217h-649v-606h-262v1434h1016v-217h-754v-394z" />
    <glyph glyph-name="G" unicode="G" horiz-adv-x="1548" 
d="M844 768h586v-768h-189v195h-4q-123 -238 -444 -238q-106 0 -202 22t-188.5 75.5t-160 135t-109 210.5t-41.5 292q0 140 26 255.5t68 195t102 141t122 97t134 58t132 30.5t121 8q140 0 249.5 -32t174.5 -80.5t108.5 -116.5t61 -128.5t22.5 -128.5h-260q-5 37 -17 70.5
t-39 71t-64.5 64.5t-98.5 45t-137 18t-138.5 -19.5t-105.5 -52t-76 -79t-52.5 -95t-31.5 -105.5t-16 -106t-4 -101q0 -122 30 -218t76 -152.5t107.5 -93.5t117 -50.5t111.5 -13.5q43 0 87.5 8t98 33t94 65t69 110t30.5 161h-350v217z" />
    <glyph glyph-name="H" unicode="H" horiz-adv-x="1511" 
d="M436 643v-643h-262v1434h262v-574h639v574h262v-1434h-262v643h-639z" />
    <glyph glyph-name="I" unicode="I" horiz-adv-x="610" 
d="M174 1434h262v-1434h-262v1434z" />
    <glyph glyph-name="J" unicode="J" horiz-adv-x="1128" 
d="M47 498h262v-60q0 -70 15 -121t36 -77.5t52 -42.5t54.5 -19.5t51.5 -3.5q37 0 62.5 4.5t53.5 22t45 49t28.5 88.5t11.5 137v959h262v-926q0 -61 -2.5 -107t-13.5 -106.5t-29.5 -105t-53.5 -90.5t-83 -75.5t-120 -48t-163 -18.5q-111 0 -195.5 28t-135.5 72.5t-83 107
t-43.5 123.5t-11.5 130v80z" />
    <glyph glyph-name="K" unicode="K" horiz-adv-x="1445" 
d="M436 788l627 646h352l-594 -594l633 -840h-352l-473 664l-193 -187v-477h-262v1434h262v-646z" />
    <glyph glyph-name="L" unicode="L" horiz-adv-x="1122" 
d="M1135 217v-217h-961v1434h262v-1217h699z" />
    <glyph glyph-name="M" unicode="M" horiz-adv-x="1912" 
d="M858 0l-422 1135h-4l4 -56v-1079h-262v1434h391l391 -1088l392 1088h391v-1434h-262v1079l4 56h-4l-422 -1135h-197z" />
    <glyph glyph-name="N" unicode="N" horiz-adv-x="1576" 
d="M436 1018v-1018h-262v1434h279l688 -1018v1018h262v-1434h-279z" />
    <glyph glyph-name="O" unicode="O" horiz-adv-x="1589" 
d="M795 1477q30 0 57.5 -1.5t81 -9t99.5 -21t105.5 -41t107.5 -64.5t96.5 -96t81 -131.5t53 -174t20.5 -221.5t-20.5 -221.5t-53 -174t-81 -131.5t-96.5 -96t-107.5 -64.5t-105.5 -41t-99.5 -21t-81 -9t-57.5 -1.5t-57.5 1.5t-81 9t-100 21t-105.5 41t-107.5 64.5t-96.5 96
t-81 131.5t-53.5 174t-20.5 221.5t20.5 221.5t53.5 174t81 131.5t96.5 96t107.5 64.5t105.5 41t100 21t81 9t57.5 1.5zM795 1260q-101 0 -178.5 -36t-122.5 -91t-73.5 -130.5t-38 -143.5t-9.5 -142t9.5 -142t38 -143.5t73.5 -130.5t122.5 -91t178.5 -36t178.5 36t122.5 91
t73.5 130.5t38 143.5t9.5 142t-9.5 142t-38 143.5t-73.5 130.5t-122.5 91t-178.5 36z" />
    <glyph glyph-name="P" unicode="P" horiz-adv-x="1368" 
d="M174 1434h571q56 0 102.5 -3t106 -14t106 -29.5t94 -52.5t79 -79.5t51 -113.5t19.5 -153q0 -101 -30 -182t-94 -145t-174.5 -99t-261.5 -35h-307v-528h-262v1434zM436 1217v-472h305q44 0 77.5 3t76.5 17t70.5 37.5t47 68t19.5 106.5q0 47 -11 85t-28 62.5t-43.5 42.5
t-50.5 27.5t-55.5 15t-52.5 6.5t-48 1h-307z" />
    <glyph glyph-name="Q" unicode="Q" horiz-adv-x="1589" 
d="M1290 143l148 -188l-142 -127l-163 207q-116 -78 -338 -78q-29 0 -57.5 1.5t-81.5 9.5t-99.5 21.5t-105.5 41t-107.5 64.5t-96.5 96t-81 131t-53.5 174t-20.5 221q0 120 20.5 221.5t53.5 174t81 131.5t96.5 96t107.5 64.5t105.5 41t100 21t81 9t57.5 1.5q28 0 55 -1.5
t79.5 -9t99 -21t106 -41t108 -64.5t97.5 -96t82 -131.5t54 -174t21 -221.5q0 -72 -9 -142.5t-30.5 -149.5t-64 -153t-103.5 -129zM981 541l147 -189q89 135 89 365q0 74 -9.5 142t-38 143.5t-73.5 130.5t-122.5 91t-178.5 36t-178.5 -36t-122.5 -91t-73.5 -130.5t-38 -143.5
t-9.5 -142q0 -60 7 -117t23.5 -120.5t48.5 -116.5t76.5 -96.5t113 -68t153.5 -24.5q122 0 192 49l-158 199z" />
    <glyph glyph-name="R" unicode="R" horiz-adv-x="1449" 
d="M174 0v1434h641q46 0 84.5 -2t94 -11.5t99 -25t90.5 -46t78.5 -71.5t51.5 -103.5t20 -140.5q0 -76 -20.5 -138.5t-56 -103.5t-76 -67t-86.5 -39v-4q42 -14 75.5 -35.5t55.5 -44.5t37.5 -54.5t23.5 -58t12.5 -62.5t5.5 -60t1 -58q0 -157 8 -211t45 -98h-271
q-31 45 -38 98.5t-7 200.5q0 34 -1.5 56.5t-7.5 54t-18 51.5t-34 42.5t-53.5 35.5t-79.5 21.5t-109 8.5h-303v-569h-262zM436 1217v-431h328q47 0 83 3.5t79 16.5t71 35t47 63t19 97q0 50 -13.5 88t-39.5 60.5t-53 37t-64.5 20.5t-63 8t-59.5 2h-334z" />
    <glyph glyph-name="S" unicode="S" horiz-adv-x="1400" 
d="M92 461h260q2 -37 12 -72t36 -75.5t65 -70t106.5 -49.5t153.5 -20q303 0 303 215q0 49 -19.5 87.5t-44.5 60t-65.5 38t-66 22.5t-62.5 13q-98 17 -168 35q-57 13 -98.5 24.5t-91 30t-83.5 39t-69 52t-55.5 68.5t-33.5 88t-13 112q0 83 26 150.5t64.5 110t95 74t106 47
t109.5 24.5t93 10.5t69 1.5q136 0 242.5 -34.5t171.5 -94.5t100 -133.5t41 -159.5h-260q-28 205 -301 205q-15 0 -28 -0.5t-43.5 -4.5t-54.5 -10.5t-53.5 -20.5t-49.5 -33.5t-34 -51t-14 -70.5q0 -24 6 -45t15.5 -37t27 -30t32.5 -24t41 -19.5t44.5 -15.5t50 -12.5t50.5 -10
t53 -9.5q78 -14 135.5 -27t118.5 -32.5t103 -42.5t81 -56.5t62.5 -74.5t37 -95.5t13.5 -121.5q0 -459 -600 -459q-102 0 -187.5 16t-147.5 44t-111 67.5t-80 83t-51.5 94.5t-29.5 99.5t-10 99.5z" />
    <glyph glyph-name="T" unicode="T" horiz-adv-x="1216" 
d="M477 1217h-450v217h1163v-217h-451v-1217h-262v1217z" />
    <glyph glyph-name="U" unicode="U" horiz-adv-x="1478" 
d="M147 1434h263v-842q0 -220 74 -319t255 -99t255.5 99t74.5 319v842h262v-883q0 -59 -3.5 -106.5t-17.5 -111.5t-38 -113.5t-69 -101t-105.5 -85t-152.5 -55t-206 -21.5t-206 21.5t-152.5 55t-105.5 85t-69 101t-38 113.5t-17.5 111.5t-3.5 106.5v883z" />
    <glyph glyph-name="V" unicode="V" horiz-adv-x="1273" 
d="M637 272l360 1162h285l-494 -1434h-303l-493 1434h284z" />
    <glyph glyph-name="W" unicode="W" horiz-adv-x="1933" 
d="M967 1124l-254 -1124h-332l-389 1434h295l280 -1131l252 1131h295l252 -1131l281 1131h295l-390 -1434h-331z" />
    <glyph glyph-name="X" unicode="X" horiz-adv-x="1363" 
d="M682 915l317 519h328l-481 -701l518 -733h-338l-344 553l-344 -553h-338l518 733l-481 701h328z" />
    <glyph glyph-name="Y" unicode="Y" horiz-adv-x="1298" 
d="M649 805l348 629h310l-527 -863v-571h-262v571l-526 863h309z" />
    <glyph glyph-name="Z" unicode="Z" horiz-adv-x="1255" 
d="M92 1434h1065v-201l-774 -1016h819v-217h-1149v233l774 984h-735v217z" />
    <glyph glyph-name="bracketleft" unicode="[" horiz-adv-x="796" 
d="M217 1434h471v-168h-229v-1477h229v-168h-471v1813z" />
    <glyph glyph-name="backslash" unicode="\" horiz-adv-x="901" 
d="M901 -379h-168l-733 1813h168z" />
    <glyph glyph-name="bracketright" unicode="]" horiz-adv-x="796" 
d="M109 1434h471v-1813h-471v168h229v1477h-229v168z" />
    <glyph glyph-name="asciicircum" unicode="^" horiz-adv-x="987" 
d="M362 1434h263l260 -447h-197l-194 344l-195 -344h-197z" />
    <glyph glyph-name="underscore" unicode="_" horiz-adv-x="1011" 
d="M0 -379v168h1012v-168h-1012z" />
    <glyph glyph-name="grave" unicode="`" horiz-adv-x="696" 
d="M356 1434l144 -271h-185l-225 271h266z" />
    <glyph glyph-name="a" unicode="a" horiz-adv-x="1181" 
d="M336 719h-234q-2 73 25 137t82.5 115t150.5 80.5t218 29.5q87 0 157 -14.5t116 -36.5t79.5 -55.5t51.5 -64.5t28.5 -70.5t13 -67t2.5 -59.5v-416q0 -82 14.5 -106.5t75.5 -20.5v-170q-63 -6 -108 -6q-179 0 -203 135q-121 -154 -346 -154q-102 0 -177.5 24t-113.5 56
t-60.5 78t-27 77t-4.5 66q0 61 21 111.5t49.5 81t64.5 53.5t60.5 32t43.5 13q36 10 74.5 16.5t88 12t79.5 10.5q16 3 49.5 7.5t50.5 7.5q71 8 89 19q34 21 34 93q0 180 -202 180q-126 0 -186.5 -56.5t-55.5 -137.5zM780 463v37q-40 -27 -176 -43q-34 -5 -49 -7t-43.5 -6.5
t-41.5 -8t-34.5 -10t-32 -13t-25 -15.5t-21.5 -20t-14.5 -24.5t-10 -30.5t-2.5 -37q0 -64 40 -103t122 -39q41 0 77.5 7t76.5 28t68.5 55t47 93t18.5 137z" />
    <glyph glyph-name="b" unicode="b" horiz-adv-x="1302" 
d="M147 1434h246v-500q23 41 64 71.5t78 44t83 21.5t65.5 9t37.5 1q85 0 156 -20t121 -53.5t89 -80.5t62.5 -97t38.5 -107.5t20.5 -107.5t5.5 -101q0 -117 -29.5 -212t-78 -158t-114.5 -105.5t-135.5 -61t-143.5 -18.5q-222 0 -336 143h-4v-102h-226v1434zM375 518
q0 -181 71.5 -286t204.5 -105q38 0 73.5 7.5t79 32.5t74.5 65t52.5 112.5t21.5 167.5q0 206 -82.5 303.5t-207.5 97.5q-37 0 -72 -8t-75.5 -34t-70 -67.5t-49.5 -115t-20 -170.5z" />
    <glyph glyph-name="c" unicode="c" horiz-adv-x="1175" 
d="M868 381h234q-5 -52 -20 -103t-51 -111t-87.5 -104t-138 -74t-195.5 -30q-257 0 -389.5 151t-132.5 408q0 110 22 198.5t55.5 146t82.5 100t94 64.5t99.5 35t89 16t71.5 3q115 0 208 -32t152 -86.5t93 -122.5t43 -146h-234q-8 89 -71.5 154t-176.5 65q-74 0 -127 -31
t-82.5 -87.5t-43 -124.5t-13.5 -152q0 -94 18.5 -165.5t46.5 -113.5t67 -68t74.5 -35t74.5 -9q64 0 112 25.5t73 66.5t37 81t15 81z" />
    <glyph glyph-name="d" unicode="d" horiz-adv-x="1302" 
d="M909 1434h246v-1434h-225v102h-4q-45 -58 -113.5 -92t-119.5 -42.5t-103 -8.5q-76 0 -146 18.5t-135.5 61t-114 105.5t-77.5 158t-29 212q0 114 28.5 213.5t86.5 180t155 127t224 46.5q18 0 37 -1t65 -9t83 -21.5t78 -44t64 -71.5v500zM350 512q0 -99 23 -173t55.5 -113
t76 -63t75 -30t63.5 -6q130 0 207.5 108.5t77.5 282.5q0 97 -20 170.5t-50 115t-70.5 67.5t-75.5 34t-71 8q-59 0 -109.5 -22t-92 -67.5t-65.5 -125t-24 -186.5z" />
    <glyph glyph-name="e" unicode="e" horiz-adv-x="1216" 
d="M879 301h233q-9 -47 -25.5 -88t-53.5 -90t-88.5 -83.5t-136.5 -57.5t-192 -23q-23 0 -45.5 1t-62.5 7t-75.5 16t-79 30t-79.5 47t-71.5 68.5t-60 93.5t-39.5 124t-15 156q0 271 134 425t396 154q93 0 169 -21t127 -54.5t90 -83t60.5 -97.5t35.5 -108t19 -104.5t7 -96.5
q0 -12 1 -30t1 -29h-778q0 -43 8.5 -86t29.5 -87.5t52.5 -78.5t82.5 -56t114 -22q89 0 160 46t82 128zM350 625h518q0 33 -5 66.5t-21 75t-41.5 72.5t-72 52.5t-107.5 21.5q-68 0 -122.5 -26t-87 -68t-48 -92t-13.5 -102z" />
    <glyph glyph-name="f" unicode="f" horiz-adv-x="727" 
d="M700 1040v-168h-235v-872h-246v872h-192v168h192v131q0 44 5 77.5t24.5 72t53 64t94.5 42.5t145 17q81 0 159 -10v-168q-46 4 -96 4q-40 0 -68.5 -11t-41.5 -24t-20.5 -35.5t-8 -33t-0.5 -27.5v-99h235z" />
    <glyph glyph-name="g" unicode="g" horiz-adv-x="1310" 
d="M938 1040h225v-993q0 -215 -138 -328.5t-388 -113.5q-411 0 -455 295h226q14 -65 84.5 -94t154.5 -29q73 0 125.5 19.5t80 46.5t43 68t19 71.5t3.5 68.5v80q-23 -41 -64 -71.5t-78 -44t-83 -21.5t-65.5 -9t-37.5 -1q-127 0 -224 44t-155 120.5t-86.5 172t-28.5 205.5
q0 117 29 212t77.5 158t114 105.5t135.5 61t146 18.5q52 0 103 -9t119 -43t114 -91h4v102zM358 524q0 -70 12 -127.5t30.5 -95t45.5 -66t52.5 -44t56 -25t52.5 -12t44 -2.5q55 0 104.5 23t90.5 67.5t65.5 118.5t24.5 169q0 103 -24 180t-65.5 120t-91 63t-106.5 20
q-137 0 -214 -102.5t-77 -286.5z" />
    <glyph glyph-name="h" unicode="h" horiz-adv-x="1241" 
d="M147 1434h246v-531q51 86 147.5 132t194.5 46q73 0 131.5 -18t95 -44.5t63.5 -66t39.5 -72.5t20 -75t8.5 -63t1 -46v-696h-246v618q0 35 -0.5 56t-4.5 56.5t-11 57t-21.5 48t-34.5 41.5t-51.5 25.5t-71.5 10.5q-18 0 -36 -2.5t-45 -10.5t-50 -21.5t-47.5 -39t-42 -59
t-28.5 -85t-11 -113.5v-582h-246v1434z" />
    <glyph glyph-name="i" unicode="i" horiz-adv-x="540" 
d="M147 1040h246v-1040h-246v1040zM147 1217v217h246v-217h-246z" />
    <glyph glyph-name="j" unicode="j" horiz-adv-x="540" 
d="M147 1040h246v-1095q0 -61 -5 -104.5t-23 -89.5t-48.5 -74t-85.5 -46t-131 -18q-84 0 -139 8v168q102 2 144 38t42 132v1081zM147 1217v217h246v-217h-246z" />
    <glyph glyph-name="k" unicode="k" horiz-adv-x="1155" 
d="M393 584l434 456h291l-405 -405l450 -635h-286l-334 485l-150 -151v-334h-246v1434h246v-850z" />
    <glyph glyph-name="l" unicode="l" horiz-adv-x="540" 
d="M147 1434h246v-1434h-246v1434z" />
    <glyph glyph-name="m" unicode="m" horiz-adv-x="1875" 
d="M147 1040h246v-129q47 83 138 126.5t186 43.5q113 0 183 -42.5t110 -145.5q56 91 153 139.5t217 48.5q90 0 156 -28.5t102.5 -70.5t57.5 -103.5t27 -112.5t6 -113v-653h-246v639q0 45 -3 78.5t-13.5 73t-29 64t-53 41.5t-81.5 17q-42 0 -83 -16.5t-77.5 -50t-59 -94
t-22.5 -140.5v-612h-246v639q0 45 -3 78.5t-13.5 73t-29 64t-53 41.5t-81.5 17q-42 0 -83 -16.5t-77.5 -50t-59 -94t-22.5 -140.5v-612h-246v1040z" />
    <glyph glyph-name="n" unicode="n" horiz-adv-x="1241" 
d="M147 1040h246v-137q51 86 147.5 132t194.5 46q73 0 131.5 -18t95 -44.5t63.5 -66t39.5 -72.5t20 -75t8.5 -63t1 -46v-696h-246v618q0 35 -0.5 56t-4.5 56.5t-11 57t-21.5 48t-34.5 41.5t-51.5 25.5t-71.5 10.5q-18 0 -36 -2.5t-45 -10.5t-50 -21.5t-47.5 -39t-42 -59
t-28.5 -85t-11 -113.5v-582h-246v1040z" />
    <glyph glyph-name="o" unicode="o" horiz-adv-x="1249" 
d="M625 1081q126 0 224.5 -40t155.5 -99.5t94 -138.5t49.5 -147.5t12.5 -135.5t-12.5 -135.5t-49.5 -147.5t-94 -138.5t-155.5 -99.5t-224.5 -40q-91 0 -168.5 21t-131.5 55t-96.5 81.5t-68.5 98t-42.5 106.5t-23 104t-6.5 95q0 46 6.5 94t23 104t42.5 106.5t68.5 98
t96.5 82t131.5 55.5t168.5 21zM625 913q-33 0 -63 -6t-71 -30t-70 -64t-50 -116t-21 -177t21 -177t50 -116t70 -64t71 -30t63 -6q26 0 51 5t58.5 17.5t61 40.5t51.5 69.5t38 108.5t14 152t-14 152t-38 108.5t-51.5 69.5t-61 40.5t-58.5 17.5t-51 5z" />
    <glyph glyph-name="p" unicode="p" horiz-adv-x="1302" 
d="M147 1040h226v-102h4q114 143 336 143q74 0 143.5 -18.5t135.5 -61t114.5 -105.5t78 -158t29.5 -212q0 -51 -5.5 -101t-20.5 -107.5t-38.5 -107.5t-62.5 -97t-89 -80.5t-121 -53.5t-156 -20q-18 0 -37.5 1t-65.5 9t-83 21.5t-78 44t-64 71.5v-485h-246v1419zM375 518
q0 -181 71.5 -286t204.5 -105q38 0 73.5 7.5t79 32.5t74.5 65t52.5 112.5t21.5 167.5q0 206 -82.5 303.5t-207.5 97.5q-37 0 -72 -8t-75.5 -34t-70 -67.5t-49.5 -115t-20 -170.5z" />
    <glyph glyph-name="q" unicode="q" horiz-adv-x="1302" 
d="M930 1040h225v-1419h-246v485q-23 -41 -64 -71.5t-78 -44t-83 -21.5t-65 -9t-37 -1q-127 0 -224 46.5t-155 127t-86.5 180t-28.5 213.5q0 117 29 212t77.5 158t114 105.5t135.5 61t146 18.5q52 0 103 -9t119 -43t114 -91h4v102zM350 512q0 -99 23 -173t55.5 -113t76 -63
t75 -30t63.5 -6q130 0 207.5 108.5t77.5 282.5q0 97 -20 170.5t-50 115t-70.5 67.5t-75.5 34t-71 8q-59 0 -109.5 -22t-92 -67.5t-65.5 -125t-24 -186.5z" />
    <glyph glyph-name="r" unicode="r" horiz-adv-x="823" 
d="M795 1061v-160q-94 2 -165.5 -18t-113.5 -51.5t-69.5 -77.5t-38 -89t-13.5 -94q-2 -18 -2 -53v-53v-465h-246v1040h246v-190h4q26 62 69 106t94.5 65.5t98 30.5t95.5 9h41z" />
    <glyph glyph-name="s" unicode="s" horiz-adv-x="1105" 
d="M74 317h245q0 -50 22 -88t58.5 -59.5t78 -32t85.5 -10.5q38 0 71.5 7t67 24t53 52t19.5 85q0 66 -42.5 97t-149.5 50l-113 19q-178 31 -259 99t-81 208q0 78 32 137.5t78 91.5t108.5 52t113 26t102.5 6q432 0 443 -317h-232q-6 70 -59.5 109.5t-143.5 39.5
q-188 0 -188 -129q0 -35 15.5 -62t32 -41.5t58 -27.5t63 -17.5t76.5 -13.5q5 -1 8 -1.5t7 -1t8 -1.5q134 -24 179 -38q160 -52 193 -188q9 -39 9 -83q0 -74 -25.5 -133.5t-68.5 -99.5t-103 -66.5t-125.5 -38.5t-138.5 -12q-112 0 -199.5 22.5t-141 58t-89 84.5t-50 95.5
t-17.5 97.5z" />
    <glyph glyph-name="t" unicode="t" horiz-adv-x="700" 
d="M29 1040h168v312h245v-312h217v-168h-217v-587q0 -28 1 -42t7 -34t18 -29t36 -16.5t59 -7.5q55 0 96 12v-168q-95 -25 -200 -25q-53 0 -95 9t-69 22.5t-46.5 35t-29 40t-15 44t-6.5 41t-1 36.5v669h-168v168z" />
    <glyph glyph-name="u" unicode="u" horiz-adv-x="1241" 
d="M1094 0h-246v137h-4q-48 -88 -143.5 -133t-202.5 -45q-71 0 -127.5 17.5t-92.5 44t-62.5 65.5t-39 72.5t-20 75t-8.5 63.5t-1 47v696h246v-618q0 -38 1.5 -64t7 -64.5t18.5 -64.5t33.5 -51t55 -38t79.5 -13q53 0 95.5 16.5t69 40.5t46 59t28.5 64t14.5 65t6 52.5
t0.5 34.5v581h246v-1040z" />
    <glyph glyph-name="v" unicode="v" horiz-adv-x="1032" 
d="M516 242l262 798h262l-381 -1040h-286l-381 1040h262z" />
    <glyph glyph-name="w" unicode="w" horiz-adv-x="1579" 
d="M791 760l-187 -760h-250l-362 1040h256l244 -761l184 761h229l182 -761l244 761h256l-362 -1040h-250z" />
    <glyph glyph-name="x" unicode="x" horiz-adv-x="1067" 
d="M535 690l241 350h268l-374 -497l397 -543h-262l-270 387l-271 -387h-264l397 543l-372 497h268z" />
    <glyph glyph-name="y" unicode="y" horiz-adv-x="1107" 
d="M215 -375v168q50 -12 94 -12q69 0 102.5 37.5t61.5 134.5l14 49l-473 1038h295l314 -774l239 774h246l-397 -1130q-34 -97 -54 -133q-90 -164 -288 -164q-81 0 -154 12z" />
    <glyph glyph-name="z" unicode="z" horiz-adv-x="1003" 
d="M94 1040h821v-168l-575 -704h610v-168h-897v168l576 704h-535v168z" />
    <glyph glyph-name="braceleft" unicode="{" horiz-adv-x="749" 
d="M154 440v172q182 25 182 258q0 37 -4 90t-4 130q0 87 25.5 153t61 101t83 56.5t82 27.5t67.5 6v-136q-46 -20 -66 -65.5t-18 -98t6 -112.5q9 -58 9 -117q0 -152 -73.5 -244t-195.5 -133v-4q266 -92 266 -364q0 -70 -6 -129q-4 -60 -6 -112.5t18 -98.5t66 -66v-135
q-33 0 -67.5 5.5t-82 27t-83 56.5t-61 101t-25.5 154q0 77 4 129.5t4 89.5q0 233 -182 258z" />
    <glyph glyph-name="bar" unicode="|" horiz-adv-x="1019" 
d="M426 -459v2157h168v-2157h-168z" />
    <glyph glyph-name="braceright" unicode="}" horiz-adv-x="749" 
d="M596 612v-172q-182 -25 -182 -258q0 -37 4 -89.5t4 -129.5q0 -88 -25.5 -154t-61 -101t-83.5 -56.5t-82.5 -27t-67.5 -5.5v135q46 20 66 66t18 98.5t-6 112.5q-8 52 -8 116q0 153 73.5 245t194.5 132v4q-266 92 -266 363q0 73 6 131q4 60 6 112.5t-18 98t-66 65.5v136
q33 0 67.5 -6t82.5 -27.5t83.5 -56.5t61 -101t25.5 -153q0 -77 -4 -130t-4 -90q0 -233 182 -258z" />
    <glyph glyph-name="asciitilde" unicode="~" horiz-adv-x="1257" 
d="M197 569l-95 39q100 291 287 291q107 0 184 -47l211 -113q51 -26 103 -26q46 0 93.5 38.5t80.5 133.5l94 -39q-99 -291 -287 -291q-107 0 -184 47l-211 113q-45 26 -106 26t-104 -49t-66 -123z" />
    <glyph glyph-name="Zcaron" horiz-adv-x="1255" 
d="M92 1434h1065v-201l-774 -1016h819v-217h-1149v233l774 984h-735v217zM627 1651l204 192h246l-274 -287h-352l-275 287h246z" />
    <glyph glyph-name="Zcaron" unicode="&#x17d;" horiz-adv-x="1255" 
d="M92 1434h1065v-201l-774 -1016h819v-217h-1149v233l774 984h-735v217zM627 1651l204 192h246l-274 -287h-352l-275 287h246z" />
    <glyph glyph-name="zcaron" horiz-adv-x="1003" 
d="M94 1040h821v-168l-575 -704h610v-168h-897v168l576 704h-535v168zM504 1251l184 183h226l-246 -271h-328l-246 271h226z" />
    <glyph glyph-name="zcaron" unicode="&#x17e;" horiz-adv-x="1003" 
d="M94 1040h821v-168l-575 -704h610v-168h-897v168l576 704h-535v168zM504 1251l184 183h226l-246 -271h-328l-246 271h226z" />
    <glyph glyph-name="uni00A0" unicode="&#xa0;" horiz-adv-x="477" 
 />
    <glyph glyph-name="exclamdown" unicode="&#xa1;" horiz-adv-x="704" 
d="M487 -379h-270v469l70 494h131l69 -494v-469zM487 1040v-276h-270v276h270z" />
    <glyph glyph-name="cent" unicode="&#xa2;" 
d="M895 381h233q-9 -77 -38 -146t-77.5 -128t-124.5 -97.5t-171 -46.5v-151h-137v149q-68 2 -132.5 21.5t-125.5 62.5t-106.5 105t-73 157t-27.5 211q0 136 34 240t83.5 162t116.5 95.5t121 49.5t110 14v138h137v-140q70 -9 135.5 -35.5t124 -71t98 -116t49.5 -160.5h-233
q-8 72 -53 133.5t-121 77.5v-772q50 12 87 41.5t55.5 67.5t27 73t8.5 66zM580 137v768q-56 -12 -96.5 -47.5t-63 -89t-33 -115.5t-10.5 -135q0 -85 16 -153t38.5 -106.5t53 -66.5t52 -38.5t43.5 -16.5z" />
    <glyph glyph-name="sterling" unicode="&#xa3;" 
d="M1063 287l125 -172q-148 -158 -305 -158q-52 0 -105 13t-77 23t-74 34q-98 41 -172 41q-116 0 -232 -78l-121 178q59 38 101 78.5t63 72t33 68t14 58.5t2 51q0 64 -24 104h-223v168h153q-76 109 -76 256q0 93 29.5 172.5t90 143.5t163 100.5t236.5 36.5q234 0 360.5 -119
t126.5 -350v-37h-229v33q0 305 -256 305q-67 0 -118.5 -25t-81 -66.5t-44 -87.5t-14.5 -94q0 -27 3.5 -51t14 -53.5t17.5 -47t25 -57.5t26 -59h266v-168h-201q6 -23 6 -84q0 -74 -38.5 -143t-98.5 -121l4 -8q45 22 133 22q93 0 176 -39q3 -1 29.5 -14t38.5 -18t35.5 -11
t44.5 -6q97 0 174 109z" />
    <glyph glyph-name="currency" unicode="&#xa4;" horiz-adv-x="1671" 
d="M135 100l227 228q-108 155 -108 348q0 203 108 348l-227 227l125 125l227 -227q152 117 349 117q212 0 348 -117l227 227l125 -125l-227 -227q112 -151 112 -348q0 -191 -112 -348l227 -228l-125 -125l-227 228q-69 -51 -118 -72q-102 -45 -232 -45q-212 0 -347 117
l-227 -228zM465 676q0 -155 108 -263t263 -108t262.5 108t107.5 263t-107.5 263t-262.5 108t-263 -108t-108 -263z" />
    <glyph glyph-name="yen" unicode="&#xa5;" 
d="M662 805l305 629h309l-483 -863v-8h204v-110h-204v-107h204v-110h-204v-236h-263v236h-204v110h204v107h-204v110h204v8l-483 863h309z" />
    <glyph glyph-name="brokenbar" unicode="&#xa6;" horiz-adv-x="1019" 
d="M426 422h168v-881h-168v881zM594 817h-168v881h168v-881z" />
    <glyph glyph-name="section" unicode="&#xa7;" horiz-adv-x="1196" 
d="M954 1141h-204q2 52 -8.5 88.5t-30.5 54t-40 24.5t-44 7q-34 0 -59 -13t-37 -33t-17.5 -39.5t-5.5 -37.5q0 -40 14.5 -71t53 -58.5t59 -38.5t76.5 -37q3 -2 4 -2.5t3.5 -1.5t4.5 -2q12 -6 46 -22.5t48.5 -24t46 -25t46.5 -29t40.5 -32.5t38.5 -39.5t30 -45t25.5 -54
t14.5 -62.5t6 -74q0 -245 -231 -335q1 -1 3 -2q113 -72 113 -226q0 -63 -22 -118t-66.5 -100t-121.5 -71t-179 -26q-89 0 -156.5 27t-104 66t-58.5 92.5t-28.5 96.5t-6.5 89h205q-8 -80 29 -141.5t116 -61.5q55 0 101.5 32.5t46.5 94.5q0 18 -3.5 34.5t-8 29.5t-15 26.5
t-17 22t-23 19.5t-24 16.5t-28.5 16t-28 13.5t-30.5 13.5t-29.5 13.5q-85 37 -144.5 73.5t-113.5 89.5t-81.5 125t-27.5 162q0 113 56.5 196.5t158.5 112.5q-84 84 -84 211q0 64 20 119.5t61.5 101t113 71.5t166.5 26q19 0 36.5 -1t54.5 -8t66.5 -19t64.5 -37.5t58 -60.5
t38 -91t13 -125zM516 449l174 -101l6 3q5 3 9.5 6t13 8.5t15.5 11.5t16 15t16 19t14.5 22.5t12 26.5t7.5 31t3 35q0 77 -33.5 121.5t-91.5 73.5l-178 100q-107 -52 -107 -172q0 -137 123 -200z" />
    <glyph glyph-name="dieresis" unicode="&#xa8;" horiz-adv-x="831" 
d="M102 1217v217h238v-217h-238zM492 1217v217h237v-217h-237z" />
    <glyph glyph-name="copyright" unicode="&#xa9;" horiz-adv-x="1638" 
d="M102 717q0 145 56 277.5t151.5 229t229 153.5t280.5 57q145 0 277.5 -56.5t229 -152.5t153.5 -229t57 -279t-57 -279t-153.5 -229t-229 -152.5t-277.5 -56.5q-147 0 -280.5 57t-229 153.5t-151.5 229t-56 277.5zM266 717q0 -154 73 -286t200.5 -210t279.5 -78
q147 0 274 76.5t202 209t75 288.5q0 117 -44.5 223.5t-118.5 183t-176 121.5t-212 45q-152 0 -279.5 -77.5t-200.5 -209.5t-73 -286zM952 608h164q-4 -46 -20 -87t-47 -81t-88.5 -64t-133.5 -24q-171 0 -259.5 100t-88.5 267q0 90 21.5 159.5t55.5 111t80.5 68t90.5 36.5
t92 10q62 0 110.5 -15.5t78 -39t49.5 -56.5t29 -62.5t12 -62.5h-156q0 45 -33 77t-90 32q-74 0 -117 -62.5t-43 -195.5q0 -66 13.5 -113.5t31.5 -71t44.5 -37t43.5 -16t37 -2.5q15 0 29 3t37.5 13.5t39 39.5t17.5 73z" />
    <glyph glyph-name="ordfeminine" unicode="&#xaa;" horiz-adv-x="819" 
d="M252 1260h-127q0 37 12 71.5t40.5 69t86.5 55.5t139 21q72 0 124 -16.5t78 -37.5t40 -54t16.5 -54t2.5 -49v-254q0 -23 1 -33t6.5 -23t19 -16.5t36.5 -1.5v-111l-39 -6q-6 -2 -22 -2h-21q-89 0 -96 86q-66 -86 -221 -86q-41 0 -75.5 7t-70.5 25.5t-57 57.5t-21 95
q0 53 17.5 88t57.5 56t84 31.5t118 20.5q9 1 24.5 2t24 1.5t22 2t21 3.5t18 4.5t16.5 6.5t12 9t9 12t4 16v17q0 11 -1 19t-8 23t-19.5 24.5t-39 17.5t-63.5 8q-79 0 -115 -30t-34 -76zM532 1092v38q-17 -11 -39.5 -15t-89.5 -11q-5 -1 -33.5 -4.5t-39 -5.5t-32.5 -9
t-31.5 -16t-18 -24.5t-8.5 -36.5q0 -78 116 -78q13 0 28 1.5t43.5 11t50 25t38 48t16.5 76.5zM92 635v90h635v-90h-635z" />
    <glyph glyph-name="guillemotleft" unicode="&#xab;" horiz-adv-x="946" 
d="M238 553l194 -166v-217l-305 270v226l305 270v-217zM598 553l195 -166v-217l-306 270v226l306 270v-217z" />
    <glyph glyph-name="logicalnot" unicode="&#xac;" 
d="M102 829h1024v-460h-176v284h-848v176z" />
    <glyph glyph-name="uni00AD" unicode="&#xad;" horiz-adv-x="860" 
d="M164 442v217h532v-217h-532z" />
    <glyph glyph-name="registered" unicode="&#xae;" horiz-adv-x="1638" 
d="M102 717q0 145 57 278t153 229t229 153t278 57q147 0 280 -57t228.5 -153t152 -228.5t56.5 -278.5t-56.5 -278.5t-152 -228.5t-228.5 -153t-280 -57q-145 0 -278 57t-229 153t-153 229t-57 278zM266 717q0 -156 74 -288t201.5 -209t277.5 -77t277 77t200.5 209t73.5 288
q0 117 -43.5 223t-117.5 182.5t-176 122t-214 45.5t-214.5 -45.5t-176.5 -122t-118 -182.5t-44 -223zM557 365v716h313q49 0 88 -9.5t63.5 -24t42.5 -36t26.5 -39t13.5 -40.5t5.5 -34.5t0.5 -25.5q0 -127 -121 -163v-4q22 -4 39 -12.5t27.5 -25t17 -28t10.5 -35.5t5.5 -33.5
t3.5 -35.5q1 -24 2.5 -55.5l2 -42t3 -26.5t7 -25t13.5 -21h-168q-15 19 -19.5 37.5t-4.5 58.5t-2 67q0 25 -4.5 42t-19 35.5t-48.5 28t-86 9.5h-47v-278h-164zM721 954v-184h123q55 0 77.5 26.5t22.5 65.5q0 92 -115 92h-108z" />
    <glyph glyph-name="overscore" unicode="&#xaf;" horiz-adv-x="880" 
d="M102 1233v168h676v-168h-338h-338z" />
    <glyph glyph-name="degree" unicode="&#xb0;" horiz-adv-x="614" 
d="M102 1229q0 85 59 145t146 60q85 0 145 -60t60 -145q0 -87 -60 -146t-145 -59q-88 0 -146.5 58.5t-58.5 146.5zM213 1229q0 -41 26.5 -67.5t67.5 -26.5t67.5 26.5t26.5 67.5t-26.5 67.5t-67.5 26.5t-67.5 -26.5t-26.5 -67.5z" />
    <glyph glyph-name="plusminus" unicode="&#xb1;" 
d="M102 948h424v383h176v-383h424v-176h-424v-342h-176v342h-424v176zM102 340h1024v-176h-1024v176z" />
    <glyph glyph-name="twosuperior" unicode="&#xb2;" horiz-adv-x="761" 
d="M686 700v-127h-614q2 76 20.5 132t65.5 103.5t78 70t108 70.5q5 4 8 6t8 5t9 5q3 2 22 15t24 16t22 16t23 19t20.5 19t20 22.5t15 23.5t13 26.5t7 28.5t3.5 33q0 23 -7 46t-22.5 47.5t-49 40t-79.5 15.5q-45 0 -78.5 -14t-49.5 -32t-25.5 -44t-11 -41.5t-1.5 -32.5v-24
h-143v26q0 40 8.5 78t31 77.5t56.5 68t89.5 47t125.5 18.5q149 0 228 -78t79 -190q0 -29 -4 -55.5t-15 -49.5t-20.5 -41t-29.5 -38t-33 -32.5t-39.5 -31t-40.5 -27.5t-45 -28.5t-45 -28.5q-88 -55 -116 -79q-38 -35 -60 -81h444z" />
    <glyph glyph-name="threesuperior" unicode="&#xb3;" horiz-adv-x="761" 
d="M70 850h143q0 -20 3.5 -40.5t14.5 -46t28 -44.5t47.5 -32t70.5 -13q85 0 124.5 40.5t39.5 106.5q0 45 -19 75t-49.5 41t-48 14t-35.5 3h-63v131h55q76 0 109.5 37t33.5 97q0 59 -41.5 86.5t-103.5 27.5q-66 0 -102.5 -39.5t-40.5 -136.5h-144q0 59 14 110t45 96t90.5 71
t141.5 26q121 0 203 -59t82 -178q0 -81 -44 -126.5t-104 -64.5v-8q31 -4 58.5 -15.5t54.5 -34.5t43 -64.5t16 -96.5q0 -70 -26 -122.5t-71.5 -83t-100.5 -45.5t-119 -15q-69 0 -124 20.5t-88 52t-55 73.5t-30 80.5t-8 76.5z" />
    <glyph glyph-name="acute" unicode="&#xb4;" horiz-adv-x="696" 
d="M340 1434h266l-225 -271h-184z" />
    <glyph glyph-name="mu" unicode="&#xb5;" 
d="M420 92v-471h-246v1419h246v-567q0 -27 0.5 -44.5t4 -55.5t10.5 -64t21 -59.5t34 -54.5t52 -35.5t72 -14.5q28 0 52.5 7t51.5 28.5t46.5 56t32 95.5t12.5 141v567h246v-747q0 -22 0.5 -34t5 -33t12.5 -32t24.5 -19.5t39.5 -6.5l26 2v-170q-72 -10 -157 -10
q-174 0 -197 123q-73 -154 -201 -154q-59 0 -110.5 38t-77.5 95z" />
    <glyph glyph-name="mu" unicode="&#x3bc;" 
d="M420 92v-471h-246v1419h246v-567q0 -27 0.5 -44.5t4 -55.5t10.5 -64t21 -59.5t34 -54.5t52 -35.5t72 -14.5q28 0 52.5 7t51.5 28.5t46.5 56t32 95.5t12.5 141v567h246v-747q0 -22 0.5 -34t5 -33t12.5 -32t24.5 -19.5t39.5 -6.5l26 2v-170q-72 -10 -157 -10
q-174 0 -197 123q-73 -154 -201 -154q-59 0 -110.5 38t-77.5 95z" />
    <glyph glyph-name="paragraph" unicode="&#xb6;" horiz-adv-x="1146" 
d="M449 -379v1075q-165 0 -266 103.5t-101 265.5q0 176 99 272.5t268 96.5h167v-1813h-167zM836 -379v1813h168v-1813h-168z" />
    <glyph glyph-name="middot" unicode="&#xb7;" horiz-adv-x="512" 
d="M121 410v276h270v-276h-270z" />
    <glyph glyph-name="cedilla" unicode="&#xb8;" horiz-adv-x="655" 
d="M102 -475l39 125q61 -19 119 -19q34 0 58 7.5t34 19.5t13.5 22t3.5 21q0 20 -10 32.5t-30 17.5t-33 6t-34 1h-88l37 123h94q248 0 248 -184q0 -99 -79 -144t-210 -45q-75 0 -162 17z" />
    <glyph glyph-name="onesuperior" unicode="&#xb9;" horiz-adv-x="761" 
d="M168 1206v86h25q92 0 143 40.5t63 101.5h117v-861h-151v633h-197z" />
    <glyph glyph-name="ordmasculine" unicode="&#xba;" horiz-adv-x="798" 
d="M399 1477q75 0 132.5 -24t89.5 -59.5t52.5 -83.5t27 -88t6.5 -81t-6.5 -81t-27 -88t-52.5 -83.5t-89.5 -59.5t-132.5 -24t-132 24t-89.5 59.5t-52.5 83.5t-26.5 88t-6.5 81t6.5 81t26.5 88t52.5 83.5t89.5 59.5t132 24zM399 1366q-49 0 -83.5 -20t-52 -54.5t-25 -71
t-7.5 -79.5t7.5 -80t25 -71.5t52 -54.5t83.5 -20t83.5 20t52 54.5t25 71.5t7.5 80t-7.5 79.5t-25 71t-52 54.5t-83.5 20zM92 635v90h615v-90h-615z" />
    <glyph glyph-name="guillemotright" unicode="&#xbb;" horiz-adv-x="946" 
d="M707 553l-193 166v217l305 -270v-226l-305 -270v217zM346 553l-192 166v217l305 -270v-226l-305 -270v217z" />
    <glyph glyph-name="onequarter" unicode="&#xbc;" horiz-adv-x="1728" 
d="M1417 193h-413v126l413 541h152v-541h123v-126h-123v-193h-152v193zM1167 319h250v336zM168 1206v86h25q92 0 143 40.5t63 101.5h117v-861h-151v633h-197zM393 0l877 1434h147l-876 -1434h-148z" />
    <glyph glyph-name="onehalf" unicode="&#xbd;" horiz-adv-x="1728" 
d="M168 1206v86h25q92 0 143 40.5t63 101.5h117v-861h-151v633h-197zM1653 127v-127h-615q2 76 20.5 132t64 102t78.5 70t107 70q18 11 27 17q3 2 22 15t24 16t22 16t23 19t20.5 19t20 22.5t15 23.5t13 26.5t7 28.5t3.5 33q0 23 -6.5 46t-22.5 48t-49 40.5t-79 15.5
q-45 0 -78.5 -14t-49.5 -32t-25.5 -44t-11 -41.5t-1.5 -32.5v-25h-144v27q0 51 15 98.5t48.5 92t97.5 71.5t151 27q149 0 228 -78.5t79 -190.5q0 -33 -7 -63t-15.5 -52t-28.5 -46t-33.5 -38.5t-43 -36t-44 -31.5t-51 -32.5t-50.5 -31.5q-88 -55 -116 -79q-38 -36 -60 -81
h445zM311 0l877 1434h147l-876 -1434h-148z" />
    <glyph glyph-name="threequarters" unicode="&#xbe;" horiz-adv-x="1728" 
d="M70 850h143q0 -19 2 -25q6 -47 25 -80t45.5 -47t48 -19t43.5 -5q85 0 124.5 40.5t39.5 106.5q0 45 -19 75t-49.5 41t-48 14t-35.5 3h-63v131h55q76 0 109.5 37t33.5 97q0 59 -41.5 86.5t-103.5 27.5q-66 0 -102.5 -39.5t-40.5 -136.5h-144q0 59 14 110t45 96t90.5 71
t141.5 26q121 0 203 -59t82 -178q0 -81 -44 -126.5t-104 -64.5v-8q31 -4 58.5 -15.5t54.5 -34.5t43 -64.5t16 -96.5q0 -70 -26 -122.5t-71.5 -83t-100.5 -45.5t-119 -15q-135 0 -208.5 71.5t-92.5 184.5q-4 32 -4 47zM1417 193h-413v126l413 541h152v-541h123v-126h-123
v-193h-152v193zM1167 319h250v336zM434 0l877 1434h147l-876 -1434h-148z" />
    <glyph glyph-name="questiondown" unicode="&#xbf;" horiz-adv-x="1179" 
d="M739 1040v-276h-270v276h270zM819 63h252q2 -63 -8 -123.5t-42 -128t-84 -117.5t-143.5 -83t-211.5 -33q-102 0 -184 23t-135 61t-88.5 90.5t-50.5 109t-15 118.5q0 49 12 92t27.5 72.5t45 61.5t50.5 50t59 47q68 50 96.5 73.5t56 55t35 60t7.5 71.5v37h204
q0 -111 -13.5 -164t-72.5 -123q-23 -27 -71 -65.5t-81.5 -67.5t-61 -78t-27.5 -106q0 -88 51.5 -144.5t159.5 -56.5q107 0 172 61t61 207z" />
    <glyph glyph-name="Agrave" unicode="&#xc0;" horiz-adv-x="1327" 
d="M377 301l-105 -301h-280l540 1434h263l540 -1434h-280l-105 301h-573zM446 518h435l-217 637zM670 1843l159 -287h-196l-242 287h279z" />
    <glyph glyph-name="Aacute" unicode="&#xc1;" horiz-adv-x="1327" 
d="M377 301l-105 -301h-280l540 1434h263l540 -1434h-280l-105 301h-573zM446 518h435l-217 637zM657 1843h279l-242 -287h-196z" />
    <glyph glyph-name="Acircumflex" unicode="&#xc2;" horiz-adv-x="1327" 
d="M377 301l-105 -301h-280l540 1434h263l540 -1434h-280l-105 301h-573zM446 518h435l-217 637zM664 1749l-205 -193h-246l274 287h353l274 -287h-246z" />
    <glyph glyph-name="Atilde" unicode="&#xc3;" horiz-adv-x="1327" 
d="M377 301l-105 -301h-280l540 1434h263l540 -1434h-280l-105 301h-573zM446 518h435l-217 637zM932 1802h164q-52 -237 -265 -237q-44 0 -79.5 10t-94.5 35q-3 1 -17.5 7t-18.5 8t-16.5 7t-18 6.5t-16.5 5t-17.5 5t-16.5 3.5t-18.5 2.5t-17.5 0.5q-42 0 -71.5 -20
t-33.5 -54h-164q14 97 80 167.5t185 70.5q48 0 83 -8.5t91 -32.5q21 -8 54.5 -23.5t53.5 -20.5t49 -5q47 0 73.5 20.5t31.5 52.5z" />
    <glyph glyph-name="Adieresis" unicode="&#xc4;" horiz-adv-x="1327" 
d="M377 301l-105 -301h-280l540 1434h263l540 -1434h-280l-105 301h-573zM446 518h435l-217 637zM289 1581v180h262v-180h-262zM776 1581v180h262v-180h-262z" />
    <glyph glyph-name="Aring" unicode="&#xc5;" horiz-adv-x="1327" 
d="M377 301l-105 -301h-280l540 1434h263l540 -1434h-280l-105 301h-573zM446 518h435l-217 637zM459 1679q0 85 59 145t146 60q85 0 144.5 -60t59.5 -145q0 -87 -59.5 -145.5t-144.5 -58.5q-88 0 -146.5 58t-58.5 146zM573 1679q0 -37 27 -63.5t64 -26.5t63.5 26.5
t26.5 63.5t-26.5 63.5t-63.5 26.5t-64 -26.5t-27 -63.5z" />
    <glyph glyph-name="AE" unicode="&#xc6;" horiz-adv-x="2174" 
d="M1042 0v315h-569l-172 -315h-311l813 1434h1315v-217h-813v-373h729v-217h-729v-410h835v-217h-1098zM1042 532v685h-86l-368 -685h454z" />
    <glyph glyph-name="Ccedilla" unicode="&#xc7;" horiz-adv-x="1501" 
d="M1163 489h260q-5 -51 -15.5 -98.5t-32.5 -102.5t-52.5 -101t-79 -89.5t-109 -73.5t-145.5 -48.5t-186 -18.5q-28 0 -54 1t-80 8.5t-100.5 20t-107.5 38.5t-110 62t-99 92.5t-83.5 127t-55 169.5t-21.5 216q0 172 38.5 308t103.5 224t155.5 146t189 82.5t209.5 24.5
q141 0 251 -33.5t175.5 -85t108.5 -121.5t60 -134t20 -132h-260q-7 51 -25.5 96.5t-56.5 91.5t-108 73.5t-165 27.5q-93 0 -165.5 -30t-119 -80.5t-76 -123t-42 -152t-12.5 -172.5q0 -248 122 -388t320 -140q86 0 153 27t107 73t62 100.5t26 114.5zM526 -475l39 125
q61 -19 119 -19q34 0 58 7.5t34 19.5t13.5 22t3.5 21q0 20 -10 32.5t-30 17.5t-33 6t-34 1h-88l37 123h94q248 0 248 -184q0 -99 -79 -144t-210 -45q-75 0 -162 17z" />
    <glyph glyph-name="Egrave" unicode="&#xc8;" horiz-adv-x="1306" 
d="M436 844h729v-217h-729v-410h836v-217h-1098v1434h1075v-217h-813v-373zM659 1843l160 -287h-196l-242 287h278z" />
    <glyph glyph-name="Eacute" unicode="&#xc9;" horiz-adv-x="1306" 
d="M436 844h729v-217h-729v-410h836v-217h-1098v1434h1075v-217h-813v-373zM647 1843h279l-242 -287h-197z" />
    <glyph glyph-name="Ecircumflex" unicode="&#xca;" horiz-adv-x="1306" 
d="M436 844h729v-217h-729v-410h836v-217h-1098v1434h1075v-217h-813v-373zM653 1749l-204 -193h-246l274 287h352l275 -287h-246z" />
    <glyph glyph-name="Edieresis" unicode="&#xcb;" horiz-adv-x="1306" 
d="M436 844h729v-217h-729v-410h836v-217h-1098v1434h1075v-217h-813v-373zM279 1581v180h262v-180h-262zM766 1581v180h262v-180h-262z" />
    <glyph glyph-name="Igrave" unicode="&#xcc;" horiz-adv-x="610" 
d="M174 1434h262v-1434h-262v1434zM270 1843l160 -287h-197l-241 287h278z" />
    <glyph glyph-name="Iacute" unicode="&#xcd;" horiz-adv-x="610" 
d="M174 1434h262v-1434h-262v1434zM266 1843h279l-242 -287h-197z" />
    <glyph glyph-name="Icircumflex" unicode="&#xce;" horiz-adv-x="610" 
d="M174 1434h262v-1434h-262v1434zM305 1749l-205 -193h-245l274 287h352l275 -287h-246z" />
    <glyph glyph-name="Idieresis" unicode="&#xcf;" horiz-adv-x="610" 
d="M174 1434h262v-1434h-262v1434zM-63 1581v180h262v-180h-262zM424 1581v180h262v-180h-262z" />
    <glyph glyph-name="Eth" unicode="&#xd0;" horiz-adv-x="1548" 
d="M195 1434h569q123 0 224 -24t171.5 -63.5t124.5 -97t86 -118.5t52 -134.5t27 -139t7 -136.5q0 -721 -743 -721h-518v729h-195v168h195v537zM457 1217v-320h403v-168h-403v-512h243q35 0 66 2.5t82 13.5t92.5 30t87 56.5t76.5 88.5t51.5 130.5t20.5 178.5q0 126 -31 221
t-76 146.5t-107.5 83t-113.5 40.5t-107 9h-284z" />
    <glyph glyph-name="Ntilde" unicode="&#xd1;" horiz-adv-x="1576" 
d="M436 1018v-1018h-262v1434h279l688 -1018v1018h262v-1434h-279zM1057 1802h164q-52 -237 -265 -237q-44 0 -79.5 10t-94.5 35q-3 1 -17.5 7t-18.5 8t-16.5 7t-18 6.5t-16.5 5t-17.5 5t-16.5 3.5t-18.5 2.5t-17.5 0.5q-42 0 -71.5 -20t-33.5 -54h-164q14 97 80 167.5
t185 70.5q48 0 83 -8.5t91 -32.5q21 -8 54.5 -23.5t53.5 -20.5t49 -5q47 0 73.5 20.5t31.5 52.5z" />
    <glyph glyph-name="Ograve" unicode="&#xd2;" horiz-adv-x="1589" 
d="M795 1477q30 0 57.5 -1.5t81 -9t99.5 -21t105.5 -41t107.5 -64.5t96.5 -96t81 -131.5t53 -174t20.5 -221.5t-20.5 -221.5t-53 -174t-81 -131.5t-96.5 -96t-107.5 -64.5t-105.5 -41t-99.5 -21t-81 -9t-57.5 -1.5t-57.5 1.5t-81 9t-100 21t-105.5 41t-107.5 64.5t-96.5 96
t-81 131.5t-53.5 174t-20.5 221.5t20.5 221.5t53.5 174t81 131.5t96.5 96t107.5 64.5t105.5 41t100 21t81 9t57.5 1.5zM795 1260q-101 0 -178.5 -36t-122.5 -91t-73.5 -130.5t-38 -143.5t-9.5 -142t9.5 -142t38 -143.5t73.5 -130.5t122.5 -91t178.5 -36t178.5 36t122.5 91
t73.5 130.5t38 143.5t9.5 142t-9.5 142t-38 143.5t-73.5 130.5t-122.5 91t-178.5 36zM801 1843l160 -287h-197l-242 287h279z" />
    <glyph glyph-name="Oacute" unicode="&#xd3;" horiz-adv-x="1589" 
d="M795 1477q30 0 57.5 -1.5t81 -9t99.5 -21t105.5 -41t107.5 -64.5t96.5 -96t81 -131.5t53 -174t20.5 -221.5t-20.5 -221.5t-53 -174t-81 -131.5t-96.5 -96t-107.5 -64.5t-105.5 -41t-99.5 -21t-81 -9t-57.5 -1.5t-57.5 1.5t-81 9t-100 21t-105.5 41t-107.5 64.5t-96.5 96
t-81 131.5t-53.5 174t-20.5 221.5t20.5 221.5t53.5 174t81 131.5t96.5 96t107.5 64.5t105.5 41t100 21t81 9t57.5 1.5zM795 1260q-101 0 -178.5 -36t-122.5 -91t-73.5 -130.5t-38 -143.5t-9.5 -142t9.5 -142t38 -143.5t73.5 -130.5t122.5 -91t178.5 -36t178.5 36t122.5 91
t73.5 130.5t38 143.5t9.5 142t-9.5 142t-38 143.5t-73.5 130.5t-122.5 91t-178.5 36zM788 1843h279l-242 -287h-196z" />
    <glyph glyph-name="Ocircumflex" unicode="&#xd4;" horiz-adv-x="1589" 
d="M795 1477q30 0 57.5 -1.5t81 -9t99.5 -21t105.5 -41t107.5 -64.5t96.5 -96t81 -131.5t53 -174t20.5 -221.5t-20.5 -221.5t-53 -174t-81 -131.5t-96.5 -96t-107.5 -64.5t-105.5 -41t-99.5 -21t-81 -9t-57.5 -1.5t-57.5 1.5t-81 9t-100 21t-105.5 41t-107.5 64.5t-96.5 96
t-81 131.5t-53.5 174t-20.5 221.5t20.5 221.5t53.5 174t81 131.5t96.5 96t107.5 64.5t105.5 41t100 21t81 9t57.5 1.5zM795 1260q-101 0 -178.5 -36t-122.5 -91t-73.5 -130.5t-38 -143.5t-9.5 -142t9.5 -142t38 -143.5t73.5 -130.5t122.5 -91t178.5 -36t178.5 36t122.5 91
t73.5 130.5t38 143.5t9.5 142t-9.5 142t-38 143.5t-73.5 130.5t-122.5 91t-178.5 36zM795 1749l-205 -193h-246l274 287h353l274 -287h-246z" />
    <glyph glyph-name="Otilde" unicode="&#xd5;" horiz-adv-x="1589" 
d="M795 1477q30 0 57.5 -1.5t81 -9t99.5 -21t105.5 -41t107.5 -64.5t96.5 -96t81 -131.5t53 -174t20.5 -221.5t-20.5 -221.5t-53 -174t-81 -131.5t-96.5 -96t-107.5 -64.5t-105.5 -41t-99.5 -21t-81 -9t-57.5 -1.5t-57.5 1.5t-81 9t-100 21t-105.5 41t-107.5 64.5t-96.5 96
t-81 131.5t-53.5 174t-20.5 221.5t20.5 221.5t53.5 174t81 131.5t96.5 96t107.5 64.5t105.5 41t100 21t81 9t57.5 1.5zM795 1260q-101 0 -178.5 -36t-122.5 -91t-73.5 -130.5t-38 -143.5t-9.5 -142t9.5 -142t38 -143.5t73.5 -130.5t122.5 -91t178.5 -36t178.5 36t122.5 91
t73.5 130.5t38 143.5t9.5 142t-9.5 142t-38 143.5t-73.5 130.5t-122.5 91t-178.5 36zM1063 1802h164q-52 -237 -264 -237q-44 0 -80 10t-95 35q-3 1 -17.5 7t-18.5 8t-16.5 7t-18 6.5t-16.5 5t-17.5 5t-16.5 3.5t-18.5 2.5t-17.5 0.5q-42 0 -71.5 -20t-33.5 -54h-164
q14 97 80 167.5t185 70.5q48 0 83 -8.5t91 -32.5q21 -8 54.5 -23.5t53.5 -20.5t49 -5q47 0 73.5 20.5t31.5 52.5z" />
    <glyph glyph-name="Odieresis" unicode="&#xd6;" horiz-adv-x="1589" 
d="M795 1477q30 0 57.5 -1.5t81 -9t99.5 -21t105.5 -41t107.5 -64.5t96.5 -96t81 -131.5t53 -174t20.5 -221.5t-20.5 -221.5t-53 -174t-81 -131.5t-96.5 -96t-107.5 -64.5t-105.5 -41t-99.5 -21t-81 -9t-57.5 -1.5t-57.5 1.5t-81 9t-100 21t-105.5 41t-107.5 64.5t-96.5 96
t-81 131.5t-53.5 174t-20.5 221.5t20.5 221.5t53.5 174t81 131.5t96.5 96t107.5 64.5t105.5 41t100 21t81 9t57.5 1.5zM795 1260q-101 0 -178.5 -36t-122.5 -91t-73.5 -130.5t-38 -143.5t-9.5 -142t9.5 -142t38 -143.5t73.5 -130.5t122.5 -91t178.5 -36t178.5 36t122.5 91
t73.5 130.5t38 143.5t9.5 142t-9.5 142t-38 143.5t-73.5 130.5t-122.5 91t-178.5 36zM420 1581v180h262v-180h-262zM907 1581v180h262v-180h-262z" />
    <glyph glyph-name="multiply" unicode="&#xd7;" 
d="M115 340l374 375l-374 375l125 124l374 -374l375 374l125 -124l-375 -375l375 -375l-125 -125l-375 375l-374 -375z" />
    <glyph glyph-name="Oslash" unicode="&#xd8;" horiz-adv-x="1630" 
d="M1538 1479l-184 -228q75 -89 119.5 -214.5t44.5 -319.5q0 -436 -269 -637q-171 -123 -434 -123q-266 0 -422 115l-178 -219l-123 102l184 225q-74 94 -118.5 219.5t-44.5 317.5q0 437 268 637q171 123 434 123q286 0 422 -115l178 219zM455 399l626 770q-110 91 -266 91
q-101 0 -178.5 -36t-122.5 -91t-73.5 -130.5t-38 -143.5t-9.5 -142q0 -186 62 -318zM1176 1034l-627 -770q105 -90 266 -90q85 0 153.5 24.5t113 68t76.5 96.5t48.5 116.5t23.5 120.5t7 117q0 187 -61 317z" />
    <glyph glyph-name="Ugrave" unicode="&#xd9;" horiz-adv-x="1478" 
d="M147 1434h263v-842q0 -220 74 -319t255 -99t255.5 99t74.5 319v842h262v-883q0 -59 -3.5 -106.5t-17.5 -111.5t-38 -113.5t-69 -101t-105.5 -85t-152.5 -55t-206 -21.5t-206 21.5t-152.5 55t-105.5 85t-69 101t-38 113.5t-17.5 111.5t-3.5 106.5v883zM745 1843l160 -287
h-196l-242 287h278z" />
    <glyph glyph-name="Uacute" unicode="&#xda;" horiz-adv-x="1478" 
d="M147 1434h263v-842q0 -220 74 -319t255 -99t255.5 99t74.5 319v842h262v-883q0 -59 -3.5 -106.5t-17.5 -111.5t-38 -113.5t-69 -101t-105.5 -85t-152.5 -55t-206 -21.5t-206 21.5t-152.5 55t-105.5 85t-69 101t-38 113.5t-17.5 111.5t-3.5 106.5v883zM733 1843h279
l-242 -287h-197z" />
    <glyph glyph-name="Ucircumflex" unicode="&#xdb;" horiz-adv-x="1478" 
d="M147 1434h263v-842q0 -220 74 -319t255 -99t255.5 99t74.5 319v842h262v-883q0 -59 -3.5 -106.5t-17.5 -111.5t-38 -113.5t-69 -101t-105.5 -85t-152.5 -55t-206 -21.5t-206 21.5t-152.5 55t-105.5 85t-69 101t-38 113.5t-17.5 111.5t-3.5 106.5v883zM739 1749l-204 -193
h-246l274 287h352l275 -287h-246z" />
    <glyph glyph-name="Udieresis" unicode="&#xdc;" horiz-adv-x="1478" 
d="M147 1434h263v-842q0 -220 74 -319t255 -99t255.5 99t74.5 319v842h262v-883q0 -59 -3.5 -106.5t-17.5 -111.5t-38 -113.5t-69 -101t-105.5 -85t-152.5 -55t-206 -21.5t-206 21.5t-152.5 55t-105.5 85t-69 101t-38 113.5t-17.5 111.5t-3.5 106.5v883zM365 1581v180h262
v-180h-262zM852 1581v180h262v-180h-262z" />
    <glyph glyph-name="Yacute" unicode="&#xdd;" horiz-adv-x="1298" 
d="M649 805l348 629h310l-527 -863v-571h-262v571l-526 863h309zM643 1843h279l-242 -287h-197z" />
    <glyph glyph-name="Thorn" unicode="&#xde;" horiz-adv-x="1372" 
d="M174 1434h262v-248h373q41 0 77.5 -2.5t89 -13.5t95.5 -29.5t88.5 -53.5t76.5 -82t51 -119t20 -161t-24 -161.5t-59 -117.5t-86.5 -78.5t-95 -49.5t-97.5 -25t-81 -10.5t-57 -1.5h-371v-281h-262v1434zM436 969v-471h320q137 0 208.5 55t71.5 184q0 61 -19 105.5
t-45.5 68.5t-66.5 37.5t-72 17t-71 3.5h-326z" />
    <glyph glyph-name="germandbls" unicode="&#xdf;" horiz-adv-x="1218" 
d="M147 0v938q0 62 2 103t11.5 102.5t27 103t52 88.5t83 75t122 46.5t167.5 18.5q199 0 308.5 -95t109.5 -278q0 -204 -184 -277v-4q41 -9 78 -23.5t79 -45t72 -71t50 -105.5t20 -146q0 -100 -25.5 -177.5t-69 -127.5t-106 -82.5t-130 -45.5t-146.5 -13q-84 0 -138 16v168
q50 -16 105 -16q69 0 120.5 25t79.5 67.5t41 91.5t13 104q0 53 -12 95.5t-30 70.5t-46 48.5t-54 31.5t-60.5 17.5t-59 8t-54.5 1.5h-43v168h52q53 0 92.5 16.5t60 39.5t32.5 55.5t14.5 54.5t2.5 47q0 109 -49 161t-137 52q-54 0 -92.5 -18.5t-60 -45.5t-33.5 -71t-15.5 -83
t-3.5 -92v-997h-246z" />
    <glyph glyph-name="agrave" unicode="&#xe0;" horiz-adv-x="1181" 
d="M336 719h-234q-2 73 25 137t82.5 115t150.5 80.5t218 29.5q87 0 157 -14.5t116 -36.5t79.5 -55.5t51.5 -64.5t28.5 -70.5t13 -67t2.5 -59.5v-416q0 -82 14.5 -106.5t75.5 -20.5v-170q-63 -6 -108 -6q-179 0 -203 135q-121 -154 -346 -154q-102 0 -177.5 24t-113.5 56
t-60.5 78t-27 77t-4.5 66q0 61 21 111.5t49.5 81t64.5 53.5t60.5 32t43.5 13q36 10 74.5 16.5t88 12t79.5 10.5q16 3 49.5 7.5t50.5 7.5q71 8 89 19q34 21 34 93q0 180 -202 180q-126 0 -186.5 -56.5t-55.5 -137.5zM780 463v37q-40 -27 -176 -43q-34 -5 -49 -7t-43.5 -6.5
t-41.5 -8t-34.5 -10t-32 -13t-25 -15.5t-21.5 -20t-14.5 -24.5t-10 -30.5t-2.5 -37q0 -64 40 -103t122 -39q41 0 77.5 7t76.5 28t68.5 55t47 93t18.5 137zM598 1434l144 -271h-185l-225 271h266z" />
    <glyph glyph-name="aacute" unicode="&#xe1;" horiz-adv-x="1181" 
d="M336 719h-234q-2 73 25 137t82.5 115t150.5 80.5t218 29.5q87 0 157 -14.5t116 -36.5t79.5 -55.5t51.5 -64.5t28.5 -70.5t13 -67t2.5 -59.5v-416q0 -82 14.5 -106.5t75.5 -20.5v-170q-63 -6 -108 -6q-179 0 -203 135q-121 -154 -346 -154q-102 0 -177.5 24t-113.5 56
t-60.5 78t-27 77t-4.5 66q0 61 21 111.5t49.5 81t64.5 53.5t60.5 32t43.5 13q36 10 74.5 16.5t88 12t79.5 10.5q16 3 49.5 7.5t50.5 7.5q71 8 89 19q34 21 34 93q0 180 -202 180q-126 0 -186.5 -56.5t-55.5 -137.5zM780 463v37q-40 -27 -176 -43q-34 -5 -49 -7t-43.5 -6.5
t-41.5 -8t-34.5 -10t-32 -13t-25 -15.5t-21.5 -20t-14.5 -24.5t-10 -30.5t-2.5 -37q0 -64 40 -103t122 -39q41 0 77.5 7t76.5 28t68.5 55t47 93t18.5 137zM582 1434h266l-225 -271h-185z" />
    <glyph glyph-name="acircumflex" unicode="&#xe2;" horiz-adv-x="1181" 
d="M336 719h-234q-2 73 25 137t82.5 115t150.5 80.5t218 29.5q87 0 157 -14.5t116 -36.5t79.5 -55.5t51.5 -64.5t28.5 -70.5t13 -67t2.5 -59.5v-416q0 -82 14.5 -106.5t75.5 -20.5v-170q-63 -6 -108 -6q-179 0 -203 135q-121 -154 -346 -154q-102 0 -177.5 24t-113.5 56
t-60.5 78t-27 77t-4.5 66q0 61 21 111.5t49.5 81t64.5 53.5t60.5 32t43.5 13q36 10 74.5 16.5t88 12t79.5 10.5q16 3 49.5 7.5t50.5 7.5q71 8 89 19q34 21 34 93q0 180 -202 180q-126 0 -186.5 -56.5t-55.5 -137.5zM780 463v37q-40 -27 -176 -43q-34 -5 -49 -7t-43.5 -6.5
t-41.5 -8t-34.5 -10t-32 -13t-25 -15.5t-21.5 -20t-14.5 -24.5t-10 -30.5t-2.5 -37q0 -64 40 -103t122 -39q41 0 77.5 7t76.5 28t68.5 55t47 93t18.5 137zM590 1346l-184 -183h-226l246 271h328l246 -271h-226z" />
    <glyph glyph-name="atilde" unicode="&#xe3;" horiz-adv-x="1181" 
d="M336 719h-234q-2 73 25 137t82.5 115t150.5 80.5t218 29.5q87 0 157 -14.5t116 -36.5t79.5 -55.5t51.5 -64.5t28.5 -70.5t13 -67t2.5 -59.5v-416q0 -82 14.5 -106.5t75.5 -20.5v-170q-63 -6 -108 -6q-179 0 -203 135q-121 -154 -346 -154q-102 0 -177.5 24t-113.5 56
t-60.5 78t-27 77t-4.5 66q0 61 21 111.5t49.5 81t64.5 53.5t60.5 32t43.5 13q36 10 74.5 16.5t88 12t79.5 10.5q16 3 49.5 7.5t50.5 7.5q71 8 89 19q34 21 34 93q0 180 -202 180q-126 0 -186.5 -56.5t-55.5 -137.5zM780 463v37q-40 -27 -176 -43q-34 -5 -49 -7t-43.5 -6.5
t-41.5 -8t-34.5 -10t-32 -13t-25 -15.5t-21.5 -20t-14.5 -24.5t-10 -30.5t-2.5 -37q0 -64 40 -103t122 -39q41 0 77.5 7t76.5 28t68.5 55t47 93t18.5 137zM831 1434h152q-17 -97 -85.5 -153t-156.5 -56q-69 0 -157 45q-2 1 -15.5 7.5t-16.5 7.5t-15 6.5t-16 7t-14.5 5
t-16.5 5t-15 3.5t-17 2.5t-16 0.5q-80 0 -94 -74h-151q13 87 78 148t163 61q74 0 158 -41q14 -7 37.5 -18.5t34.5 -16.5t30 -9.5t39 -4.5q80 0 94 74z" />
    <glyph glyph-name="adieresis" unicode="&#xe4;" horiz-adv-x="1181" 
d="M336 719h-234q-2 73 25 137t82.5 115t150.5 80.5t218 29.5q87 0 157 -14.5t116 -36.5t79.5 -55.5t51.5 -64.5t28.5 -70.5t13 -67t2.5 -59.5v-416q0 -82 14.5 -106.5t75.5 -20.5v-170q-63 -6 -108 -6q-179 0 -203 135q-121 -154 -346 -154q-102 0 -177.5 24t-113.5 56
t-60.5 78t-27 77t-4.5 66q0 61 21 111.5t49.5 81t64.5 53.5t60.5 32t43.5 13q36 10 74.5 16.5t88 12t79.5 10.5q16 3 49.5 7.5t50.5 7.5q71 8 89 19q34 21 34 93q0 180 -202 180q-126 0 -186.5 -56.5t-55.5 -137.5zM780 463v37q-40 -27 -176 -43q-34 -5 -49 -7t-43.5 -6.5
t-41.5 -8t-34.5 -10t-32 -13t-25 -15.5t-21.5 -20t-14.5 -24.5t-10 -30.5t-2.5 -37q0 -64 40 -103t122 -39q41 0 77.5 7t76.5 28t68.5 55t47 93t18.5 137zM276 1217v217h238v-217h-238zM666 1217v217h237v-217h-237z" />
    <glyph glyph-name="aring" unicode="&#xe5;" horiz-adv-x="1181" 
d="M336 719h-234q-2 73 25 137t82.5 115t150.5 80.5t218 29.5q87 0 157 -14.5t116 -36.5t79.5 -55.5t51.5 -64.5t28.5 -70.5t13 -67t2.5 -59.5v-416q0 -82 14.5 -106.5t75.5 -20.5v-170q-63 -6 -108 -6q-179 0 -203 135q-121 -154 -346 -154q-102 0 -177.5 24t-113.5 56
t-60.5 78t-27 77t-4.5 66q0 61 21 111.5t49.5 81t64.5 53.5t60.5 32t43.5 13q36 10 74.5 16.5t88 12t79.5 10.5q16 3 49.5 7.5t50.5 7.5q71 8 89 19q34 21 34 93q0 180 -202 180q-126 0 -186.5 -56.5t-55.5 -137.5zM780 463v37q-40 -27 -176 -43q-34 -5 -49 -7t-43.5 -6.5
t-41.5 -8t-34.5 -10t-32 -13t-25 -15.5t-21.5 -20t-14.5 -24.5t-10 -30.5t-2.5 -37q0 -64 40 -103t122 -39q41 0 77.5 7t76.5 28t68.5 55t47 93t18.5 137zM397 1298q0 78 57.5 135.5t135.5 57.5t135 -57.5t57 -135.5t-57 -135t-135 -57t-135.5 57t-57.5 135zM500 1298
q0 -37 26.5 -63.5t63.5 -26.5t63.5 26.5t26.5 63.5t-26.5 64t-63.5 27t-63.5 -27t-26.5 -64z" />
    <glyph glyph-name="ae" unicode="&#xe6;" horiz-adv-x="1904" 
d="M336 719h-234q-2 72 25 135.5t82.5 115t150.5 81.5t218 30q133 0 223 -35t131 -126q115 161 375 161q34 0 66.5 -2.5t86 -15.5t98.5 -34.5t95 -64t84.5 -100t57 -147.5t22.5 -201v-59h-779q0 -43 8.5 -86t29.5 -87.5t52.5 -78.5t82.5 -56t114 -22q89 0 160 46t82 128h233
q-9 -47 -25.5 -88t-53.5 -90t-88 -83.5t-136 -57.5t-192 -23q-61 0 -113 7.5t-107.5 27t-103 58t-82.5 95.5q-31 -56 -83 -95t-115.5 -58t-121.5 -27t-120 -8q-383 0 -383 317q0 61 21 111.5t49.5 81t64.5 53.5t60.5 32t43.5 13q30 8 69 15t68.5 11.5t96.5 13t108 14.5
q71 8 89 19q34 21 34 93q0 180 -202 180q-126 0 -186.5 -56.5t-55.5 -137.5zM780 446v54q-40 -27 -176 -43q-42 -6 -61.5 -9t-52.5 -8.5t-48.5 -11.5t-38 -15t-32.5 -20.5t-21.5 -27t-15.5 -35.5t-4 -45q0 -71 40 -114.5t122 -43.5q41 0 77.5 7t76.5 28t68.5 55t47 92.5
t18.5 136.5zM1038 625h518q0 33 -5 66.5t-21 75t-41.5 72.5t-72 52.5t-107.5 21.5q-68 0 -122.5 -26t-87 -68t-48 -92t-13.5 -102z" />
    <glyph glyph-name="ccedilla" unicode="&#xe7;" horiz-adv-x="1175" 
d="M868 381h234q-5 -52 -20 -103t-51 -111t-87.5 -104t-138 -74t-195.5 -30q-257 0 -389.5 151t-132.5 408q0 110 22 198.5t55.5 146t82.5 100t94 64.5t99.5 35t89 16t71.5 3q115 0 208 -32t152 -86.5t93 -122.5t43 -146h-234q-8 89 -71.5 154t-176.5 65q-74 0 -127 -31
t-82.5 -87.5t-43 -124.5t-13.5 -152q0 -94 18.5 -165.5t46.5 -113.5t67 -68t74.5 -35t74.5 -9q64 0 112 25.5t73 66.5t37 81t15 81zM358 -475l39 125q61 -19 119 -19q34 0 58 7.5t34 19.5t13.5 22t3.5 21q0 20 -10 32.5t-30 17.5t-33 6t-34 1h-88l37 123h94q248 0 248 -184
q0 -99 -79 -144t-210 -45q-75 0 -162 17z" />
    <glyph glyph-name="egrave" unicode="&#xe8;" horiz-adv-x="1216" 
d="M879 301h233q-9 -47 -25.5 -88t-53.5 -90t-88.5 -83.5t-136.5 -57.5t-192 -23q-23 0 -45.5 1t-62.5 7t-75.5 16t-79 30t-79.5 47t-71.5 68.5t-60 93.5t-39.5 124t-15 156q0 271 134 425t396 154q93 0 169 -21t127 -54.5t90 -83t60.5 -97.5t35.5 -108t19 -104.5t7 -96.5
q0 -12 1 -30t1 -29h-778q0 -43 8.5 -86t29.5 -87.5t52.5 -78.5t82.5 -56t114 -22q89 0 160 46t82 128zM350 625h518q0 33 -5 66.5t-21 75t-41.5 72.5t-72 52.5t-107.5 21.5q-68 0 -122.5 -26t-87 -68t-48 -92t-13.5 -102zM616 1434l144 -271h-185l-225 271h266z" />
    <glyph glyph-name="eacute" unicode="&#xe9;" horiz-adv-x="1216" 
d="M879 301h233q-9 -47 -25.5 -88t-53.5 -90t-88.5 -83.5t-136.5 -57.5t-192 -23q-23 0 -45.5 1t-62.5 7t-75.5 16t-79 30t-79.5 47t-71.5 68.5t-60 93.5t-39.5 124t-15 156q0 271 134 425t396 154q93 0 169 -21t127 -54.5t90 -83t60.5 -97.5t35.5 -108t19 -104.5t7 -96.5
q0 -12 1 -30t1 -29h-778q0 -43 8.5 -86t29.5 -87.5t52.5 -78.5t82.5 -56t114 -22q89 0 160 46t82 128zM350 625h518q0 33 -5 66.5t-21 75t-41.5 72.5t-72 52.5t-107.5 21.5q-68 0 -122.5 -26t-87 -68t-48 -92t-13.5 -102zM600 1434h266l-225 -271h-184z" />
    <glyph glyph-name="ecircumflex" unicode="&#xea;" horiz-adv-x="1216" 
d="M879 301h233q-9 -47 -25.5 -88t-53.5 -90t-88.5 -83.5t-136.5 -57.5t-192 -23q-23 0 -45.5 1t-62.5 7t-75.5 16t-79 30t-79.5 47t-71.5 68.5t-60 93.5t-39.5 124t-15 156q0 271 134 425t396 154q93 0 169 -21t127 -54.5t90 -83t60.5 -97.5t35.5 -108t19 -104.5t7 -96.5
q0 -12 1 -30t1 -29h-778q0 -43 8.5 -86t29.5 -87.5t52.5 -78.5t82.5 -56t114 -22q89 0 160 46t82 128zM350 625h518q0 33 -5 66.5t-21 75t-41.5 72.5t-72 52.5t-107.5 21.5q-68 0 -122.5 -26t-87 -68t-48 -92t-13.5 -102zM608 1346l-184 -183h-226l246 271h328l246 -271
h-226z" />
    <glyph glyph-name="edieresis" unicode="&#xeb;" horiz-adv-x="1216" 
d="M879 301h233q-9 -47 -25.5 -88t-53.5 -90t-88.5 -83.5t-136.5 -57.5t-192 -23q-23 0 -45.5 1t-62.5 7t-75.5 16t-79 30t-79.5 47t-71.5 68.5t-60 93.5t-39.5 124t-15 156q0 271 134 425t396 154q93 0 169 -21t127 -54.5t90 -83t60.5 -97.5t35.5 -108t19 -104.5t7 -96.5
q0 -12 1 -30t1 -29h-778q0 -43 8.5 -86t29.5 -87.5t52.5 -78.5t82.5 -56t114 -22q89 0 160 46t82 128zM350 625h518q0 33 -5 66.5t-21 75t-41.5 72.5t-72 52.5t-107.5 21.5q-68 0 -122.5 -26t-87 -68t-48 -92t-13.5 -102zM295 1217v217h237v-217h-237zM684 1217v217h238
v-217h-238z" />
    <glyph glyph-name="igrave" unicode="&#xec;" horiz-adv-x="540" 
d="M147 1040h246v-1040h-246v1040zM250 1434l144 -271h-185l-225 271h266z" />
    <glyph glyph-name="iacute" unicode="&#xed;" horiz-adv-x="540" 
d="M147 1040h246v-1040h-246v1040zM236 1434h266l-226 -271h-184z" />
    <glyph glyph-name="icircumflex" unicode="&#xee;" horiz-adv-x="540" 
d="M147 1040h246v-1040h-246v1040zM268 1346l-184 -183h-226l246 271h328l246 -271h-226z" />
    <glyph glyph-name="idieresis" unicode="&#xef;" horiz-adv-x="540" 
d="M147 1040h246v-1040h-246v1040zM-45 1217v217h238v-217h-238zM344 1217v217h238v-217h-238z" />
    <glyph glyph-name="eth" unicode="&#xf0;" horiz-adv-x="1296" 
d="M338 1391l33 120q182 -25 370 -98l154 88l66 -80l-111 -59q65 -32 117 -75t87 -88t60.5 -100t39.5 -104t22.5 -108t11 -104.5t2.5 -100.5q0 -40 -1.5 -76.5t-8 -93t-17 -105t-31 -106.5t-48 -105t-69.5 -92.5t-94 -76t-123 -49.5t-155 -19q-128 0 -228.5 38t-158.5 94.5
t-96 132.5t-51 143t-13 133q0 106 31.5 201t92.5 172t161 122t227 45q269 0 402 -204h8q-4 57 -21.5 113t-52 115.5t-97 112t-145.5 89.5l-278 -162l-62 78l226 131q-115 50 -250 78zM928 500q0 106 -24.5 182.5t-67.5 116t-90 56.5t-103 17t-103 -17t-90 -56.5t-67.5 -116
t-24.5 -182.5q0 -86 17 -152.5t44 -107.5t65 -67t76.5 -36t82.5 -10t82.5 10t76.5 36t65 67t44 107.5t17 152.5z" />
    <glyph glyph-name="ntilde" unicode="&#xf1;" horiz-adv-x="1241" 
d="M147 1040h246v-137q51 86 147.5 132t194.5 46q73 0 131.5 -18t95 -44.5t63.5 -66t39.5 -72.5t20 -75t8.5 -63t1 -46v-696h-246v618q0 35 -0.5 56t-4.5 56.5t-11 57t-21.5 48t-34.5 41.5t-51.5 25.5t-71.5 10.5q-18 0 -36 -2.5t-45 -10.5t-50 -21.5t-47.5 -39t-42 -59
t-28.5 -85t-11 -113.5v-582h-246v1040zM862 1434h152q-17 -97 -85.5 -153t-156.5 -56q-70 0 -158 45q-3 2 -17.5 8.5t-18.5 8.5t-16.5 7.5t-18 7t-16 5t-18 5t-17.5 2.5t-19 1q-80 0 -94 -74h-152q13 87 78.5 148t163.5 61q74 0 158 -41q14 -7 37.5 -18.5t34.5 -16.5
t30 -9.5t39 -4.5q80 0 94 74z" />
    <glyph glyph-name="ograve" unicode="&#xf2;" horiz-adv-x="1249" 
d="M625 1081q126 0 224.5 -40t155.5 -99.5t94 -138.5t49.5 -147.5t12.5 -135.5t-12.5 -135.5t-49.5 -147.5t-94 -138.5t-155.5 -99.5t-224.5 -40q-91 0 -168.5 21t-131.5 55t-96.5 81.5t-68.5 98t-42.5 106.5t-23 104t-6.5 95q0 46 6.5 94t23 104t42.5 106.5t68.5 98
t96.5 82t131.5 55.5t168.5 21zM625 913q-33 0 -63 -6t-71 -30t-70 -64t-50 -116t-21 -177t21 -177t50 -116t70 -64t71 -30t63 -6q26 0 51 5t58.5 17.5t61 40.5t51.5 69.5t38 108.5t14 152t-14 152t-38 108.5t-51.5 69.5t-61 40.5t-58.5 17.5t-51 5zM632 1434l144 -271h-185
l-225 271h266z" />
    <glyph glyph-name="oacute" unicode="&#xf3;" horiz-adv-x="1249" 
d="M625 1081q126 0 224.5 -40t155.5 -99.5t94 -138.5t49.5 -147.5t12.5 -135.5t-12.5 -135.5t-49.5 -147.5t-94 -138.5t-155.5 -99.5t-224.5 -40q-91 0 -168.5 21t-131.5 55t-96.5 81.5t-68.5 98t-42.5 106.5t-23 104t-6.5 95q0 46 6.5 94t23 104t42.5 106.5t68.5 98
t96.5 82t131.5 55.5t168.5 21zM625 913q-33 0 -63 -6t-71 -30t-70 -64t-50 -116t-21 -177t21 -177t50 -116t70 -64t71 -30t63 -6q26 0 51 5t58.5 17.5t61 40.5t51.5 69.5t38 108.5t14 152t-14 152t-38 108.5t-51.5 69.5t-61 40.5t-58.5 17.5t-51 5zM616 1434h267l-226 -271
h-184z" />
    <glyph glyph-name="ocircumflex" unicode="&#xf4;" horiz-adv-x="1249" 
d="M625 1081q126 0 224.5 -40t155.5 -99.5t94 -138.5t49.5 -147.5t12.5 -135.5t-12.5 -135.5t-49.5 -147.5t-94 -138.5t-155.5 -99.5t-224.5 -40q-91 0 -168.5 21t-131.5 55t-96.5 81.5t-68.5 98t-42.5 106.5t-23 104t-6.5 95q0 46 6.5 94t23 104t42.5 106.5t68.5 98
t96.5 82t131.5 55.5t168.5 21zM625 913q-33 0 -63 -6t-71 -30t-70 -64t-50 -116t-21 -177t21 -177t50 -116t70 -64t71 -30t63 -6q26 0 51 5t58.5 17.5t61 40.5t51.5 69.5t38 108.5t14 152t-14 152t-38 108.5t-51.5 69.5t-61 40.5t-58.5 17.5t-51 5zM625 1346l-184 -183h-226
l246 271h328l246 -271h-226z" />
    <glyph glyph-name="otilde" unicode="&#xf5;" horiz-adv-x="1249" 
d="M625 1081q126 0 224.5 -40t155.5 -99.5t94 -138.5t49.5 -147.5t12.5 -135.5t-12.5 -135.5t-49.5 -147.5t-94 -138.5t-155.5 -99.5t-224.5 -40q-91 0 -168.5 21t-131.5 55t-96.5 81.5t-68.5 98t-42.5 106.5t-23 104t-6.5 95q0 46 6.5 94t23 104t42.5 106.5t68.5 98
t96.5 82t131.5 55.5t168.5 21zM625 913q-33 0 -63 -6t-71 -30t-70 -64t-50 -116t-21 -177t21 -177t50 -116t70 -64t71 -30t63 -6q26 0 51 5t58.5 17.5t61 40.5t51.5 69.5t38 108.5t14 152t-14 152t-38 108.5t-51.5 69.5t-61 40.5t-58.5 17.5t-51 5zM866 1434h152
q-17 -97 -85.5 -153t-156.5 -56q-70 0 -158 45q-3 2 -17.5 8.5t-18.5 8.5t-16.5 7.5t-18 7t-16 5t-18 5t-17.5 2.5t-19 1q-80 0 -94 -74h-152q13 87 78.5 148t163.5 61q74 0 158 -41q14 -7 37.5 -18.5t34.5 -16.5t30 -9.5t39 -4.5q80 0 94 74z" />
    <glyph glyph-name="odieresis" unicode="&#xf6;" horiz-adv-x="1249" 
d="M625 1081q126 0 224.5 -40t155.5 -99.5t94 -138.5t49.5 -147.5t12.5 -135.5t-12.5 -135.5t-49.5 -147.5t-94 -138.5t-155.5 -99.5t-224.5 -40q-91 0 -168.5 21t-131.5 55t-96.5 81.5t-68.5 98t-42.5 106.5t-23 104t-6.5 95q0 46 6.5 94t23 104t42.5 106.5t68.5 98
t96.5 82t131.5 55.5t168.5 21zM625 913q-33 0 -63 -6t-71 -30t-70 -64t-50 -116t-21 -177t21 -177t50 -116t70 -64t71 -30t63 -6q26 0 51 5t58.5 17.5t61 40.5t51.5 69.5t38 108.5t14 152t-14 152t-38 108.5t-51.5 69.5t-61 40.5t-58.5 17.5t-51 5zM311 1217v217h238v-217
h-238zM701 1217v217h237v-217h-237z" />
    <glyph glyph-name="divide" unicode="&#xf7;" 
d="M471 1024q0 60 41.5 101.5t101.5 41.5t102 -41.5t42 -101.5t-42 -101.5t-102 -41.5t-101.5 41.5t-41.5 101.5zM471 311q0 60 41.5 102t101.5 42t102 -42t42 -102t-42 -101.5t-102 -41.5t-101.5 41.5t-41.5 101.5zM102 580v176h1024v-176h-1024z" />
    <glyph glyph-name="oslash" unicode="&#xf8;" horiz-adv-x="1236" 
d="M625 1081q182 0 307 -82l110 134l113 -93l-115 -139q15 -17 32 -44.5t39 -74.5t36 -116.5t14 -145.5q0 -67 -12.5 -135.5t-49.5 -147.5t-94 -138.5t-155.5 -99.5t-224.5 -40q-171 0 -301 78l-107 -129l-117 92l113 135q-125 149 -125 385q0 46 6.5 94t23 104t42.5 106.5
t68.5 98t96.5 82t131.5 55.5t168.5 21zM625 913q-34 0 -65 -6.5t-71 -30.5t-69 -64t-49.5 -115.5t-20.5 -176.5t23 -192l428 514q-75 71 -176 71zM625 127q26 0 51 5t58.5 18t61 41t51.5 69t38 108t14 152q0 106 -20 187l-424 -514q68 -66 170 -66z" />
    <glyph glyph-name="ugrave" unicode="&#xf9;" horiz-adv-x="1241" 
d="M1094 0h-246v137h-4q-48 -88 -143.5 -133t-202.5 -45q-71 0 -127.5 17.5t-92.5 44t-62.5 65.5t-39 72.5t-20 75t-8.5 63.5t-1 47v696h246v-618q0 -38 1.5 -64t7 -64.5t18.5 -64.5t33.5 -51t55 -38t79.5 -13q53 0 95.5 16.5t69 40.5t46 59t28.5 64t14.5 65t6 52.5
t0.5 34.5v581h246v-1040zM628 1434l144 -271h-185l-225 271h266z" />
    <glyph glyph-name="uacute" unicode="&#xfa;" horiz-adv-x="1241" 
d="M1094 0h-246v137h-4q-48 -88 -143.5 -133t-202.5 -45q-71 0 -127.5 17.5t-92.5 44t-62.5 65.5t-39 72.5t-20 75t-8.5 63.5t-1 47v696h246v-618q0 -38 1.5 -64t7 -64.5t18.5 -64.5t33.5 -51t55 -38t79.5 -13q53 0 95.5 16.5t69 40.5t46 59t28.5 64t14.5 65t6 52.5
t0.5 34.5v581h246v-1040zM612 1434h267l-226 -271h-184z" />
    <glyph glyph-name="ucircumflex" unicode="&#xfb;" horiz-adv-x="1241" 
d="M1094 0h-246v137h-4q-48 -88 -143.5 -133t-202.5 -45q-71 0 -127.5 17.5t-92.5 44t-62.5 65.5t-39 72.5t-20 75t-8.5 63.5t-1 47v696h246v-618q0 -38 1.5 -64t7 -64.5t18.5 -64.5t33.5 -51t55 -38t79.5 -13q53 0 95.5 16.5t69 40.5t46 59t28.5 64t14.5 65t6 52.5
t0.5 34.5v581h246v-1040zM621 1346l-184 -183h-226l246 271h328l246 -271h-226z" />
    <glyph glyph-name="udieresis" unicode="&#xfc;" horiz-adv-x="1241" 
d="M1094 0h-246v137h-4q-48 -88 -143.5 -133t-202.5 -45q-71 0 -127.5 17.5t-92.5 44t-62.5 65.5t-39 72.5t-20 75t-8.5 63.5t-1 47v696h246v-618q0 -38 1.5 -64t7 -64.5t18.5 -64.5t33.5 -51t55 -38t79.5 -13q53 0 95.5 16.5t69 40.5t46 59t28.5 64t14.5 65t6 52.5
t0.5 34.5v581h246v-1040zM307 1217v217h238v-217h-238zM696 1217v217h238v-217h-238z" />
    <glyph glyph-name="yacute" unicode="&#xfd;" horiz-adv-x="1107" 
d="M215 -375v168q50 -12 94 -12q69 0 102.5 37.5t61.5 134.5l14 49l-473 1038h295l314 -774l239 774h246l-397 -1130q-34 -97 -54 -133q-90 -164 -288 -164q-81 0 -154 12zM545 1434h266l-225 -271h-184z" />
    <glyph glyph-name="thorn" unicode="&#xfe;" horiz-adv-x="1302" 
d="M147 1434h246v-496q57 75 143.5 109t176.5 34q74 0 143.5 -19t135.5 -61.5t114.5 -105.5t78 -158t29.5 -211q0 -51 -5.5 -101t-20.5 -107.5t-38.5 -107.5t-62.5 -97t-89 -80.5t-121 -53.5t-156 -20q-18 0 -37.5 1t-65.5 9t-83 21.5t-78 44t-64 71.5v-485h-246v1813z
M375 518q0 -181 71.5 -286t204.5 -105q38 0 73.5 7.5t79 32.5t74.5 65t52.5 112.5t21.5 167.5q0 206 -82.5 303.5t-207.5 97.5q-37 0 -72 -8t-75.5 -34t-70 -67.5t-49.5 -115t-20 -170.5z" />
    <glyph glyph-name="ydieresis" unicode="&#xff;" horiz-adv-x="1107" 
d="M215 -375v168q50 -12 94 -12q69 0 102.5 37.5t61.5 134.5l14 49l-473 1038h295l314 -774l239 774h246l-397 -1130q-34 -97 -54 -133q-90 -164 -288 -164q-81 0 -154 12zM240 1217v217h237v-217h-237zM629 1217v217h237v-217h-237z" />
    <glyph glyph-name="Amacron" unicode="&#x100;" horiz-adv-x="1327" 
d="M377 301l-105 -301h-280l540 1434h263l540 -1434h-280l-105 301h-573zM446 518h435l-217 637zM326 1556v164h675v-164h-337h-338z" />
    <glyph glyph-name="amacron" unicode="&#x101;" horiz-adv-x="1181" 
d="M336 719h-234q-2 73 25 137t82.5 115t150.5 80.5t218 29.5q87 0 157 -14.5t116 -36.5t79.5 -55.5t51.5 -64.5t28.5 -70.5t13 -67t2.5 -59.5v-416q0 -82 14.5 -106.5t75.5 -20.5v-170q-63 -6 -108 -6q-179 0 -203 135q-121 -154 -346 -154q-102 0 -177.5 24t-113.5 56
t-60.5 78t-27 77t-4.5 66q0 61 21 111.5t49.5 81t64.5 53.5t60.5 32t43.5 13q36 10 74.5 16.5t88 12t79.5 10.5q16 3 49.5 7.5t50.5 7.5q71 8 89 19q34 21 34 93q0 180 -202 180q-126 0 -186.5 -56.5t-55.5 -137.5zM780 463v37q-40 -27 -176 -43q-34 -5 -49 -7t-43.5 -6.5
t-41.5 -8t-34.5 -10t-32 -13t-25 -15.5t-21.5 -20t-14.5 -24.5t-10 -30.5t-2.5 -37q0 -64 40 -103t122 -39q41 0 77.5 7t76.5 28t68.5 55t47 93t18.5 137zM252 1233v168h676v-168h-338h-338z" />
    <glyph glyph-name="Abreve" unicode="&#x102;" horiz-adv-x="1327" 
d="M377 301l-105 -301h-280l540 1434h263l540 -1434h-280l-105 301h-573zM446 518h435l-217 637zM233 1870h211q7 -79 68.5 -122.5t151.5 -43.5t151 43.5t68 122.5h211q-26 -139 -136.5 -226.5t-293.5 -87.5t-294 87.5t-137 226.5z" />
    <glyph glyph-name="abreve" unicode="&#x103;" horiz-adv-x="1181" 
d="M336 719h-234q-2 73 25 137t82.5 115t150.5 80.5t218 29.5q87 0 157 -14.5t116 -36.5t79.5 -55.5t51.5 -64.5t28.5 -70.5t13 -67t2.5 -59.5v-416q0 -82 14.5 -106.5t75.5 -20.5v-170q-63 -6 -108 -6q-179 0 -203 135q-121 -154 -346 -154q-102 0 -177.5 24t-113.5 56
t-60.5 78t-27 77t-4.5 66q0 61 21 111.5t49.5 81t64.5 53.5t60.5 32t43.5 13q36 10 74.5 16.5t88 12t79.5 10.5q16 3 49.5 7.5t50.5 7.5q71 8 89 19q34 21 34 93q0 180 -202 180q-126 0 -186.5 -56.5t-55.5 -137.5zM780 463v37q-40 -27 -176 -43q-34 -5 -49 -7t-43.5 -6.5
t-41.5 -8t-34.5 -10t-32 -13t-25 -15.5t-21.5 -20t-14.5 -24.5t-10 -30.5t-2.5 -37q0 -64 40 -103t122 -39q41 0 77.5 7t76.5 28t68.5 55t47 93t18.5 137zM186 1434h209q4 -70 59 -110t136 -40t135.5 40t58.5 110h209q-69 -293 -403 -293q-85 0 -153 20t-110.5 49.5t-73 71
t-45 77.5t-22.5 75z" />
    <glyph glyph-name="Aogonek" unicode="&#x104;" horiz-adv-x="1327" 
d="M377 301l-105 -301h-280l540 1434h263l540 -1434q-81 -26 -125.5 -91.5t-44.5 -154.5q0 -55 28 -89t77 -34q50 0 76 35t24 82h164q-2 -23 -8.5 -47.5t-26.5 -61t-49.5 -64t-84 -47.5t-124.5 -20q-130 0 -195 71t-65 167q0 76 37 145.5t112 108.5h-75l-105 301h-573z
M446 518h435l-217 637z" />
    <glyph glyph-name="aogonek" unicode="&#x105;" horiz-adv-x="1181" 
d="M336 719h-234q-2 73 25 137t82.5 115t150.5 80.5t218 29.5q87 0 157 -14.5t116 -36.5t79.5 -55.5t51.5 -64.5t28.5 -70.5t13 -67t2.5 -59.5v-416q0 -82 14.5 -106.5t75.5 -20.5v-170q-81 -26 -125.5 -91.5t-44.5 -154.5q0 -55 28 -89t77 -34q50 0 76 35t24 82h164
q-2 -23 -8.5 -47.5t-26.5 -61t-49.5 -64t-84 -47.5t-124.5 -20q-130 0 -195 71t-65 167q0 163 147 260q-88 30 -104 123q-121 -154 -346 -154q-102 0 -177.5 24t-113.5 56t-60.5 78t-27 77t-4.5 66q0 61 21 111.5t49.5 81t64.5 53.5t60.5 32t43.5 13q30 8 69 15t68.5 11.5
t96.5 13t108 14.5q71 8 89 19q34 21 34 93q0 180 -202 180q-126 0 -186.5 -56.5t-55.5 -137.5zM780 463v37q-40 -27 -176 -43q-34 -5 -49 -7t-43.5 -6.5t-41.5 -8t-34.5 -10t-32 -13t-25 -15.5t-21.5 -20t-14.5 -24.5t-10 -30.5t-2.5 -37q0 -64 40 -103t122 -39q41 0 77.5 7
t76.5 28t68.5 55t47 93t18.5 137z" />
    <glyph glyph-name="Cacute" unicode="&#x106;" horiz-adv-x="1501" 
d="M1163 489h260q-5 -51 -15.5 -98.5t-32.5 -102.5t-52.5 -101t-79 -89.5t-109 -73.5t-145.5 -48.5t-186 -18.5q-28 0 -54 1t-80 8.5t-100.5 20t-107.5 38.5t-110 62t-99 92.5t-83.5 127t-55 169.5t-21.5 216q0 172 38.5 308t103.5 224t155.5 146t189 82.5t209.5 24.5
q141 0 251 -33.5t175.5 -85t108.5 -121.5t60 -134t20 -132h-260q-7 51 -25.5 96.5t-56.5 91.5t-108 73.5t-165 27.5q-93 0 -165.5 -30t-119 -80.5t-76 -123t-42 -152t-12.5 -172.5q0 -248 122 -388t320 -140q86 0 153 27t107 73t62 100.5t26 114.5zM743 1843h279l-242 -287
h-196z" />
    <glyph glyph-name="cacute" unicode="&#x107;" horiz-adv-x="1175" 
d="M868 381h234q-5 -52 -20 -103t-51 -111t-87.5 -104t-138 -74t-195.5 -30q-257 0 -389.5 151t-132.5 408q0 110 22 198.5t55.5 146t82.5 100t94 64.5t99.5 35t89 16t71.5 3q115 0 208 -32t152 -86.5t93 -122.5t43 -146h-234q-8 89 -71.5 154t-176.5 65q-74 0 -127 -31
t-82.5 -87.5t-43 -124.5t-13.5 -152q0 -94 18.5 -165.5t46.5 -113.5t67 -68t74.5 -35t74.5 -9q64 0 112 25.5t73 66.5t37 81t15 81zM580 1434h266l-225 -271h-184z" />
    <glyph glyph-name="Ccircumflex" unicode="&#x108;" horiz-adv-x="1501" 
d="M1163 489h260q-5 -51 -15.5 -98.5t-32.5 -102.5t-52.5 -101t-79 -89.5t-109 -73.5t-145.5 -48.5t-186 -18.5q-28 0 -54 1t-80 8.5t-100.5 20t-107.5 38.5t-110 62t-99 92.5t-83.5 127t-55 169.5t-21.5 216q0 172 38.5 308t103.5 224t155.5 146t189 82.5t209.5 24.5
q141 0 251 -33.5t175.5 -85t108.5 -121.5t60 -134t20 -132h-260q-7 51 -25.5 96.5t-56.5 91.5t-108 73.5t-165 27.5q-93 0 -165.5 -30t-119 -80.5t-76 -123t-42 -152t-12.5 -172.5q0 -248 122 -388t320 -140q86 0 153 27t107 73t62 100.5t26 114.5zM750 1749l-205 -193h-246
l274 287h353l274 -287h-246z" />
    <glyph glyph-name="ccircumflex" unicode="&#x109;" horiz-adv-x="1175" 
d="M868 381h234q-5 -52 -20 -103t-51 -111t-87.5 -104t-138 -74t-195.5 -30q-257 0 -389.5 151t-132.5 408q0 110 22 198.5t55.5 146t82.5 100t94 64.5t99.5 35t89 16t71.5 3q115 0 208 -32t152 -86.5t93 -122.5t43 -146h-234q-8 89 -71.5 154t-176.5 65q-74 0 -127 -31
t-82.5 -87.5t-43 -124.5t-13.5 -152q0 -94 18.5 -165.5t46.5 -113.5t67 -68t74.5 -35t74.5 -9q64 0 112 25.5t73 66.5t37 81t15 81zM588 1346l-184 -183h-226l246 271h328l246 -271h-226z" />
    <glyph glyph-name="Ccaron" unicode="&#x10c;" horiz-adv-x="1501" 
d="M1163 489h260q-5 -51 -15.5 -98.5t-32.5 -102.5t-52.5 -101t-79 -89.5t-109 -73.5t-145.5 -48.5t-186 -18.5q-28 0 -54 1t-80 8.5t-100.5 20t-107.5 38.5t-110 62t-99 92.5t-83.5 127t-55 169.5t-21.5 216q0 172 38.5 308t103.5 224t155.5 146t189 82.5t209.5 24.5
q141 0 251 -33.5t175.5 -85t108.5 -121.5t60 -134t20 -132h-260q-7 51 -25.5 96.5t-56.5 91.5t-108 73.5t-165 27.5q-93 0 -165.5 -30t-119 -80.5t-76 -123t-42 -152t-12.5 -172.5q0 -248 122 -388t320 -140q86 0 153 27t107 73t62 100.5t26 114.5zM750 1651l204 192h246
l-274 -287h-353l-274 287h246z" />
    <glyph glyph-name="ccaron" unicode="&#x10d;" horiz-adv-x="1175" 
d="M868 381h234q-5 -52 -20 -103t-51 -111t-87.5 -104t-138 -74t-195.5 -30q-257 0 -389.5 151t-132.5 408q0 110 22 198.5t55.5 146t82.5 100t94 64.5t99.5 35t89 16t71.5 3q115 0 208 -32t152 -86.5t93 -122.5t43 -146h-234q-8 89 -71.5 154t-176.5 65q-74 0 -127 -31
t-82.5 -87.5t-43 -124.5t-13.5 -152q0 -94 18.5 -165.5t46.5 -113.5t67 -68t74.5 -35t74.5 -9q64 0 112 25.5t73 66.5t37 81t15 81zM588 1251l184 183h226l-246 -271h-328l-246 271h226z" />
    <glyph glyph-name="Dcaron" unicode="&#x10e;" horiz-adv-x="1527" 
d="M174 1434h569q123 0 224 -24t171.5 -63.5t124.5 -97t86 -118.5t52.5 -134.5t27.5 -139t7 -136.5q0 -721 -744 -721h-518v1434zM436 1217v-1000h244q36 0 67 2.5t82 13.5t92 30t86.5 56.5t76 88.5t51 130.5t20.5 178.5q0 126 -31 221t-75.5 146.5t-107 83t-113.5 40.5
t-107 9h-285zM764 1651l205 192h245l-274 -287h-352l-275 287h246z" />
    <glyph glyph-name="dcaron" unicode="&#x10f;" horiz-adv-x="1546" 
d="M909 1434h246v-1434h-225v102h-4q-45 -58 -113.5 -92t-119.5 -42.5t-103 -8.5q-76 0 -146 18.5t-135.5 61t-114 105.5t-77.5 158t-29 212q0 114 28.5 213.5t86.5 180t155 127t224 46.5q18 0 37 -1t65 -9t83 -21.5t78 -44t64 -71.5v500zM350 512q0 -99 23 -173t55.5 -113
t76 -63t75 -30t63.5 -6q130 0 207.5 108.5t77.5 282.5q0 97 -20 170.5t-50 115t-70.5 67.5t-75.5 34t-71 8q-59 0 -109.5 -22t-92 -67.5t-65.5 -125t-24 -186.5zM1311 1434h270v-285q0 -83 -24 -145t-65 -96.5t-85.5 -52t-95.5 -21.5v141q61 5 99 48.5t38 111.5v22h-137v277
z" />
    <glyph glyph-name="Dcroat" unicode="&#x110;" horiz-adv-x="1548" 
d="M195 1434h569q123 0 224 -24t171.5 -63.5t124.5 -97t86 -118.5t52 -134.5t27 -139t7 -136.5q0 -721 -743 -721h-518v729h-195v168h195v537zM457 1217v-320h403v-168h-403v-512h243q35 0 66 2.5t82 13.5t92.5 30t87 56.5t76.5 88.5t51.5 130.5t20.5 178.5q0 126 -31 221
t-76 146.5t-107.5 83t-113.5 40.5t-107 9h-284z" />
    <glyph glyph-name="dslash" unicode="&#x111;" horiz-adv-x="1318" 
d="M909 1434h246v-125h164v-140h-164v-1169h-225v102h-4q-45 -58 -113.5 -92t-119.5 -42.5t-103 -8.5q-76 0 -146 18.5t-135.5 61t-114 105.5t-77.5 158t-29 212q0 114 28.5 213.5t86.5 180t155 127t224 46.5q18 0 37 -1t65 -9t83 -21.5t78 -44t64 -71.5v235h-409v140h409
v125zM350 512q0 -99 23 -173t55.5 -113t76 -63t75 -30t63.5 -6q130 0 207.5 108.5t77.5 282.5q0 97 -20 170.5t-50 115t-70.5 67.5t-75.5 34t-71 8q-59 0 -109.5 -22t-92 -67.5t-65.5 -125t-24 -186.5z" />
    <glyph glyph-name="Emacron" unicode="&#x112;" horiz-adv-x="1306" 
d="M436 844h729v-217h-729v-410h836v-217h-1098v1434h1075v-217h-813v-373zM315 1556v164h676v-164h-338h-338z" />
    <glyph glyph-name="emacron" unicode="&#x113;" horiz-adv-x="1216" 
d="M879 301h233q-9 -47 -25.5 -88t-53.5 -90t-88.5 -83.5t-136.5 -57.5t-192 -23q-23 0 -45.5 1t-62.5 7t-75.5 16t-79 30t-79.5 47t-71.5 68.5t-60 93.5t-39.5 124t-15 156q0 271 134 425t396 154q93 0 169 -21t127 -54.5t90 -83t60.5 -97.5t35.5 -108t19 -104.5t7 -96.5
q0 -12 1 -30t1 -29h-778q0 -43 8.5 -86t29.5 -87.5t52.5 -78.5t82.5 -56t114 -22q89 0 160 46t82 128zM350 625h518q0 33 -5 66.5t-21 75t-41.5 72.5t-72 52.5t-107.5 21.5q-68 0 -122.5 -26t-87 -68t-48 -92t-13.5 -102zM270 1233v168h676v-168h-338h-338z" />
    <glyph glyph-name="Edotaccent" unicode="&#x116;" horiz-adv-x="1306" 
d="M436 844h729v-217h-729v-410h836v-217h-1098v1434h1075v-217h-813v-373zM522 1581v180h262v-180h-262z" />
    <glyph glyph-name="edotaccent" unicode="&#x117;" horiz-adv-x="1216" 
d="M879 301h233q-9 -47 -25.5 -88t-53.5 -90t-88.5 -83.5t-136.5 -57.5t-192 -23q-23 0 -45.5 1t-62.5 7t-75.5 16t-79 30t-79.5 47t-71.5 68.5t-60 93.5t-39.5 124t-15 156q0 271 134 425t396 154q93 0 169 -21t127 -54.5t90 -83t60.5 -97.5t35.5 -108t19 -104.5t7 -96.5
q0 -12 1 -30t1 -29h-778q0 -43 8.5 -86t29.5 -87.5t52.5 -78.5t82.5 -56t114 -22q89 0 160 46t82 128zM350 625h518q0 33 -5 66.5t-21 75t-41.5 72.5t-72 52.5t-107.5 21.5q-68 0 -122.5 -26t-87 -68t-48 -92t-13.5 -102zM485 1217v217h246v-217h-246z" />
    <glyph glyph-name="Eogonek" unicode="&#x118;" horiz-adv-x="1306" 
d="M436 844h729v-217h-729v-410h836v-217h-336q-81 -26 -125.5 -91.5t-44.5 -154.5q0 -55 27.5 -89t76.5 -34q51 0 77 35t24 82h164q-2 -23 -8.5 -47.5t-26.5 -61t-49.5 -64t-84 -47.5t-124.5 -20q-130 0 -195 71t-65 167q0 76 37 145.5t112 108.5h-557v1434h1075v-217h-813
v-373z" />
    <glyph glyph-name="eogonek" unicode="&#x119;" horiz-adv-x="1216" 
d="M879 301h233q-9 -51 -30 -96t-43 -74.5t-48 -53.5t-43 -35t-30 -17q-51 -26 -80 -35q-73 -33 -108.5 -97t-35.5 -139q0 -55 28 -89t77 -34q50 0 76 35t24 82h164q-2 -23 -8.5 -47.5t-26.5 -61t-49.5 -64t-84 -47.5t-124.5 -20q-52 0 -94 12t-68.5 30.5t-46 44t-29 47
t-15 46.5t-6.5 36.5t-1 21.5q0 123 90 213q-76 -2 -147 15t-138 58t-117 102.5t-80 156t-30 211.5q0 271 134 425t396 154q251 0 378.5 -146.5t131.5 -477.5h-778q0 -43 8.5 -86t29.5 -87.5t52.5 -78.5t82.5 -56t114 -22q89 0 160 46t82 128zM350 625h518v16q0 10 -2 16
q-16 140 -84.5 198t-160.5 58q-68 0 -122.5 -26t-87 -68t-48 -92t-13.5 -102z" />
    <glyph glyph-name="Ecaron" unicode="&#x11a;" horiz-adv-x="1306" 
d="M436 844h729v-217h-729v-410h836v-217h-1098v1434h1075v-217h-813v-373zM653 1651l205 192h246l-275 -287h-352l-274 287h246z" />
    <glyph glyph-name="ecaron" unicode="&#x11b;" horiz-adv-x="1216" 
d="M879 301h233q-9 -47 -25.5 -88t-53.5 -90t-88.5 -83.5t-136.5 -57.5t-192 -23q-23 0 -45.5 1t-62.5 7t-75.5 16t-79 30t-79.5 47t-71.5 68.5t-60 93.5t-39.5 124t-15 156q0 271 134 425t396 154q93 0 169 -21t127 -54.5t90 -83t60.5 -97.5t35.5 -108t19 -104.5t7 -96.5
q0 -12 1 -30t1 -29h-778q0 -43 8.5 -86t29.5 -87.5t52.5 -78.5t82.5 -56t114 -22q89 0 160 46t82 128zM350 625h518q0 33 -5 66.5t-21 75t-41.5 72.5t-72 52.5t-107.5 21.5q-68 0 -122.5 -26t-87 -68t-48 -92t-13.5 -102zM608 1251l184 183h226l-246 -271h-328l-246 271h226
z" />
    <glyph glyph-name="Gcircumflex" unicode="&#x11c;" horiz-adv-x="1548" 
d="M844 768h586v-768h-189v195h-4q-123 -238 -444 -238q-106 0 -202 22t-188.5 75.5t-160 135t-109 210.5t-41.5 292q0 140 26 255.5t68 195t102 141t122 97t134 58t132 30.5t121 8q140 0 249.5 -32t174.5 -80.5t108.5 -116.5t61 -128.5t22.5 -128.5h-260q-5 37 -17 70.5
t-39 71t-64.5 64.5t-98.5 45t-137 18t-138.5 -19.5t-105.5 -52t-76 -79t-52.5 -95t-31.5 -105.5t-16 -106t-4 -101q0 -122 30 -218t76 -152.5t107.5 -93.5t117 -50.5t111.5 -13.5q43 0 87.5 8t98 33t94 65t69 110t30.5 161h-350v217zM774 1749l-205 -193h-245l274 287h352
l275 -287h-246z" />
    <glyph glyph-name="gcircumflex" unicode="&#x11d;" horiz-adv-x="1310" 
d="M938 1040h225v-993q0 -215 -138 -328.5t-388 -113.5q-411 0 -455 295h226q14 -65 84.5 -94t154.5 -29q73 0 125.5 19.5t80 46.5t43 68t19 71.5t3.5 68.5v80q-23 -41 -64 -71.5t-78 -44t-83 -21.5t-65.5 -9t-37.5 -1q-127 0 -224 44t-155 120.5t-86.5 172t-28.5 205.5
q0 117 29 212t77.5 158t114 105.5t135.5 61t146 18.5q52 0 103 -9t119 -43t114 -91h4v102zM358 524q0 -70 12 -127.5t30.5 -95t45.5 -66t52.5 -44t56 -25t52.5 -12t44 -2.5q55 0 104.5 23t90.5 67.5t65.5 118.5t24.5 169q0 103 -24 180t-65.5 120t-91 63t-106.5 20
q-137 0 -214 -102.5t-77 -286.5zM655 1346l-184 -183h-226l246 271h328l246 -271h-226z" />
    <glyph glyph-name="Gbreve" unicode="&#x11e;" horiz-adv-x="1548" 
d="M844 768h586v-768h-189v195h-4q-123 -238 -444 -238q-106 0 -202 22t-188.5 75.5t-160 135t-109 210.5t-41.5 292q0 140 26 255.5t68 195t102 141t122 97t134 58t132 30.5t121 8q140 0 249.5 -32t174.5 -80.5t108.5 -116.5t61 -128.5t22.5 -128.5h-260q-5 37 -17 70.5
t-39 71t-64.5 64.5t-98.5 45t-137 18t-138.5 -19.5t-105.5 -52t-76 -79t-52.5 -95t-31.5 -105.5t-16 -106t-4 -101q0 -122 30 -218t76 -152.5t107.5 -93.5t117 -50.5t111.5 -13.5q43 0 87.5 8t98 33t94 65t69 110t30.5 161h-350v217zM344 1870h211q7 -79 68 -122.5
t151 -43.5t151 43.5t68 122.5h211q-26 -139 -136.5 -226.5t-293.5 -87.5t-293.5 87.5t-136.5 226.5z" />
    <glyph glyph-name="gbreve" unicode="&#x11f;" horiz-adv-x="1310" 
d="M938 1040h225v-993q0 -215 -138 -328.5t-388 -113.5q-411 0 -455 295h226q14 -65 84.5 -94t154.5 -29q73 0 125.5 19.5t80 46.5t43 68t19 71.5t3.5 68.5v80q-23 -41 -64 -71.5t-78 -44t-83 -21.5t-65.5 -9t-37.5 -1q-127 0 -224 44t-155 120.5t-86.5 172t-28.5 205.5
q0 117 29 212t77.5 158t114 105.5t135.5 61t146 18.5q52 0 103 -9t119 -43t114 -91h4v102zM358 524q0 -70 12 -127.5t30.5 -95t45.5 -66t52.5 -44t56 -25t52.5 -12t44 -2.5q55 0 104.5 23t90.5 67.5t65.5 118.5t24.5 169q0 103 -24 180t-65.5 120t-91 63t-106.5 20
q-137 0 -214 -102.5t-77 -286.5zM252 1434h209q4 -70 59 -110t136 -40t135.5 40t58.5 110h209q-69 -293 -403 -293q-85 0 -153 20t-110.5 49.5t-73 71t-45 77.5t-22.5 75z" />
    <glyph glyph-name="Gcommaaccent" unicode="&#x122;" horiz-adv-x="1548" 
d="M844 768h586v-768h-189v195h-4q-123 -238 -444 -238q-106 0 -202 22t-188.5 75.5t-160 135t-109 210.5t-41.5 292q0 140 26 255.5t68 195t102 141t122 97t134 58t132 30.5t121 8q140 0 249.5 -32t174.5 -80.5t108.5 -116.5t61 -128.5t22.5 -128.5h-260q-5 37 -17 70.5
t-39 71t-64.5 64.5t-98.5 45t-137 18t-138.5 -19.5t-105.5 -52t-76 -79t-52.5 -95t-31.5 -105.5t-16 -106t-4 -101q0 -122 30 -218t76 -152.5t107.5 -93.5t117 -50.5t111.5 -13.5q43 0 87.5 8t98 33t94 65t69 110t30.5 161h-350v217zM639 -123h270v-203q0 -60 -23.5 -104.5
t-54.5 -67t-73 -36t-68.5 -16.5t-50.5 -3v131q56 -2 96.5 17.5t40.5 58.5v18h-137v205z" />
    <glyph glyph-name="gcommaaccent" unicode="&#x123;" horiz-adv-x="1310" 
d="M938 1040h225v-993q0 -215 -138 -328.5t-388 -113.5q-411 0 -455 295h226q14 -65 84.5 -94t154.5 -29q73 0 125.5 19.5t80 46.5t43 68t19 71.5t3.5 68.5v80q-23 -41 -64 -71.5t-78 -44t-83 -21.5t-65.5 -9t-37.5 -1q-127 0 -224 44t-155 120.5t-86.5 172t-28.5 205.5
q0 117 29 212t77.5 158t114 105.5t135.5 61t146 18.5q52 0 103 -9t119 -43t114 -91h4v102zM358 524q0 -70 12 -127.5t30.5 -95t45.5 -66t52.5 -44t56 -25t52.5 -12t44 -2.5q55 0 104.5 23t90.5 67.5t65.5 118.5t24.5 169q0 103 -24 180t-65.5 120t-91 63t-106.5 20
q-137 0 -214 -102.5t-77 -286.5zM758 1145h-271v203q0 60 23.5 104.5t55 67t73.5 36t68.5 16.5t50.5 3v-131q-56 2 -96.5 -17.5t-40.5 -58.5v-18h137v-205z" />
    <glyph glyph-name="Hcircumflex" unicode="&#x124;" horiz-adv-x="1511" 
d="M436 643v-643h-262v1434h262v-574h639v574h262v-1434h-262v643h-639zM756 1749l-205 -193h-246l275 287h352l274 -287h-245z" />
    <glyph glyph-name="hcircumflex" unicode="&#x125;" horiz-adv-x="1241" 
d="M147 1434h246v-531q51 86 147.5 132t194.5 46q73 0 131.5 -18t95 -44.5t63.5 -66t39.5 -72.5t20 -75t8.5 -63t1 -46v-696h-246v618q0 35 -0.5 56t-4.5 56.5t-11 57t-21.5 48t-34.5 41.5t-51.5 25.5t-71.5 10.5q-18 0 -36 -2.5t-45 -10.5t-50 -21.5t-47.5 -39t-42 -59
t-28.5 -85t-11 -113.5v-582h-246v1434zM594 1772l-184 -183h-226l246 271h328l246 -271h-226z" />
    <glyph glyph-name="Imacron" unicode="&#x12a;" horiz-adv-x="610" 
d="M174 1434h262v-1434h-262v1434zM-35 1556v164h676v-164h-338h-338z" />
    <glyph glyph-name="imacron" unicode="&#x12b;" horiz-adv-x="540" 
d="M147 1040h246v-1040h-246v1040zM-72 1233v168h676v-168h-338h-338z" />
    <glyph glyph-name="Iogonek" unicode="&#x12e;" horiz-adv-x="610" 
d="M174 1434h262v-1434q-50 -17 -92 -53q-78 -70 -78 -193q0 -55 28 -89t77 -34q50 0 76 35t24 82h164q-2 -23 -8.5 -47.5t-26.5 -61t-49.5 -64t-84 -47.5t-124.5 -20q-130 0 -195 71t-65 167q0 76 37 145.5t112 108.5h-57v1434z" />
    <glyph glyph-name="iogonek" unicode="&#x12f;" horiz-adv-x="532" 
d="M143 1040h246v-1040q-81 -26 -125.5 -91.5t-44.5 -154.5q0 -55 28 -89t77 -34q50 0 76 35t24 82h164q-2 -23 -8.5 -47.5t-26.5 -61t-49.5 -64t-84 -47.5t-124.5 -20q-130 0 -195 71t-65 167q0 67 26 134.5t82 119.5v1040zM143 1217v217h246v-217h-246z" />
    <glyph glyph-name="Idot" unicode="&#x130;" horiz-adv-x="610" 
d="M174 1434h262v-1434h-262v1434zM174 1581v180h262v-180h-262z" />
    <glyph glyph-name="dotlessi" unicode="&#x131;" horiz-adv-x="540" 
d="M147 1040h246v-1040h-246v1040z" />
    <glyph glyph-name="Jcircumflex" unicode="&#x134;" horiz-adv-x="1128" 
d="M47 498h262v-60q0 -70 15 -121t36 -77.5t52 -42.5t54.5 -19.5t51.5 -3.5q37 0 62.5 4.5t53.5 22t45 49t28.5 88.5t11.5 137v959h262v-926q0 -61 -2.5 -107t-13.5 -106.5t-29.5 -105t-53.5 -90.5t-83 -75.5t-120 -48t-163 -18.5q-111 0 -195.5 28t-135.5 72.5t-83 107
t-43.5 123.5t-11.5 130v80zM827 1749l-204 -193h-246l274 287h353l274 -287h-246z" />
    <glyph glyph-name="jcircumflex" unicode="&#x135;" horiz-adv-x="540" 
d="M147 1040h246v-1095q0 -61 -5 -104.5t-23 -89.5t-48.5 -74t-85.5 -46t-131 -18q-84 0 -139 8v168q102 2 144 38t42 132v1081zM270 1346l-184 -183h-225l245 271h328l246 -271h-225z" />
    <glyph glyph-name="Kcommaaccent" unicode="&#x136;" horiz-adv-x="1445" 
d="M436 788l627 646h352l-594 -594l633 -840h-352l-473 664l-193 -187v-477h-262v1434h262v-646zM588 -123h270v-203q0 -60 -23.5 -104.5t-54.5 -67t-73 -36t-68.5 -16.5t-50.5 -3v131q56 -2 96.5 17.5t40.5 58.5v18h-137v205z" />
    <glyph glyph-name="kcommaaccent" unicode="&#x137;" horiz-adv-x="1155" 
d="M393 584l434 456h291l-405 -405l450 -635h-286l-334 485l-150 -151v-334h-246v1434h246v-850zM442 -123h271v-203q0 -60 -23.5 -104.5t-55 -67t-73.5 -36t-68.5 -16.5t-50.5 -3v131q56 -2 97 17.5t41 58.5v18h-138v205z" />
    <glyph glyph-name="Lacute" unicode="&#x139;" horiz-adv-x="1122" 
d="M1135 217v-217h-961v1434h262v-1217h699zM555 1843h279l-242 -287h-197z" />
    <glyph glyph-name="lacute" unicode="&#x13a;" horiz-adv-x="540" 
d="M147 1434h246v-1434h-246v1434zM326 1811h266l-225 -271h-184z" />
    <glyph glyph-name="Lcommaaccent" unicode="&#x13b;" horiz-adv-x="1122" 
d="M1135 217v-217h-961v1434h262v-1217h699zM426 -123h270v-203q0 -60 -23.5 -104.5t-54.5 -67t-73 -36t-68.5 -16.5t-50.5 -3v131q56 -2 96.5 17.5t40.5 58.5v18h-137v205z" />
    <glyph glyph-name="lcommaaccent" unicode="&#x13c;" horiz-adv-x="540" 
d="M147 1434h246v-1434h-246v1434zM123 -123h270v-203q0 -60 -23.5 -104.5t-54.5 -67t-73 -36t-68.5 -16.5t-50.5 -3v131q56 -2 96.5 17.5t40.5 58.5v18h-137v205z" />
    <glyph glyph-name="Lcaron" unicode="&#x13d;" horiz-adv-x="1122" 
d="M1135 217v-217h-961v1434h262v-1217h699zM848 1434h270v-285q0 -83 -24 -145t-65 -96.5t-85.5 -52t-95.5 -21.5v141q61 5 99 48.5t38 111.5v22h-137v277z" />
    <glyph glyph-name="lcaron" unicode="&#x13e;" horiz-adv-x="788" 
d="M147 1434h246v-1434h-246v1434zM553 1434h270v-285q0 -83 -24 -145t-65 -96.5t-85.5 -52t-95.5 -21.5v141q61 5 99 48.5t38 111.5v22h-137v277z" />
    <glyph glyph-name="Lslash" unicode="&#x141;" horiz-adv-x="1105" 
d="M1118 217v-217h-960v272l-138 -137v225l138 138v936h262v-707l405 416v-225l-405 -416v-285h698z" />
    <glyph glyph-name="lslash" unicode="&#x142;" horiz-adv-x="655" 
d="M205 1434h246v-463l245 172v-189l-245 -172v-782h-246v639l-246 -168v188l246 168v607z" />
    <glyph glyph-name="Nacute" unicode="&#x143;" horiz-adv-x="1576" 
d="M436 1018v-1018h-262v1434h279l688 -1018v1018h262v-1434h-279zM782 1843h279l-242 -287h-196z" />
    <glyph glyph-name="nacute" unicode="&#x144;" horiz-adv-x="1241" 
d="M147 1040h246v-137q51 86 147.5 132t194.5 46q73 0 131.5 -18t95 -44.5t63.5 -66t39.5 -72.5t20 -75t8.5 -63t1 -46v-696h-246v618q0 35 -0.5 56t-4.5 56.5t-11 57t-21.5 48t-34.5 41.5t-51.5 25.5t-71.5 10.5q-18 0 -36 -2.5t-45 -10.5t-50 -21.5t-47.5 -39t-42 -59
t-28.5 -85t-11 -113.5v-582h-246v1040zM612 1434h266l-225 -271h-184z" />
    <glyph glyph-name="Ncommaaccent" unicode="&#x145;" horiz-adv-x="1576" 
d="M436 1018v-1018h-262v1434h279l688 -1018v1018h262v-1434h-279zM653 -123h271v-203q0 -60 -23.5 -104.5t-55 -67t-73.5 -36t-68.5 -16.5t-50.5 -3v131q56 -2 97 17.5t41 58.5v18h-138v205z" />
    <glyph glyph-name="ncommaaccent" unicode="&#x146;" horiz-adv-x="1241" 
d="M147 1040h246v-137q51 86 147.5 132t194.5 46q73 0 131.5 -18t95 -44.5t63.5 -66t39.5 -72.5t20 -75t8.5 -63t1 -46v-696h-246v618q0 35 -0.5 56t-4.5 56.5t-11 57t-21.5 48t-34.5 41.5t-51.5 25.5t-71.5 10.5q-18 0 -36 -2.5t-45 -10.5t-50 -21.5t-47.5 -39t-42 -59
t-28.5 -85t-11 -113.5v-582h-246v1040zM485 -123h271v-203q0 -60 -23.5 -104.5t-55 -67t-73.5 -36t-68.5 -16.5t-50.5 -3v131q56 -2 97 17.5t41 58.5v18h-138v205z" />
    <glyph glyph-name="Ncaron" unicode="&#x147;" horiz-adv-x="1576" 
d="M436 1018v-1018h-262v1434h279l688 -1018v1018h262v-1434h-279zM788 1651l205 192h246l-274 -287h-353l-274 287h246z" />
    <glyph glyph-name="ncaron" unicode="&#x148;" horiz-adv-x="1241" 
d="M147 1040h246v-137q51 86 147.5 132t194.5 46q73 0 131.5 -18t95 -44.5t63.5 -66t39.5 -72.5t20 -75t8.5 -63t1 -46v-696h-246v618q0 35 -0.5 56t-4.5 56.5t-11 57t-21.5 48t-34.5 41.5t-51.5 25.5t-71.5 10.5q-18 0 -36 -2.5t-45 -10.5t-50 -21.5t-47.5 -39t-42 -59
t-28.5 -85t-11 -113.5v-582h-246v1040zM621 1251l184 183h226l-246 -271h-328l-246 271h226z" />
    <glyph glyph-name="Omacron" unicode="&#x14c;" horiz-adv-x="1589" 
d="M795 1477q30 0 57.5 -1.5t81 -9t99.5 -21t105.5 -41t107.5 -64.5t96.5 -96t81 -131.5t53 -174t20.5 -221.5t-20.5 -221.5t-53 -174t-81 -131.5t-96.5 -96t-107.5 -64.5t-105.5 -41t-99.5 -21t-81 -9t-57.5 -1.5t-57.5 1.5t-81 9t-100 21t-105.5 41t-107.5 64.5t-96.5 96
t-81 131.5t-53.5 174t-20.5 221.5t20.5 221.5t53.5 174t81 131.5t96.5 96t107.5 64.5t105.5 41t100 21t81 9t57.5 1.5zM795 1260q-101 0 -178.5 -36t-122.5 -91t-73.5 -130.5t-38 -143.5t-9.5 -142t9.5 -142t38 -143.5t73.5 -130.5t122.5 -91t178.5 -36t178.5 36t122.5 91
t73.5 130.5t38 143.5t9.5 142t-9.5 142t-38 143.5t-73.5 130.5t-122.5 91t-178.5 36zM457 1556v164h676v-164h-338h-338z" />
    <glyph glyph-name="omacron" unicode="&#x14d;" horiz-adv-x="1249" 
d="M625 1081q126 0 224.5 -40t155.5 -99.5t94 -138.5t49.5 -147.5t12.5 -135.5t-12.5 -135.5t-49.5 -147.5t-94 -138.5t-155.5 -99.5t-224.5 -40q-91 0 -168.5 21t-131.5 55t-96.5 81.5t-68.5 98t-42.5 106.5t-23 104t-6.5 95q0 46 6.5 94t23 104t42.5 106.5t68.5 98
t96.5 82t131.5 55.5t168.5 21zM625 913q-33 0 -63 -6t-71 -30t-70 -64t-50 -116t-21 -177t21 -177t50 -116t70 -64t71 -30t63 -6q26 0 51 5t58.5 17.5t61 40.5t51.5 69.5t38 108.5t14 152t-14 152t-38 108.5t-51.5 69.5t-61 40.5t-58.5 17.5t-51 5zM287 1233v168h676v-168
h-338h-338z" />
    <glyph glyph-name="Obreve" unicode="&#x14e;" horiz-adv-x="1589" 
d="M795 1477q30 0 57.5 -1.5t81 -9t99.5 -21t105.5 -41t107.5 -64.5t96.5 -96t81 -131.5t53 -174t20.5 -221.5t-20.5 -221.5t-53 -174t-81 -131.5t-96.5 -96t-107.5 -64.5t-105.5 -41t-99.5 -21t-81 -9t-57.5 -1.5t-57.5 1.5t-81 9t-100 21t-105.5 41t-107.5 64.5t-96.5 96
t-81 131.5t-53.5 174t-20.5 221.5t20.5 221.5t53.5 174t81 131.5t96.5 96t107.5 64.5t105.5 41t100 21t81 9t57.5 1.5zM795 1260q-101 0 -178.5 -36t-122.5 -91t-73.5 -130.5t-38 -143.5t-9.5 -142t9.5 -142t38 -143.5t73.5 -130.5t122.5 -91t178.5 -36t178.5 36t122.5 91
t73.5 130.5t38 143.5t9.5 142t-9.5 142t-38 143.5t-73.5 130.5t-122.5 91t-178.5 36zM365 1870h210q7 -79 68.5 -122.5t151.5 -43.5t151 43.5t68 122.5h211q-26 -139 -136.5 -226.5t-293.5 -87.5t-293.5 87.5t-136.5 226.5z" />
    <glyph glyph-name="obreve" unicode="&#x14f;" horiz-adv-x="1249" 
d="M625 1081q126 0 224.5 -40t155.5 -99.5t94 -138.5t49.5 -147.5t12.5 -135.5t-12.5 -135.5t-49.5 -147.5t-94 -138.5t-155.5 -99.5t-224.5 -40q-91 0 -168.5 21t-131.5 55t-96.5 81.5t-68.5 98t-42.5 106.5t-23 104t-6.5 95q0 46 6.5 94t23 104t42.5 106.5t68.5 98
t96.5 82t131.5 55.5t168.5 21zM625 913q-33 0 -63 -6t-71 -30t-70 -64t-50 -116t-21 -177t21 -177t50 -116t70 -64t71 -30t63 -6q26 0 51 5t58.5 17.5t61 40.5t51.5 69.5t38 108.5t14 152t-14 152t-38 108.5t-51.5 69.5t-61 40.5t-58.5 17.5t-51 5zM221 1434h209
q4 -70 59 -110t136 -40t135.5 40t58.5 110h209q-69 -293 -403 -293q-85 0 -153 20t-110.5 49.5t-73 71t-45 77.5t-22.5 75z" />
    <glyph glyph-name="Ohungarumlaut" unicode="&#x150;" horiz-adv-x="1589" 
d="M795 1477q30 0 57.5 -1.5t81 -9t99.5 -21t105.5 -41t107.5 -64.5t96.5 -96t81 -131.5t53 -174t20.5 -221.5t-20.5 -221.5t-53 -174t-81 -131.5t-96.5 -96t-107.5 -64.5t-105.5 -41t-99.5 -21t-81 -9t-57.5 -1.5t-57.5 1.5t-81 9t-100 21t-105.5 41t-107.5 64.5t-96.5 96
t-81 131.5t-53.5 174t-20.5 221.5t20.5 221.5t53.5 174t81 131.5t96.5 96t107.5 64.5t105.5 41t100 21t81 9t57.5 1.5zM795 1260q-101 0 -178.5 -36t-122.5 -91t-73.5 -130.5t-38 -143.5t-9.5 -142t9.5 -142t38 -143.5t73.5 -130.5t122.5 -91t178.5 -36t178.5 36t122.5 91
t73.5 130.5t38 143.5t9.5 142t-9.5 142t-38 143.5t-73.5 130.5t-122.5 91t-178.5 36zM666 1843h266l-242 -287h-184zM1018 1843h266l-242 -287h-184z" />
    <glyph glyph-name="ohungarumlaut" unicode="&#x151;" horiz-adv-x="1249" 
d="M625 1081q126 0 224.5 -40t155.5 -99.5t94 -138.5t49.5 -147.5t12.5 -135.5t-12.5 -135.5t-49.5 -147.5t-94 -138.5t-155.5 -99.5t-224.5 -40q-91 0 -168.5 21t-131.5 55t-96.5 81.5t-68.5 98t-42.5 106.5t-23 104t-6.5 95q0 46 6.5 94t23 104t42.5 106.5t68.5 98
t96.5 82t131.5 55.5t168.5 21zM625 913q-33 0 -63 -6t-71 -30t-70 -64t-50 -116t-21 -177t21 -177t50 -116t70 -64t71 -30t63 -6q26 0 51 5t58.5 17.5t61 40.5t51.5 69.5t38 108.5t14 152t-14 152t-38 108.5t-51.5 69.5t-61 40.5t-58.5 17.5t-51 5zM455 1434h246l-226 -271
h-164zM803 1434h246l-226 -271h-163z" />
    <glyph glyph-name="OE" unicode="&#x152;" horiz-adv-x="2349" 
d="M1217 1434h1075v-217h-813v-373h729v-217h-729v-410h835v-217h-1097v139q-145 -182 -422 -182q-29 0 -57.5 1.5t-81.5 9.5t-99.5 21.5t-105.5 41t-107.5 64.5t-96.5 96t-81 131t-53.5 174t-20.5 221t20.5 221t53.5 174t81 131t96.5 96t107.5 64.5t105.5 41t99.5 21.5
t81.5 9.5t57.5 1.5q276 0 422 -183v140zM795 174q101 0 178.5 36t122.5 91t73.5 130.5t38 143.5t9.5 142t-9.5 142t-38 143.5t-73.5 130.5t-122.5 91t-178.5 36t-178.5 -36t-122.5 -91t-73.5 -130.5t-38 -143.5t-9.5 -142t9.5 -142t38 -143.5t73.5 -130.5t122.5 -91
t178.5 -36z" />
    <glyph glyph-name="oe" unicode="&#x153;" horiz-adv-x="2011" 
d="M1673 301h234q-9 -47 -25.5 -88t-53.5 -90t-88.5 -83.5t-136.5 -57.5t-192 -23q-154 0 -251 46.5t-144 105.5q-145 -152 -391 -152q-91 0 -168.5 21t-131.5 55t-96.5 81.5t-68.5 98t-42.5 106.5t-23 104t-6.5 95q0 46 6.5 94t23 104t42.5 106.5t68.5 98t96.5 82
t131.5 55.5t168.5 21q247 0 391 -151q151 151 397 151q249 0 379.5 -148t130.5 -417v-59h-778q0 -43 8.5 -86t29.5 -87.5t52.5 -78.5t82.5 -56t114 -22q89 0 159.5 46t81.5 128zM350 520q0 -101 21 -177t50 -116t70 -64t71 -30t63 -6q26 0 51 5t58.5 17.5t61 40.5t51.5 69.5
t38 108.5t14 152t-14 152t-38 108.5t-51.5 69.5t-61 40.5t-58.5 17.5t-51 5q-33 0 -63 -6t-71 -30t-70 -64t-50 -116t-21 -177zM1145 625h518q0 33 -5 66.5t-21.5 75t-42 72.5t-72 52.5t-107.5 21.5q-68 0 -122.5 -26t-86.5 -68t-47.5 -92t-13.5 -102z" />
    <glyph glyph-name="Racute" unicode="&#x154;" horiz-adv-x="1449" 
d="M174 0v1434h641q46 0 84.5 -2t94 -11.5t99 -25t90.5 -46t78.5 -71.5t51.5 -103.5t20 -140.5q0 -76 -20.5 -138.5t-56 -103.5t-76 -67t-86.5 -39v-4q42 -14 75.5 -35.5t55.5 -44.5t37.5 -54.5t23.5 -58t12.5 -62.5t5.5 -60t1 -58q0 -157 8 -211t45 -98h-271
q-31 45 -38 98.5t-7 200.5q0 34 -1.5 56.5t-7.5 54t-18 51.5t-34 42.5t-53.5 35.5t-79.5 21.5t-109 8.5h-303v-569h-262zM436 1217v-431h328q47 0 83 3.5t79 16.5t71 35t47 63t19 97q0 50 -13.5 88t-39.5 60.5t-53 37t-64.5 20.5t-63 8t-59.5 2h-334zM719 1843h278
l-241 -287h-197z" />
    <glyph glyph-name="racute" unicode="&#x155;" horiz-adv-x="823" 
d="M795 1061v-160q-94 2 -165.5 -18t-113.5 -51.5t-69.5 -77.5t-38 -89t-13.5 -94q-2 -18 -2 -53v-53v-465h-246v1040h246v-190h4q26 62 69 106t94.5 65.5t98 30.5t95.5 9h41zM403 1434h266l-225 -271h-184z" />
    <glyph glyph-name="Rcommaaccent" unicode="&#x156;" horiz-adv-x="1449" 
d="M174 0v1434h641q46 0 84.5 -2t94 -11.5t99 -25t90.5 -46t78.5 -71.5t51.5 -103.5t20 -140.5q0 -76 -20.5 -138.5t-56 -103.5t-76 -67t-86.5 -39v-4q42 -14 75.5 -35.5t55.5 -44.5t37.5 -54.5t23.5 -58t12.5 -62.5t5.5 -60t1 -58q0 -157 8 -211t45 -98h-271
q-31 45 -38 98.5t-7 200.5q0 34 -1.5 56.5t-7.5 54t-18 51.5t-34 42.5t-53.5 35.5t-79.5 21.5t-109 8.5h-303v-569h-262zM436 1217v-431h328q47 0 83 3.5t79 16.5t71 35t47 63t19 97q0 50 -13.5 88t-39.5 60.5t-53 37t-64.5 20.5t-63 8t-59.5 2h-334zM590 -123h270v-203
q0 -60 -23.5 -104.5t-54.5 -67t-73 -36t-68.5 -16.5t-50.5 -3v131q56 -2 96.5 17.5t40.5 58.5v18h-137v205z" />
    <glyph glyph-name="rcommaaccent" unicode="&#x157;" horiz-adv-x="823" 
d="M795 1061v-160q-94 2 -165.5 -18t-113.5 -51.5t-69.5 -77.5t-38 -89t-13.5 -94q-2 -18 -2 -53v-53v-465h-246v1040h246v-190h4q26 62 69 106t94.5 65.5t98 30.5t95.5 9h41zM143 -123h271v-203q0 -60 -23.5 -104.5t-55 -67t-73.5 -36t-68.5 -16.5t-50.5 -3v131
q56 -2 97 17.5t41 58.5v18h-138v205z" />
    <glyph glyph-name="Rcaron" unicode="&#x158;" horiz-adv-x="1449" 
d="M174 0v1434h641q46 0 84.5 -2t94 -11.5t99 -25t90.5 -46t78.5 -71.5t51.5 -103.5t20 -140.5q0 -76 -20.5 -138.5t-56 -103.5t-76 -67t-86.5 -39v-4q42 -14 75.5 -35.5t55.5 -44.5t37.5 -54.5t23.5 -58t12.5 -62.5t5.5 -60t1 -58q0 -157 8 -211t45 -98h-271
q-31 45 -38 98.5t-7 200.5q0 34 -1.5 56.5t-7.5 54t-18 51.5t-34 42.5t-53.5 35.5t-79.5 21.5t-109 8.5h-303v-569h-262zM436 1217v-431h328q47 0 83 3.5t79 16.5t71 35t47 63t19 97q0 50 -13.5 88t-39.5 60.5t-53 37t-64.5 20.5t-63 8t-59.5 2h-334zM725 1651l205 192h246
l-275 -287h-352l-275 287h246z" />
    <glyph glyph-name="rcaron" unicode="&#x159;" horiz-adv-x="823" 
d="M795 1061v-160q-94 2 -165.5 -18t-113.5 -51.5t-69.5 -77.5t-38 -89t-13.5 -94q-2 -18 -2 -53v-53v-465h-246v1040h246v-190h4q26 62 69 106t94.5 65.5t98 30.5t95.5 9h41zM346 1251l184 183h226l-246 -271h-328l-246 271h226z" />
    <glyph glyph-name="Sacute" unicode="&#x15a;" horiz-adv-x="1400" 
d="M92 461h260q2 -37 12 -72t36 -75.5t65 -70t106.5 -49.5t153.5 -20q303 0 303 215q0 49 -19.5 87.5t-44.5 60t-65.5 38t-66 22.5t-62.5 13q-98 17 -168 35q-57 13 -98.5 24.5t-91 30t-83.5 39t-69 52t-55.5 68.5t-33.5 88t-13 112q0 83 26 150.5t64.5 110t95 74t106 47
t109.5 24.5t93 10.5t69 1.5q136 0 242.5 -34.5t171.5 -94.5t100 -133.5t41 -159.5h-260q-28 205 -301 205q-15 0 -28 -0.5t-43.5 -4.5t-54.5 -10.5t-53.5 -20.5t-49.5 -33.5t-34 -51t-14 -70.5q0 -24 6 -45t15.5 -37t27 -30t32.5 -24t41 -19.5t44.5 -15.5t50 -12.5t50.5 -10
t53 -9.5q78 -14 135.5 -27t118.5 -32.5t103 -42.5t81 -56.5t62.5 -74.5t37 -95.5t13.5 -121.5q0 -459 -600 -459q-102 0 -187.5 16t-147.5 44t-111 67.5t-80 83t-51.5 94.5t-29.5 99.5t-10 99.5zM694 1843h279l-242 -287h-196z" />
    <glyph glyph-name="sacute" unicode="&#x15b;" horiz-adv-x="1105" 
d="M74 317h245q0 -50 22 -88t58.5 -59.5t78 -32t85.5 -10.5q38 0 71.5 7t67 24t53 52t19.5 85q0 66 -42.5 97t-149.5 50l-113 19q-178 31 -259 99t-81 208q0 78 32 137.5t78 91.5t108.5 52t113 26t102.5 6q432 0 443 -317h-232q-6 70 -59.5 109.5t-143.5 39.5
q-188 0 -188 -129q0 -35 15.5 -62t32 -41.5t58 -27.5t63 -17.5t76.5 -13.5q5 -1 8 -1.5t7 -1t8 -1.5q134 -24 179 -38q160 -52 193 -188q9 -39 9 -83q0 -74 -25.5 -133.5t-68.5 -99.5t-103 -66.5t-125.5 -38.5t-138.5 -12q-112 0 -199.5 22.5t-141 58t-89 84.5t-50 95.5
t-17.5 97.5zM545 1434h266l-225 -271h-184z" />
    <glyph glyph-name="Scircumflex" unicode="&#x15c;" horiz-adv-x="1400" 
d="M92 461h260q2 -37 12 -72t36 -75.5t65 -70t106.5 -49.5t153.5 -20q303 0 303 215q0 49 -19.5 87.5t-44.5 60t-65.5 38t-66 22.5t-62.5 13q-98 17 -168 35q-57 13 -98.5 24.5t-91 30t-83.5 39t-69 52t-55.5 68.5t-33.5 88t-13 112q0 83 26 150.5t64.5 110t95 74t106 47
t109.5 24.5t93 10.5t69 1.5q136 0 242.5 -34.5t171.5 -94.5t100 -133.5t41 -159.5h-260q-28 205 -301 205q-15 0 -28 -0.5t-43.5 -4.5t-54.5 -10.5t-53.5 -20.5t-49.5 -33.5t-34 -51t-14 -70.5q0 -24 6 -45t15.5 -37t27 -30t32.5 -24t41 -19.5t44.5 -15.5t50 -12.5t50.5 -10
t53 -9.5q78 -14 135.5 -27t118.5 -32.5t103 -42.5t81 -56.5t62.5 -74.5t37 -95.5t13.5 -121.5q0 -459 -600 -459q-102 0 -187.5 16t-147.5 44t-111 67.5t-80 83t-51.5 94.5t-29.5 99.5t-10 99.5zM700 1749l-204 -193h-246l274 287h353l274 -287h-246z" />
    <glyph glyph-name="scircumflex" unicode="&#x15d;" horiz-adv-x="1105" 
d="M74 317h245q0 -50 22 -88t58.5 -59.5t78 -32t85.5 -10.5q38 0 71.5 7t67 24t53 52t19.5 85q0 66 -42.5 97t-149.5 50l-113 19q-178 31 -259 99t-81 208q0 78 32 137.5t78 91.5t108.5 52t113 26t102.5 6q432 0 443 -317h-232q-6 70 -59.5 109.5t-143.5 39.5
q-188 0 -188 -129q0 -35 15.5 -62t32 -41.5t58 -27.5t63 -17.5t76.5 -13.5q5 -1 8 -1.5t7 -1t8 -1.5q134 -24 179 -38q160 -52 193 -188q9 -39 9 -83q0 -74 -25.5 -133.5t-68.5 -99.5t-103 -66.5t-125.5 -38.5t-138.5 -12q-112 0 -199.5 22.5t-141 58t-89 84.5t-50 95.5
t-17.5 97.5zM553 1346l-184 -183h-226l246 271h328l246 -271h-226z" />
    <glyph glyph-name="Scedilla" unicode="&#x15e;" horiz-adv-x="1400" 
d="M92 461h260q2 -37 12 -72t36 -75.5t65 -70t106.5 -49.5t153.5 -20q303 0 303 215q0 49 -19.5 87.5t-44.5 60t-65.5 38t-66 22.5t-62.5 13q-98 17 -168 35q-57 13 -98.5 24.5t-91 30t-83.5 39t-69 52t-55.5 68.5t-33.5 88t-13 112q0 83 26 150.5t64.5 110t95 74t106 47
t109.5 24.5t93 10.5t69 1.5q136 0 242.5 -34.5t171.5 -94.5t100 -133.5t41 -159.5h-260q-28 205 -301 205q-15 0 -28 -0.5t-43.5 -4.5t-54.5 -10.5t-53.5 -20.5t-49.5 -33.5t-34 -51t-14 -70.5q0 -24 6 -45t15.5 -37t27 -30t32.5 -24t41 -19.5t44.5 -15.5t50 -12.5t50.5 -10
t53 -9.5q78 -14 135.5 -27t118.5 -32.5t103 -42.5t81 -56.5t62.5 -74.5t37 -95.5t13.5 -121.5q0 -459 -600 -459q-102 0 -187.5 16t-147.5 44t-111 67.5t-80 83t-51.5 94.5t-29.5 99.5t-10 99.5zM469 -475l39 125q61 -19 119 -19q34 0 58 7.5t34 19.5t13.5 22t3.5 21
q0 20 -10 32.5t-30 17.5t-33 6t-34 1h-88l37 123h94q248 0 248 -184q0 -99 -79 -144t-210 -45q-75 0 -162 17z" />
    <glyph glyph-name="scedilla" unicode="&#x15f;" horiz-adv-x="1105" 
d="M74 317h245q0 -50 22 -88t58.5 -59.5t78 -32t85.5 -10.5q38 0 71.5 7t67 24t53 52t19.5 85q0 66 -42.5 97t-149.5 50l-113 19q-178 31 -259 99t-81 208q0 78 32 137.5t78 91.5t108.5 52t113 26t102.5 6q432 0 443 -317h-232q-6 70 -59.5 109.5t-143.5 39.5
q-188 0 -188 -129q0 -35 15.5 -62t32 -41.5t58 -27.5t63 -17.5t76.5 -13.5q5 -1 8 -1.5t7 -1t8 -1.5q134 -24 179 -38q160 -52 193 -188q9 -39 9 -83q0 -74 -25.5 -133.5t-68.5 -99.5t-103 -66.5t-125.5 -38.5t-138.5 -12q-112 0 -199.5 22.5t-141 58t-89 84.5t-50 95.5
t-17.5 97.5zM315 -475l39 125q61 -19 119 -19q34 0 58 7.5t34 19.5t13.5 22t3.5 21q0 20 -10 32.5t-30 17.5t-33 6t-34 1h-88l37 123h94q248 0 248 -184q0 -99 -79 -144t-210 -45q-75 0 -162 17z" />
    <glyph glyph-name="Scaron" unicode="&#x160;" horiz-adv-x="1400" 
d="M92 461h260q2 -37 12 -72t36 -75.5t65 -70t106.5 -49.5t153.5 -20q303 0 303 215q0 49 -19.5 87.5t-44.5 60t-65.5 38t-66 22.5t-62.5 13q-98 17 -168 35q-57 13 -98.5 24.5t-91 30t-83.5 39t-69 52t-55.5 68.5t-33.5 88t-13 112q0 83 26 150.5t64.5 110t95 74t106 47
t109.5 24.5t93 10.5t69 1.5q136 0 242.5 -34.5t171.5 -94.5t100 -133.5t41 -159.5h-260q-28 205 -301 205q-15 0 -28 -0.5t-43.5 -4.5t-54.5 -10.5t-53.5 -20.5t-49.5 -33.5t-34 -51t-14 -70.5q0 -24 6 -45t15.5 -37t27 -30t32.5 -24t41 -19.5t44.5 -15.5t50 -12.5t50.5 -10
t53 -9.5q78 -14 135.5 -27t118.5 -32.5t103 -42.5t81 -56.5t62.5 -74.5t37 -95.5t13.5 -121.5q0 -459 -600 -459q-102 0 -187.5 16t-147.5 44t-111 67.5t-80 83t-51.5 94.5t-29.5 99.5t-10 99.5zM700 1651l205 192h246l-274 -287h-353l-274 287h246z" />
    <glyph glyph-name="scaron" unicode="&#x161;" horiz-adv-x="1105" 
d="M74 317h245q0 -50 22 -88t58.5 -59.5t78 -32t85.5 -10.5q38 0 71.5 7t67 24t53 52t19.5 85q0 66 -42.5 97t-149.5 50l-113 19q-178 31 -259 99t-81 208q0 78 32 137.5t78 91.5t108.5 52t113 26t102.5 6q432 0 443 -317h-232q-6 70 -59.5 109.5t-143.5 39.5
q-188 0 -188 -129q0 -35 15.5 -62t32 -41.5t58 -27.5t63 -17.5t76.5 -13.5q5 -1 8 -1.5t7 -1t8 -1.5q134 -24 179 -38q160 -52 193 -188q9 -39 9 -83q0 -74 -25.5 -133.5t-68.5 -99.5t-103 -66.5t-125.5 -38.5t-138.5 -12q-112 0 -199.5 22.5t-141 58t-89 84.5t-50 95.5
t-17.5 97.5zM553 1251l184 183h226l-246 -271h-328l-246 271h226z" />
    <glyph glyph-name="Tcedilla" unicode="&#x162;" horiz-adv-x="1216" 
d="M477 1217h-450v217h1163v-217h-451v-1217h-262v1217zM383 -475l39 125q61 -19 119 -19q108 0 108 70q0 20 -10 32.5t-29.5 17.5t-32.5 6t-34 1h-88l37 123h94q248 0 248 -184q0 -99 -79 -144t-210 -45q-75 0 -162 17z" />
    <glyph glyph-name="tcedilla" unicode="&#x163;" horiz-adv-x="700" 
d="M29 1040h168v312h245v-312h217v-168h-217v-587q0 -28 1 -42t7 -34t18 -29t36 -16.5t59 -7.5q55 0 96 12v-168q-95 -25 -200 -25q-53 0 -95 9t-69 22.5t-46.5 35t-29 40t-15 44t-6.5 41t-1 36.5v669h-168v168zM184 -475l39 125q61 -19 119 -19q34 0 58 7.5t34 19.5
t13.5 22t3.5 21q0 20 -10 32.5t-30 17.5t-33 6t-34 1h-88l37 123h94q248 0 248 -184q0 -99 -79 -144t-210 -45q-75 0 -162 17z" />
    <glyph glyph-name="Tcaron" unicode="&#x164;" horiz-adv-x="1216" 
d="M477 1217h-450v217h1163v-217h-451v-1217h-262v1217zM608 1651l205 192h246l-275 -287h-352l-274 287h245z" />
    <glyph glyph-name="tcaron" unicode="&#x165;" horiz-adv-x="1038" 
d="M29 1040h168v312h245v-312h217v-168h-217v-587q0 -28 1 -42t7 -34t18 -29t36 -16.5t59 -7.5q55 0 96 12v-168q-95 -25 -200 -25q-53 0 -95 9t-69 22.5t-46.5 35t-29 40t-15 44t-6.5 41t-1 36.5v669h-168v168zM803 1434h270v-285q0 -83 -24 -145t-65 -96.5t-85.5 -52
t-95.5 -21.5v141q61 5 99 48.5t38 111.5v22h-137v277z" />
    <glyph glyph-name="Utilde" unicode="&#x168;" horiz-adv-x="1478" 
d="M147 1434h263v-842q0 -220 74 -319t255 -99t255.5 99t74.5 319v842h262v-883q0 -59 -3.5 -106.5t-17.5 -111.5t-38 -113.5t-69 -101t-105.5 -85t-152.5 -55t-206 -21.5t-206 21.5t-152.5 55t-105.5 85t-69 101t-38 113.5t-17.5 111.5t-3.5 106.5v883zM1008 1802h163
q-52 -237 -264 -237q-44 0 -79.5 10t-94.5 35q-2 1 -16 7t-16.5 7l-15 6t-16.5 6t-15 5t-16 5t-14.5 3.5t-16.5 3t-15.5 1.5t-16.5 1q-42 0 -71 -19.5t-33 -54.5h-164q6 45 24 85.5t49 75.5t80 56t111 21q48 0 83 -8.5t91 -32.5q20 -8 45 -19t38 -16t33 -9.5t42 -4.5
q47 0 73.5 20.5t31.5 52.5z" />
    <glyph glyph-name="utilde" unicode="&#x169;" horiz-adv-x="1241" 
d="M1094 0h-246v137h-4q-48 -88 -143.5 -133t-202.5 -45q-71 0 -127.5 17.5t-92.5 44t-62.5 65.5t-39 72.5t-20 75t-8.5 63.5t-1 47v696h246v-618q0 -38 1.5 -64t7 -64.5t18.5 -64.5t33.5 -51t55 -38t79.5 -13q53 0 95.5 16.5t69 40.5t46 59t28.5 64t14.5 65t6 52.5
t0.5 34.5v581h246v-1040zM862 1434h152q-17 -97 -85.5 -153t-156.5 -56q-70 0 -158 45q-3 2 -17.5 8.5t-18.5 8.5t-16.5 7.5t-18 7t-16 5t-18 5t-17.5 2.5t-19 1q-80 0 -94 -74h-152q13 87 78.5 148t163.5 61q74 0 158 -41q14 -7 37.5 -18.5t34.5 -16.5t30 -9.5t39 -4.5
q80 0 94 74z" />
    <glyph glyph-name="Umacron" unicode="&#x16a;" horiz-adv-x="1478" 
d="M147 1434h263v-842q0 -220 74 -319t255 -99t255.5 99t74.5 319v842h262v-883q0 -59 -3.5 -106.5t-17.5 -111.5t-38 -113.5t-69 -101t-105.5 -85t-152.5 -55t-206 -21.5t-206 21.5t-152.5 55t-105.5 85t-69 101t-38 113.5t-17.5 111.5t-3.5 106.5v883zM401 1556v164h676
v-164h-338h-338z" />
    <glyph glyph-name="umacron" unicode="&#x16b;" horiz-adv-x="1241" 
d="M1094 0h-246v137h-4q-48 -88 -143.5 -133t-202.5 -45q-71 0 -127.5 17.5t-92.5 44t-62.5 65.5t-39 72.5t-20 75t-8.5 63.5t-1 47v696h246v-618q0 -38 1.5 -64t7 -64.5t18.5 -64.5t33.5 -51t55 -38t79.5 -13q53 0 95.5 16.5t69 40.5t46 59t28.5 64t14.5 65t6 52.5
t0.5 34.5v581h246v-1040zM283 1233v168h675v-168h-337h-338z" />
    <glyph glyph-name="Ubreve" unicode="&#x16c;" horiz-adv-x="1478" 
d="M147 1434h263v-842q0 -220 74 -319t255 -99t255.5 99t74.5 319v842h262v-883q0 -59 -3.5 -106.5t-17.5 -111.5t-38 -113.5t-69 -101t-105.5 -85t-152.5 -55t-206 -21.5t-206 21.5t-152.5 55t-105.5 85t-69 101t-38 113.5t-17.5 111.5t-3.5 106.5v883zM309 1870h211
q7 -79 68 -122.5t151 -43.5t151 43.5t68 122.5h211q-26 -139 -136.5 -226.5t-293.5 -87.5t-293.5 87.5t-136.5 226.5z" />
    <glyph glyph-name="ubreve" unicode="&#x16d;" horiz-adv-x="1241" 
d="M1094 0h-246v137h-4q-48 -88 -143.5 -133t-202.5 -45q-71 0 -127.5 17.5t-92.5 44t-62.5 65.5t-39 72.5t-20 75t-8.5 63.5t-1 47v696h246v-618q0 -38 1.5 -64t7 -64.5t18.5 -64.5t33.5 -51t55 -38t79.5 -13q53 0 95.5 16.5t69 40.5t46 59t28.5 64t14.5 65t6 52.5
t0.5 34.5v581h246v-1040zM217 1434h209q4 -70 59 -110t136 -40t135.5 40t58.5 110h209q-69 -293 -403 -293q-85 0 -153 20t-110.5 49.5t-73 71t-45 77.5t-22.5 75z" />
    <glyph glyph-name="Uring" unicode="&#x16e;" horiz-adv-x="1478" 
d="M147 1434h263v-842q0 -220 74 -319t255 -99t255.5 99t74.5 319v842h262v-883q0 -59 -3.5 -106.5t-17.5 -111.5t-38 -113.5t-69 -101t-105.5 -85t-152.5 -55t-206 -21.5t-206 21.5t-152.5 55t-105.5 85t-69 101t-38 113.5t-17.5 111.5t-3.5 106.5v883zM535 1679
q0 86 58.5 145.5t145.5 59.5q85 0 145 -60t60 -145q0 -87 -59.5 -145.5t-145.5 -58.5q-88 0 -146 58t-58 146zM649 1679q0 -37 26.5 -63.5t63.5 -26.5t63.5 26.5t26.5 63.5t-26.5 63.5t-63.5 26.5t-63.5 -26.5t-26.5 -63.5z" />
    <glyph glyph-name="uring" unicode="&#x16f;" horiz-adv-x="1241" 
d="M1094 0h-246v137h-4q-48 -88 -143.5 -133t-202.5 -45q-71 0 -127.5 17.5t-92.5 44t-62.5 65.5t-39 72.5t-20 75t-8.5 63.5t-1 47v696h246v-618q0 -38 1.5 -64t7 -64.5t18.5 -64.5t33.5 -51t55 -38t79.5 -13q53 0 95.5 16.5t69 40.5t46 59t28.5 64t14.5 65t6 52.5
t0.5 34.5v581h246v-1040zM428 1298q0 78 57.5 135.5t135.5 57.5t135 -57.5t57 -135.5t-57 -135t-135 -57t-135.5 57t-57.5 135zM531 1298q0 -37 26.5 -63.5t63.5 -26.5t63.5 26.5t26.5 63.5t-26.5 64t-63.5 27t-63.5 -27t-26.5 -64z" />
    <glyph glyph-name="Uhungarumlaut" unicode="&#x170;" horiz-adv-x="1478" 
d="M147 1434h263v-842q0 -220 74 -319t255 -99t255.5 99t74.5 319v842h262v-883q0 -59 -3.5 -106.5t-17.5 -111.5t-38 -113.5t-69 -101t-105.5 -85t-152.5 -55t-206 -21.5t-206 21.5t-152.5 55t-105.5 85t-69 101t-38 113.5t-17.5 111.5t-3.5 106.5v883zM645 1843h266
l-241 -287h-185zM997 1843h267l-242 -287h-184z" />
    <glyph glyph-name="uhungarumlaut" unicode="&#x171;" horiz-adv-x="1241" 
d="M1094 0h-246v137h-4q-48 -88 -143.5 -133t-202.5 -45q-71 0 -127.5 17.5t-92.5 44t-62.5 65.5t-39 72.5t-20 75t-8.5 63.5t-1 47v696h246v-618q0 -38 1.5 -64t7 -64.5t18.5 -64.5t33.5 -51t55 -38t79.5 -13q53 0 95.5 16.5t69 40.5t46 59t28.5 64t14.5 65t6 52.5
t0.5 34.5v581h246v-1040zM441 1434h246l-226 -271h-164zM789 1434h246l-226 -271h-163z" />
    <glyph glyph-name="Uogonek" unicode="&#x172;" horiz-adv-x="1478" 
d="M147 1434h263v-842q0 -220 74 -319t255 -99t255.5 99t74.5 319v842h262v-883q0 -583 -530 -592q-53 -43 -72.5 -100.5t-19.5 -104.5q0 -55 27.5 -89t76.5 -34q50 0 76 35t24 82h164q-2 -23 -8.5 -47.5t-26.5 -61t-49.5 -64t-84 -47.5t-124.5 -20q-130 0 -195 71t-65 167
q0 63 25.5 123t71.5 94q-91 8 -165 35.5t-122.5 64t-84.5 88t-55 99t-30 106.5t-14 102t-3 93v883z" />
    <glyph glyph-name="uogonek" unicode="&#x173;" horiz-adv-x="1241" 
d="M147 1040h246v-618q0 -38 1.5 -64t7 -64.5t18.5 -64.5t33.5 -51t55 -38t79.5 -13q53 0 95.5 16.5t69 40.5t46 59t28.5 64t14.5 65t6 52.5t0.5 34.5v581h246v-1040h-21q-81 -26 -125.5 -91.5t-44.5 -154.5q0 -55 28 -89t77 -34q50 0 76 35t24 82h164q-2 -23 -8.5 -47.5
t-26.5 -61t-49.5 -64t-84 -47.5t-124.5 -20q-130 0 -195 71t-65 167q0 76 32 144t97 110v137h-4q-48 -88 -143.5 -133t-202.5 -45q-71 0 -127.5 17.5t-92.5 44t-62.5 65.5t-39 72.5t-20 75t-8.5 63.5t-1 47v696z" />
    <glyph glyph-name="Ydieresis" unicode="&#x178;" horiz-adv-x="1298" 
d="M649 805l348 629h310l-527 -863v-571h-262v571l-526 863h309zM274 1581v180h263v-180h-263zM762 1581v180h262v-180h-262z" />
    <glyph glyph-name="Zacute" unicode="&#x179;" horiz-adv-x="1255" 
d="M92 1434h1065v-201l-774 -1016h819v-217h-1149v233l774 984h-735v217zM621 1843h278l-242 -287h-196z" />
    <glyph glyph-name="zacute" unicode="&#x17a;" horiz-adv-x="1003" 
d="M94 1040h821v-168l-575 -704h610v-168h-897v168l576 704h-535v168zM494 1434h266l-225 -271h-184z" />
    <glyph glyph-name="Zdotaccent" unicode="&#x17b;" horiz-adv-x="1255" 
d="M92 1434h1065v-201l-774 -1016h819v-217h-1149v233l774 984h-735v217zM496 1581v180h262v-180h-262z" />
    <glyph glyph-name="zdotaccent" unicode="&#x17c;" horiz-adv-x="1003" 
d="M94 1040h821v-168l-575 -704h610v-168h-897v168l576 704h-535v168zM378 1217v217h246v-217h-246z" />
    <glyph glyph-name="uni018F" unicode="&#x18f;" horiz-adv-x="1585" 
d="M92 752h1120q3 59 -4.5 119.5t-35.5 133t-74.5 127t-131.5 91.5t-198 37q-152 0 -257.5 -63.5t-129.5 -184.5h-260q5 27 12.5 55t28.5 76.5t49.5 90.5t79 88.5t113 79t155 54t201.5 21.5q115 0 213 -22t168 -57t126.5 -87t92.5 -103.5t62.5 -115.5t39.5 -114t20.5 -107.5
t9 -88t1.5 -63.5q0 -121 -21.5 -224.5t-55.5 -176t-84 -131.5t-99 -96t-110 -64t-106.5 -40t-98 -20.5t-76.5 -8.5t-49 -1q-150 0 -272.5 45.5t-203 122.5t-134 180t-75 215.5t-16.5 231.5zM1206 520h-827q5 -47 19.5 -92t46 -92t76 -82t115 -57.5t157.5 -22.5
q175 0 283.5 98.5t129.5 247.5z" />
    <glyph glyph-name="florin" unicode="&#x192;" 
d="M1008 1040l-35 -168h-225l-191 -913q-26 -125 -46 -172q-54 -130 -193 -162q-51 -12 -115 -12q-22 0 -146 8l39 178h37q48 2 77 11t48 31.5t28.5 49t20.5 76.5l191 905h-191l37 168h188l23 111q8 38 17 67t26.5 64t44.5 60t64.5 47t94 33.5t126.5 11.5t162 -15l-33 -159
q-43 14 -109 14q-56 0 -93.5 -34t-49.5 -91l-23 -109h226z" />
    <glyph glyph-name="uni019F" unicode="&#x19f;" horiz-adv-x="1589" 
d="M795 1477q30 0 57.5 -1.5t81 -9t99.5 -21t105.5 -41t107.5 -64.5t96.5 -96t81 -131.5t53 -174t20.5 -221.5t-20.5 -221.5t-53 -174t-81 -131.5t-96.5 -96t-107.5 -64.5t-105.5 -41t-99.5 -21t-81 -9t-57.5 -1.5t-57.5 1.5t-81 9t-100 21t-105.5 41t-107.5 64.5t-96.5 96
t-81 131.5t-53.5 174t-20.5 221.5t20.5 221.5t53.5 174t81 131.5t96.5 96t107.5 64.5t105.5 41t100 21t81 9t57.5 1.5zM795 1260q-91 0 -163 -29t-116 -73.5t-74.5 -106t-44 -117t-18.5 -115.5h831q-4 49 -14.5 95.5t-29.5 98.5t-51 94.5t-75 78t-106 55t-139 19.5zM795 174
q65 0 121 15.5t97 40.5t73.5 60.5t54 74t36.5 81.5t22 80.5t9 75.5h-827q3 -54 16 -108t43.5 -113t75 -104t117 -74t162.5 -29z" />
    <glyph glyph-name="uni01CF" unicode="&#x1cf;" horiz-adv-x="610" 
d="M174 1434h262v-1434h-262v1434zM305 1651l205 192h246l-275 -287h-352l-274 287h245z" />
    <glyph glyph-name="uni01D0" unicode="&#x1d0;" horiz-adv-x="540" 
d="M147 1040h246v-1040h-246v1040zM272 1251l184 183h226l-246 -271h-328l-246 271h226z" />
    <glyph glyph-name="uni01DD" unicode="&#x1dd;" horiz-adv-x="1216" 
d="M338 739h-234q8 38 21.5 72t37.5 75t62 74t88.5 61.5t124 44t162.5 15.5q103 0 186.5 -24t137 -61t94 -90t60.5 -101.5t32.5 -105t15 -91t2.5 -69.5q0 -272 -134 -426t-396 -154q-40 0 -76.5 3.5t-92 17.5t-100.5 38.5t-93.5 72t-80.5 111t-51 162t-16 220.5h778
q0 43 -8 85.5t-28.5 87.5t-50.5 79t-79.5 55.5t-111.5 21.5q-89 0 -160 -45.5t-90 -128.5zM866 416h-518q0 -33 5 -66.5t21.5 -75.5t42 -73t72 -52.5t107.5 -21.5q64 0 114 21.5t78.5 53t47 72.5t24.5 75.5t6 66.5z" />
    <glyph glyph-name="Gcaron" unicode="&#x1e6;" horiz-adv-x="1548" 
d="M844 768h586v-768h-189v195h-4q-123 -238 -444 -238q-106 0 -202 22t-188.5 75.5t-160 135t-109 210.5t-41.5 292q0 140 26 255.5t68 195t102 141t122 97t134 58t132 30.5t121 8q140 0 249.5 -32t174.5 -80.5t108.5 -116.5t61 -128.5t22.5 -128.5h-260q-5 37 -17 70.5
t-39 71t-64.5 64.5t-98.5 45t-137 18t-138.5 -19.5t-105.5 -52t-76 -79t-52.5 -95t-31.5 -105.5t-16 -106t-4 -101q0 -122 30 -218t76 -152.5t107.5 -93.5t117 -50.5t111.5 -13.5q43 0 87.5 8t98 33t94 65t69 110t30.5 161h-350v217zM774 1651l205 192h246l-275 -287h-352
l-274 287h245z" />
    <glyph glyph-name="gcaron" unicode="&#x1e7;" horiz-adv-x="1310" 
d="M938 1040h225v-993q0 -215 -138 -328.5t-388 -113.5q-411 0 -455 295h226q14 -65 84.5 -94t154.5 -29q73 0 125.5 19.5t80 46.5t43 68t19 71.5t3.5 68.5v80q-23 -41 -64 -71.5t-78 -44t-83 -21.5t-65.5 -9t-37.5 -1q-127 0 -224 44t-155 120.5t-86.5 172t-28.5 205.5
q0 117 29 212t77.5 158t114 105.5t135.5 61t146 18.5q52 0 103 -9t119 -43t114 -91h4v102zM358 524q0 -70 12 -127.5t30.5 -95t45.5 -66t52.5 -44t56 -25t52.5 -12t44 -2.5q55 0 104.5 23t90.5 67.5t65.5 118.5t24.5 169q0 103 -24 180t-65.5 120t-91 63t-106.5 20
q-137 0 -214 -102.5t-77 -286.5zM655 1251l184 183h226l-246 -271h-328l-246 271h226z" />
    <glyph glyph-name="Scommaaccent" unicode="&#x218;" horiz-adv-x="1400" 
d="M92 461h260q2 -37 12 -72t36 -75.5t65 -70t106.5 -49.5t153.5 -20q303 0 303 215q0 49 -19.5 87.5t-44.5 60t-65.5 38t-66 22.5t-62.5 13q-98 17 -168 35q-57 13 -98.5 24.5t-91 30t-83.5 39t-69 52t-55.5 68.5t-33.5 88t-13 112q0 83 26 150.5t64.5 110t95 74t106 47
t109.5 24.5t93 10.5t69 1.5q136 0 242.5 -34.5t171.5 -94.5t100 -133.5t41 -159.5h-260q-28 205 -301 205q-15 0 -28 -0.5t-43.5 -4.5t-54.5 -10.5t-53.5 -20.5t-49.5 -33.5t-34 -51t-14 -70.5q0 -24 6 -45t15.5 -37t27 -30t32.5 -24t41 -19.5t44.5 -15.5t50 -12.5t50.5 -10
t53 -9.5q78 -14 135.5 -27t118.5 -32.5t103 -42.5t81 -56.5t62.5 -74.5t37 -95.5t13.5 -121.5q0 -459 -600 -459q-102 0 -187.5 16t-147.5 44t-111 67.5t-80 83t-51.5 94.5t-29.5 99.5t-10 99.5zM565 -123h271v-203q0 -60 -23.5 -104.5t-55 -67t-73.5 -36t-68.5 -16.5
t-50.5 -3v131q56 -2 96.5 17.5t40.5 58.5v18h-137v205z" />
    <glyph glyph-name="scommaaccent" unicode="&#x219;" horiz-adv-x="1105" 
d="M74 317h245q0 -50 22 -88t58.5 -59.5t78 -32t85.5 -10.5q38 0 71.5 7t67 24t53 52t19.5 85q0 66 -42.5 97t-149.5 50l-113 19q-178 31 -259 99t-81 208q0 78 32 137.5t78 91.5t108.5 52t113 26t102.5 6q432 0 443 -317h-232q-6 70 -59.5 109.5t-143.5 39.5
q-188 0 -188 -129q0 -35 15.5 -62t32 -41.5t58 -27.5t63 -17.5t76.5 -13.5q5 -1 8 -1.5t7 -1t8 -1.5q134 -24 179 -38q160 -52 193 -188q9 -39 9 -83q0 -74 -25.5 -133.5t-68.5 -99.5t-103 -66.5t-125.5 -38.5t-138.5 -12q-112 0 -199.5 22.5t-141 58t-89 84.5t-50 95.5
t-17.5 97.5zM418 -123h270v-203q0 -60 -23.5 -104.5t-54.5 -67t-73 -36t-68.5 -16.5t-50.5 -3v131q56 -2 96.5 17.5t40.5 58.5v18h-137v205z" />
    <glyph glyph-name="Tcommaaccent" unicode="&#x21a;" horiz-adv-x="1216" 
d="M477 1217h-450v217h1163v-217h-451v-1217h-262v1217zM473 -123h270v-203q0 -60 -23.5 -104.5t-54.5 -67t-73 -36t-68.5 -16.5t-50.5 -3v131q56 -2 96.5 17.5t40.5 58.5v18h-137v205z" />
    <glyph glyph-name="tcommaaccent" unicode="&#x21b;" horiz-adv-x="700" 
d="M29 1040h168v312h245v-312h217v-168h-217v-587q0 -28 1 -42t7 -34t18 -29t36 -16.5t59 -7.5q55 0 96 12v-168q-95 -25 -200 -25q-53 0 -95 9t-69 22.5t-46.5 35t-29 40t-15 44t-6.5 41t-1 36.5v669h-168v168zM309 -123h271v-203q0 -60 -23.5 -104.5t-55 -67t-73.5 -36
t-68.5 -16.5t-50.5 -3v131q56 -2 96.5 17.5t40.5 58.5v18h-137v205z" />
    <glyph glyph-name="uni0259" unicode="&#x259;" horiz-adv-x="1216" 
d="M338 739h-234q8 38 21.5 72t37.5 75t62 74t88.5 61.5t124 44t162.5 15.5q103 0 186.5 -24t137 -61t94 -90t60.5 -101.5t32.5 -105t15 -91t2.5 -69.5q0 -272 -134 -426t-396 -154q-40 0 -76.5 3.5t-92 17.5t-100.5 38.5t-93.5 72t-80.5 111t-51 162t-16 220.5h778
q0 43 -8 85.5t-28.5 87.5t-50.5 79t-79.5 55.5t-111.5 21.5q-89 0 -160 -45.5t-90 -128.5zM866 416h-518q0 -33 5 -66.5t21.5 -75.5t42 -73t72 -52.5t107.5 -21.5q64 0 114 21.5t78.5 53t47 72.5t24.5 75.5t6 66.5z" />
    <glyph glyph-name="uni0275" unicode="&#x275;" horiz-adv-x="1249" 
d="M625 1081q126 0 224.5 -40t155.5 -99.5t94 -138.5t49.5 -147.5t12.5 -135.5t-12.5 -135.5t-49.5 -147.5t-94 -138.5t-155.5 -99.5t-224.5 -40q-91 0 -168.5 21t-131.5 55t-96.5 81.5t-68.5 98t-42.5 106.5t-23 104t-6.5 95q0 46 6.5 94t23 104t42.5 106.5t68.5 98
t96.5 82t131.5 55.5t168.5 21zM625 913q-58 0 -105 -21.5t-76.5 -53.5t-50 -74.5t-29 -80t-10.5 -73.5h541q-3 38 -11.5 74t-28.5 79t-48 75t-75.5 53.5t-106.5 21.5zM625 127q62 0 111.5 24.5t77.5 60t47.5 81.5t26.5 81t9 68h-545q2 -33 9.5 -68t26.5 -81t47.5 -81.5
t78 -60t111.5 -24.5z" />
    <glyph glyph-name="afii57929" unicode="&#x2bc;" horiz-adv-x="475" 
d="M102 1434h271v-285q0 -67 -16.5 -121t-42.5 -88t-62.5 -57.5t-73 -34.5t-76.5 -14v141q61 5 99.5 48.5t38.5 111.5v22h-138v277z" />
    <glyph glyph-name="circumflex" unicode="&#x2c6;" horiz-adv-x="1024" 
d="M512 1346l-184 -183h-226l246 271h328l246 -271h-226z" />
    <glyph glyph-name="caron" unicode="&#x2c7;" horiz-adv-x="1024" 
d="M512 1251l184 183h226l-246 -271h-328l-246 271h226z" />
    <glyph glyph-name="breve" unicode="&#x2d8;" horiz-adv-x="1011" 
d="M102 1434h209q4 -70 59 -110t136 -40t135.5 40t58.5 110h209q-69 -293 -403 -293q-85 0 -153 20t-110.5 49.5t-73 71t-45 77.5t-22.5 75z" />
    <glyph glyph-name="dotaccent" unicode="&#x2d9;" horiz-adv-x="450" 
d="M102 1217v217h246v-217h-246z" />
    <glyph glyph-name="ring" unicode="&#x2da;" horiz-adv-x="589" 
d="M102 1298q0 78 57.5 135.5t135.5 57.5t135 -57.5t57 -135.5t-57 -135t-135 -57t-135.5 57t-57.5 135zM205 1298q0 -37 26.5 -63.5t63.5 -26.5t63.5 26.5t26.5 63.5t-26.5 64t-63.5 27t-63.5 -27t-26.5 -64z" />
    <glyph glyph-name="ogonek" unicode="&#x2db;" horiz-adv-x="757" 
d="M252 0h205q-81 -26 -125.5 -91.5t-44.5 -154.5q0 -55 27.5 -89t76.5 -34q51 0 77 35t24 82h163q-2 -23 -8.5 -47.5t-26.5 -61t-49.5 -64t-84 -47.5t-124.5 -20q-130 0 -195 71t-65 167q0 75 37.5 145t112.5 109z" />
    <glyph glyph-name="tilde" unicode="&#x2dc;" horiz-adv-x="991" 
d="M737 1434h152q-17 -97 -85.5 -153t-156.5 -56q-70 0 -158 45q-3 2 -17.5 8.5t-18.5 8.5t-16.5 7.5t-18 7t-16 5t-18 5t-17.5 2.5t-19 1q-80 0 -94 -74h-152q13 87 78.5 148t163.5 61q74 0 158 -41q14 -7 37.5 -18.5t34.5 -16.5t30 -9.5t39 -4.5q80 0 94 74z" />
    <glyph glyph-name="hungarumlaut" unicode="&#x2dd;" horiz-adv-x="942" 
d="M246 1434h246l-226 -271h-164zM594 1434h246l-226 -271h-163z" />
    <glyph glyph-name="acutecomb" unicode="&#x301;" horiz-adv-x="4" 
d="M-567 1434h266l-225 -271h-185z" />
    <glyph glyph-name="acutecomb" unicode="&#xf400;" horiz-adv-x="4" 
d="M-567 1434h266l-225 -271h-185z" />
    <glyph glyph-name="uni0313" unicode="&#x313;" horiz-adv-x="475" 
d="M102 1434h271v-285q0 -67 -16.5 -121t-42.5 -88t-62.5 -57.5t-73 -34.5t-76.5 -14v141q61 5 99.5 48.5t38.5 111.5v22h-138v277z" />
    <glyph glyph-name="uni0315" unicode="&#x315;" horiz-adv-x="475" 
d="M102 1434h271v-285q0 -67 -16.5 -121t-42.5 -88t-62.5 -57.5t-73 -34.5t-76.5 -14v141q61 5 99.5 48.5t38.5 111.5v22h-138v277z" />
    <glyph glyph-name="uni0326" unicode="&#x326;" horiz-adv-x="475" 
d="M102 -123h271v-203q0 -60 -23.5 -104.5t-55 -67t-73.5 -36t-68.5 -16.5t-50.5 -3v131q56 -2 97 17.5t41 58.5v18h-138v205z" />
    <glyph glyph-name="anoteleia" unicode="&#x387;" horiz-adv-x="512" 
d="M121 410v276h270v-276h-270z" />
    <glyph glyph-name="uni0394" unicode="&#x394;" horiz-adv-x="1327" 
d="M664 1155l-316 -938h631zM-8 0l540 1434h263l540 -1434h-1343z" />
    <glyph glyph-name="uni0394" unicode="&#x2206;" horiz-adv-x="1327" 
d="M664 1155l-316 -938h631zM-8 0l540 1434h263l540 -1434h-1343z" />
    <glyph glyph-name="uni03A9" unicode="&#x3a9;" horiz-adv-x="1515" 
d="M119 0v217h309v57q-150 39 -246 181t-96 362q0 103 19 190.5t50.5 150.5t76.5 114t91 83.5t102 56.5t101 36t95.5 19t79 8.5t57.5 1.5t57.5 -1.5t79 -8.5t95.5 -19t101 -36t102 -56.5t91 -83.5t76.5 -114t50.5 -150.5t19 -190.5q0 -220 -96.5 -362t-246.5 -181v-57h310
v-217h-527v410q56 13 103.5 41t88.5 75t64 121.5t23 169.5q0 26 -1.5 49.5t-6.5 63t-17 72.5t-30 72t-48 69.5t-68.5 56t-95 39.5t-124.5 14t-124.5 -14t-95 -39.5t-68.5 -56t-48 -69.5t-30 -72t-17 -72.5t-6.5 -63t-1.5 -49.5q0 -95 23 -169.5t63.5 -121.5t88 -75
t103.5 -41v-410h-526z" />
    <glyph glyph-name="uni03A9" unicode="&#x2126;" horiz-adv-x="1515" 
d="M119 0v217h309v57q-150 39 -246 181t-96 362q0 103 19 190.5t50.5 150.5t76.5 114t91 83.5t102 56.5t101 36t95.5 19t79 8.5t57.5 1.5t57.5 -1.5t79 -8.5t95.5 -19t101 -36t102 -56.5t91 -83.5t76.5 -114t50.5 -150.5t19 -190.5q0 -220 -96.5 -362t-246.5 -181v-57h310
v-217h-527v410q56 13 103.5 41t88.5 75t64 121.5t23 169.5q0 26 -1.5 49.5t-6.5 63t-17 72.5t-30 72t-48 69.5t-68.5 56t-95 39.5t-124.5 14t-124.5 -14t-95 -39.5t-68.5 -56t-48 -69.5t-30 -72t-17 -72.5t-6.5 -63t-1.5 -49.5q0 -95 23 -169.5t63.5 -121.5t88 -75
t103.5 -41v-410h-526z" />
    <glyph glyph-name="pi" unicode="&#x3c0;" 
d="M217 0v872h-27q-75 0 -137 -41v168q74 41 174 41h949v-168h-132v-579q0 -23 1 -37.5t6 -34.5t13.5 -31t26 -18t42.5 -4l20 2v-170q-72 -10 -147 -10q-43 0 -76.5 8.5t-55 21t-36.5 33.5t-22.5 37.5t-11.5 43t-4.5 40t-0.5 37.5v661h-336v-872h-246z" />
    <glyph glyph-name="afii10023" unicode="&#x401;" horiz-adv-x="1308" 
d="M436 844h727v-217h-727v-410h838v-217h-1100v1434h1077v-217h-815v-373zM352 1581v180h262v-180h-262zM840 1581v180h262v-180h-262z" />
    <glyph glyph-name="afii10051" unicode="&#x402;" horiz-adv-x="1597" 
d="M25 1217v217h1163v-217h-471v-402q115 14 268 14q53 0 89.5 -1.5t96 -10t101 -24t89.5 -47t78 -75t50 -111t20 -152.5q0 -30 -3.5 -61.5t-15 -76t-30 -83.5t-53.5 -79.5t-80.5 -69t-114.5 -47t-153 -18.5q-79 0 -162 27v217q83 -27 139 -27q96 0 144.5 55t48.5 154
q0 60 -17.5 101.5t-41.5 63t-65.5 33t-71 13.5t-77.5 2q-113 0 -239 -14v-598h-262v1217h-430z" />
    <glyph glyph-name="afii10052" unicode="&#x403;" horiz-adv-x="1138" 
d="M436 1217v-1217h-262v1434h938v-217h-676zM563 1843h279l-242 -287h-197z" />
    <glyph glyph-name="afii10053" unicode="&#x404;" horiz-adv-x="1536" 
d="M1042 844v-217h-667q2 -58 14.5 -115.5t43.5 -120t76.5 -109.5t120.5 -77.5t169 -30.5q91 0 162.5 24t116 65t70 87t36.5 99h260q-8 -45 -21 -87.5t-38 -93t-58.5 -93.5t-85 -84t-114 -70t-149 -46.5t-187.5 -17.5q-156 0 -283.5 46t-220.5 135.5t-144 230.5t-51 323
q0 127 22.5 238.5t75.5 213.5t133.5 174.5t203.5 115.5t278 43q137 0 246 -30t175.5 -77t111.5 -110.5t63.5 -123.5t21.5 -124h-260q-14 110 -108 179t-258 69q-88 0 -160 -25.5t-119 -67t-79.5 -97t-47 -111.5t-16.5 -115h667z" />
    <glyph glyph-name="afii10054" unicode="&#x405;" horiz-adv-x="1400" 
d="M92 461h260q2 -37 12 -72t36 -75.5t65 -70t106.5 -49.5t153.5 -20q303 0 303 215q0 49 -19.5 87.5t-44.5 60t-65.5 38t-66 22.5t-62.5 13q-98 17 -168 35q-57 13 -98.5 24.5t-91 30t-83.5 39t-69 52t-55.5 68.5t-33.5 88t-13 112q0 83 26 150.5t64.5 110t95 74t106 47
t109.5 24.5t93 10.5t69 1.5q136 0 242.5 -34.5t171.5 -94.5t100 -133.5t41 -159.5h-260q-28 205 -301 205q-15 0 -28 -0.5t-43.5 -4.5t-54.5 -10.5t-53.5 -20.5t-49.5 -33.5t-34 -51t-14 -70.5q0 -24 6 -45t15.5 -37t27 -30t32.5 -24t41 -19.5t44.5 -15.5t50 -12.5t50.5 -10
t53 -9.5q78 -14 135.5 -27t118.5 -32.5t103 -42.5t81 -56.5t62.5 -74.5t37 -95.5t13.5 -121.5q0 -459 -600 -459q-102 0 -187.5 16t-147.5 44t-111 67.5t-80 83t-51.5 94.5t-29.5 99.5t-10 99.5z" />
    <glyph glyph-name="afii10055" unicode="&#x406;" horiz-adv-x="610" 
d="M174 1434h262v-1434h-262v1434z" />
    <glyph glyph-name="afii10056" unicode="&#x407;" horiz-adv-x="696" 
d="M217 1434h262v-1434h-262v1434zM41 1581v180h246v-180h-246zM410 1581v180h245v-180h-245z" />
    <glyph glyph-name="afii10057" unicode="&#x408;" horiz-adv-x="1128" 
d="M47 498h262v-60q0 -70 15 -121t36 -77.5t52 -42.5t54.5 -19.5t51.5 -3.5q37 0 62.5 4.5t53.5 22t45 49t28.5 88.5t11.5 137v959h262v-926q0 -61 -2.5 -107t-13.5 -106.5t-29.5 -105t-53.5 -90.5t-83 -75.5t-120 -48t-163 -18.5q-111 0 -195.5 28t-135.5 72.5t-83 107
t-43.5 123.5t-11.5 130v80z" />
    <glyph glyph-name="afii10058" unicode="&#x409;" horiz-adv-x="2265" 
d="M27 0v217q32 -4 51 -4q43 0 78.5 14t62 35.5t47 58t34 71.5t23 87t14.5 92.5t7.5 100.5t3 99t0.5 99v564h981v-553h373q41 0 77.5 -2.5t89 -13.5t95.5 -29t88.5 -52t76.5 -80t51 -116t20 -156q0 -59 -12 -114.5t-46.5 -115t-88 -103t-144.5 -71.5t-209 -28h-633v1217
h-457v-424q0 -100 -4.5 -181t-18 -166.5t-35.5 -150t-59 -123.5t-86.5 -97t-120.5 -60.5t-159 -22.5q-56 0 -100 8zM1329 664v-447h320q59 0 103.5 8.5t87.5 31t66 69.5t23 118q0 59 -19 101.5t-45.5 65t-67 35t-71.5 15.5t-71 3h-326z" />
    <glyph glyph-name="afii10059" unicode="&#x40a;" horiz-adv-x="2273" 
d="M436 643v-643h-262v1434h262v-574h639v574h262v-553h373q41 0 77.5 -2.5t89 -13.5t95.5 -29t88.5 -52t76.5 -80t51 -116t20 -156q0 -59 -12 -114.5t-46.5 -115t-88 -103t-144.5 -71.5t-209 -28h-633v643h-639zM1337 664v-447h320q59 0 103.5 8.5t87.5 31t66 69.5t23 118
q0 59 -19 101.5t-45.5 65t-67 35t-71.5 15.5t-71 3h-326z" />
    <glyph glyph-name="afii10060" unicode="&#x40b;" horiz-adv-x="1642" 
d="M1540 0h-262v373q0 30 -0.5 45t-3 40.5t-8 38.5t-16.5 32.5t-26.5 29t-39.5 22t-55 18t-73.5 9.5t-94.5 4q-140 0 -244 -14v-598h-262v1217h-430v217h1163v-217h-471v-402q187 14 293 14q100 0 180.5 -12.5t135 -33t94.5 -52.5t63 -64.5t36 -75t17 -78.5t4 -81v-432z" />
    <glyph glyph-name="afii10061" unicode="&#x40c;" horiz-adv-x="1368" 
d="M436 788l576 646h311l-635 -662l688 -772h-332l-608 743v-743h-262v1434h262v-646zM717 1843h278l-241 -287h-197z" />
    <glyph glyph-name="afii10062" unicode="&#x40e;" horiz-adv-x="1275" 
d="M707 659l303 775h274l-481 -1155q-25 -61 -54.5 -109t-56.5 -79t-61 -53t-59.5 -33t-61.5 -17t-57 -7t-56 -1q-46 0 -65 0.5t-53 5.5t-68 16v227q81 -24 149 -24q78 0 130 37t75 135l-547 1057h322zM207 1808h211q7 -79 68 -122.5t151 -43.5t151 43.5t68 122.5h211
q-26 -139 -136.5 -226t-293.5 -87t-293.5 87t-136.5 226z" />
    <glyph glyph-name="afii10145" unicode="&#x40f;" horiz-adv-x="1544" 
d="M1098 217v1217h262v-1434h-465v-379h-246v379h-465v1434h262v-1217h652z" />
    <glyph glyph-name="afii10017" unicode="&#x410;" horiz-adv-x="1327" 
d="M377 301l-105 -301h-280l540 1434h263l540 -1434h-280l-105 301h-573zM446 518h435l-217 637z" />
    <glyph glyph-name="afii10018" unicode="&#x411;" horiz-adv-x="1417" 
d="M436 1217v-353h418q40 0 76 -2.5t87 -13t92.5 -28.5t85 -51t73 -78t48.5 -113.5t19 -153.5q0 -68 -14 -125t-36.5 -98t-56.5 -73.5t-66.5 -53t-74 -35.5t-72.5 -22.5t-68.5 -11.5t-55.5 -4.5t-39 -0.5h-678v1434h1067v-217h-805zM436 647v-430h348q46 0 82.5 4.5t75 18.5
t64.5 37.5t42.5 64t16.5 94.5q0 56 -19 97t-45.5 62.5t-67 33.5t-71.5 15t-71 3h-355z" />
    <glyph glyph-name="afii10019" unicode="&#x412;" horiz-adv-x="1464" 
d="M174 1434h676q105 0 185 -23.5t126.5 -59t75.5 -85.5t39 -96.5t10 -98.5q0 -118 -66 -203t-171 -104v-4q40 -7 77 -20.5t78.5 -41t71.5 -66t50 -98.5t20 -133q0 -75 -18.5 -136t-47.5 -102t-73 -71.5t-88.5 -47.5t-100 -27.5t-100.5 -13.5t-97 -3h-647v1434zM436 1217
v-365h346q115 0 174.5 40t59.5 130q0 53 -20.5 92t-47.5 58t-65 30t-60.5 13t-46.5 2h-340zM436 635v-418h359q64 0 111.5 9.5t87 32t60.5 66t21 105.5q0 54 -19 94t-45.5 60.5t-67 32.5t-71.5 15t-71 3h-365z" />
    <glyph glyph-name="afii10020" unicode="&#x413;" horiz-adv-x="1138" 
d="M436 1217v-1217h-262v1434h938v-217h-676z" />
    <glyph glyph-name="afii10021" unicode="&#x414;" horiz-adv-x="1552" 
d="M1329 217h197l-13 -541h-229v324h-1042v-324h-230l-12 541h123q248 319 248 907v310h958v-1217zM1067 1217h-434v-173q0 -258 -41.5 -447.5t-157.5 -379.5h633v1000z" />
    <glyph glyph-name="afii10022" unicode="&#x415;" horiz-adv-x="1306" 
d="M436 844h729v-217h-729v-410h836v-217h-1098v1434h1075v-217h-813v-373z" />
    <glyph glyph-name="afii10024" unicode="&#x416;" horiz-adv-x="1978" 
d="M858 0v686l-551 -686h-315l633 770l-594 664h315l512 -607v607h262v-607l512 607h316l-594 -664l633 -770h-316l-551 686v-686h-262z" />
    <glyph glyph-name="afii10025" unicode="&#x417;" horiz-adv-x="1427" 
d="M92 489h260q0 -40 8 -78.5t32 -83t63 -77t107 -54.5t157 -22q150 0 234.5 62t84.5 178q0 65 -21 110t-60.5 69.5t-88 35t-112.5 10.5h-197v217h170q252 0 252 188q0 216 -291 216q-89 0 -153 -21t-98.5 -57.5t-51 -78t-18.5 -91.5h-260q2 110 36 193t89 134t134.5 82.5
t162 43.5t182.5 12q47 0 92 -3.5t100.5 -15t102.5 -29.5t93 -49.5t78 -73t52 -102t20 -133.5q0 -132 -69.5 -217t-169.5 -98v-4q127 -19 212 -112.5t85 -252.5q0 -39 -6.5 -77t-24.5 -81.5t-46 -81.5t-75.5 -73.5t-109 -61t-150 -40.5t-195.5 -15q-587 0 -610 532z" />
    <glyph glyph-name="afii10026" unicode="&#x418;" horiz-adv-x="1548" 
d="M436 385l682 1049h256v-1434h-262v1049l-682 -1049h-256v1434h262v-1049z" />
    <glyph glyph-name="afii10027" unicode="&#x419;" horiz-adv-x="1548" 
d="M436 385l682 1049h256v-1434h-262v1049l-682 -1049h-256v1434h262v-1049zM344 1808h211q7 -79 68 -122.5t151 -43.5t151 43.5t68 122.5h211q-26 -139 -136.5 -226t-293.5 -87t-293.5 87t-136.5 226z" />
    <glyph glyph-name="afii10028" unicode="&#x41a;" horiz-adv-x="1368" 
d="M436 788l576 646h311l-635 -662l688 -772h-332l-608 743v-743h-262v1434h262v-646z" />
    <glyph glyph-name="afii10029" unicode="&#x41b;" horiz-adv-x="1503" 
d="M27 0v217q75 -13 132 7t90.5 75t55 112.5t30 149.5t11 153.5t2.5 155.5v564h981v-1434h-262v1217h-457v-424q0 -134 -7.5 -232.5t-41 -225t-92.5 -202t-172 -117.5t-270 -16z" />
    <glyph glyph-name="afii10030" unicode="&#x41c;" horiz-adv-x="1912" 
d="M858 0l-422 1135h-4l4 -56v-1079h-262v1434h391l391 -1088l392 1088h391v-1434h-262v1079l4 56h-4l-422 -1135h-197z" />
    <glyph glyph-name="afii10031" unicode="&#x41d;" horiz-adv-x="1511" 
d="M436 643v-643h-262v1434h262v-574h639v574h262v-1434h-262v643h-639z" />
    <glyph glyph-name="afii10032" unicode="&#x41e;" horiz-adv-x="1589" 
d="M795 1477q30 0 57.5 -1.5t81 -9t99.5 -21t105.5 -41t107.5 -64.5t96.5 -96t81 -131.5t53 -174t20.5 -221.5t-20.5 -221.5t-53 -174t-81 -131.5t-96.5 -96t-107.5 -64.5t-105.5 -41t-99.5 -21t-81 -9t-57.5 -1.5t-57.5 1.5t-81 9t-100 21t-105.5 41t-107.5 64.5t-96.5 96
t-81 131.5t-53.5 174t-20.5 221.5t20.5 221.5t53.5 174t81 131.5t96.5 96t107.5 64.5t105.5 41t100 21t81 9t57.5 1.5zM795 1260q-101 0 -178.5 -36t-122.5 -91t-73.5 -130.5t-38 -143.5t-9.5 -142t9.5 -142t38 -143.5t73.5 -130.5t122.5 -91t178.5 -36t178.5 36t122.5 91
t73.5 130.5t38 143.5t9.5 142t-9.5 142t-38 143.5t-73.5 130.5t-122.5 91t-178.5 36z" />
    <glyph glyph-name="afii10033" unicode="&#x41f;" horiz-adv-x="1507" 
d="M436 1217v-1217h-262v1434h1159v-1434h-262v1217h-635z" />
    <glyph glyph-name="afii10034" unicode="&#x420;" horiz-adv-x="1368" 
d="M174 1434h571q56 0 102.5 -3t106 -14t106 -29.5t94 -52.5t79 -79.5t51 -113.5t19.5 -153q0 -101 -30 -182t-94 -145t-174.5 -99t-261.5 -35h-307v-528h-262v1434zM436 1217v-472h305q44 0 77.5 3t76.5 17t70.5 37.5t47 68t19.5 106.5q0 47 -11 85t-28 62.5t-43.5 42.5
t-50.5 27.5t-55.5 15t-52.5 6.5t-48 1h-307z" />
    <glyph glyph-name="afii10035" unicode="&#x421;" horiz-adv-x="1501" 
d="M1163 489h260q-5 -51 -15.5 -98.5t-32.5 -102.5t-52.5 -101t-79 -89.5t-109 -73.5t-145.5 -48.5t-186 -18.5q-28 0 -54 1t-80 8.5t-100.5 20t-107.5 38.5t-110 62t-99 92.5t-83.5 127t-55 169.5t-21.5 216q0 172 38.5 308t103.5 224t155.5 146t189 82.5t209.5 24.5
q141 0 251 -33.5t175.5 -85t108.5 -121.5t60 -134t20 -132h-260q-7 51 -25.5 96.5t-56.5 91.5t-108 73.5t-165 27.5q-93 0 -165.5 -30t-119 -80.5t-76 -123t-42 -152t-12.5 -172.5q0 -248 122 -388t320 -140q86 0 153 27t107 73t62 100.5t26 114.5z" />
    <glyph glyph-name="afii10036" unicode="&#x422;" horiz-adv-x="1216" 
d="M477 1217h-450v217h1163v-217h-451v-1217h-262v1217z" />
    <glyph glyph-name="afii10037" unicode="&#x423;" horiz-adv-x="1275" 
d="M707 659l303 775h274l-481 -1155q-25 -61 -54.5 -109t-56.5 -79t-61 -53t-59.5 -33t-61.5 -17t-57 -7t-56 -1q-46 0 -65 0.5t-53 5.5t-68 16v227q81 -24 149 -24q78 0 130 37t75 135l-547 1057h322z" />
    <glyph glyph-name="afii10038" unicode="&#x424;" horiz-adv-x="1896" 
d="M817 -61v204h-55q-40 0 -82 3t-112 16.5t-131 36t-128 67t-114 104t-78 153t-31 208.5q0 54 7 105t26.5 111t51 111.5t84.5 100.5t121.5 83.5t167.5 55.5t218 21h55v227h262v-227h56q119 0 218 -21t167.5 -55.5t121.5 -83.5t84 -100.5t50.5 -111.5t26.5 -111t7 -105
q0 -115 -31 -208.5t-78 -153t-114 -104t-127.5 -67t-131 -36t-112 -16.5t-81.5 -3h-56v-204h-262zM817 342v778h-18q-93 0 -165.5 -16.5t-118 -47t-76.5 -66.5t-46 -83t-20.5 -87.5t-5.5 -88.5t5.5 -88.5t20.5 -87.5t46 -83t76.5 -66.5t118 -47t165.5 -16.5h18zM1079 342h19
q93 0 165.5 16.5t118 47t76.5 66.5t46 83t20.5 87.5t5.5 88.5t-5.5 88.5t-20.5 87.5t-46 83t-76.5 66.5t-118 47t-165.5 16.5h-19v-778z" />
    <glyph glyph-name="afii10039" unicode="&#x425;" horiz-adv-x="1363" 
d="M682 915l317 519h328l-481 -701l518 -733h-338l-344 553l-344 -553h-338l518 733l-481 701h328z" />
    <glyph glyph-name="afii10040" unicode="&#x426;" horiz-adv-x="1568" 
d="M436 217h647v1217h263v-1217h196l-12 -541h-230v324h-1126v1434h262v-1217z" />
    <glyph glyph-name="afii10041" unicode="&#x427;" horiz-adv-x="1378" 
d="M119 1434h262v-387q0 -28 0.5 -45t3.5 -40.5t9 -38t16.5 -32.5t25.5 -29t37.5 -23t52 -18t69 -10t87.5 -4q69 0 164 7l96 7v613h262v-1434h-262v604q-187 -14 -293 -14q-97 0 -173 10t-145 37t-114 71t-71.5 114.5t-26.5 164.5v447z" />
    <glyph glyph-name="afii10042" unicode="&#x428;" horiz-adv-x="2097" 
d="M436 217h482v1217h262v-1217h481v1217h262v-1434h-1749v1434h262v-1217z" />
    <glyph glyph-name="afii10043" unicode="&#x429;" horiz-adv-x="2146" 
d="M436 1434v-1217h482v1217h262v-1217h481v1217h262v-1217h197l-13 -541h-229v324h-1704v1434h262z" />
    <glyph glyph-name="afii10044" unicode="&#x42a;" horiz-adv-x="1523" 
d="M588 1434v-553h373q41 0 77.5 -2.5t89 -13.5t95.5 -29t88 -52t76 -80t51 -116t20 -156q0 -59 -12 -114.5t-46.5 -115t-88 -103t-144.5 -71.5t-209 -28h-632v1217h-299v217h561zM588 664v-447h319q46 0 83 4.5t75.5 19t64 38.5t42 66t16.5 99q0 59 -19 101.5t-45.5 65
t-67.5 35t-72 15.5t-71 3h-325z" />
    <glyph glyph-name="afii10045" unicode="&#x42b;" horiz-adv-x="1859" 
d="M436 1434v-553h373q41 0 77.5 -2.5t89 -13.5t95.5 -29t88.5 -52t76.5 -80t51 -116t20 -156q0 -59 -12 -114.5t-46.5 -115t-88 -103t-144.5 -71.5t-209 -28h-633v1434h262zM436 664v-447h320q59 0 103.5 8.5t87.5 31t66 69.5t23 118q0 59 -19 101.5t-45.5 65t-67 35
t-71.5 15.5t-71 3h-326zM1423 1434h263v-1434h-263v1434z" />
    <glyph glyph-name="afii10046" unicode="&#x42c;" horiz-adv-x="1372" 
d="M436 1434v-553h373q41 0 77.5 -2.5t89 -13.5t95.5 -29t88.5 -52t76.5 -80t51 -116t20 -156q0 -59 -12 -114.5t-46.5 -115t-88 -103t-144.5 -71.5t-209 -28h-633v1434h262zM436 664v-447h320q59 0 103.5 8.5t87.5 31t66 69.5t23 118q0 59 -19 101.5t-45.5 65t-67 35
t-71.5 15.5t-71 3h-326z" />
    <glyph glyph-name="afii10047" unicode="&#x42d;" horiz-adv-x="1531" 
d="M530 844h627q-3 58 -17.5 113.5t-46.5 111.5t-78.5 97.5t-118.5 67.5t-161 26q-162 0 -253 -68.5t-109 -179.5h-260q4 53 18 102.5t41.5 104t74.5 99.5t111 81.5t158.5 57t210.5 20.5q156 0 279 -43t203.5 -115.5t133 -174.5t75 -213.5t22.5 -238.5q0 -180 -52 -320.5
t-147.5 -231t-227 -137t-292.5 -46.5q-136 0 -245 35.5t-176.5 90t-114.5 127.5t-67.5 141t-25.5 138h260q4 -60 29 -114.5t70 -100.5t118 -73t164 -27q92 0 166 30t119.5 76.5t77 109t45 120t16.5 117.5h-627v217z" />
    <glyph glyph-name="afii10048" unicode="&#x42e;" horiz-adv-x="2109" 
d="M436 860h185q8 82 30.5 160.5t74.5 164t126 148t194 103.5t269 41q30 0 57.5 -1.5t81 -9t99.5 -21t105.5 -41t107.5 -64.5t96.5 -96t81 -131.5t53 -174t20.5 -221.5t-20.5 -221.5t-53 -174t-81 -131.5t-96.5 -96t-107.5 -64.5t-105.5 -41t-99.5 -21t-81 -9t-57.5 -1.5
q-156 0 -279 44t-198 112t-126 162t-72 182.5t-26 185.5h-178v-643h-262v1434h262v-574zM1315 174q101 0 178.5 36t122.5 91t73.5 130.5t38 143.5t9.5 142t-9.5 142t-38 143.5t-73.5 130.5t-122.5 91t-178.5 36t-178.5 -36t-122.5 -91t-73.5 -130.5t-38 -143.5t-9.5 -142
t9.5 -142t38 -143.5t73.5 -130.5t122.5 -91t178.5 -36z" />
    <glyph glyph-name="afii10049" unicode="&#x42f;" horiz-adv-x="1474" 
d="M1038 535h-250l-344 -535h-331l405 563q-47 6 -91.5 18.5t-99.5 43t-95 74.5t-67.5 118t-27.5 168q0 89 22 160t55.5 117t85.5 80t99 51t109.5 27t104.5 12t96 2h591v-1434h-262v535zM1038 1217h-342q-24 0 -39.5 -0.5t-48.5 -5t-56.5 -13t-52.5 -26t-47 -42t-31 -63.5
t-13 -88q0 -227 307 -227h323v465z" />
    <glyph glyph-name="afii10065" unicode="&#x430;" horiz-adv-x="1181" 
d="M336 719h-234q-2 73 25 137t82.5 115t150.5 80.5t218 29.5q87 0 157 -14.5t116 -36.5t79.5 -55.5t51.5 -64.5t28.5 -70.5t13 -67t2.5 -59.5v-416q0 -82 14.5 -106.5t75.5 -20.5v-170q-63 -6 -108 -6q-179 0 -203 135q-121 -154 -346 -154q-102 0 -177.5 24t-113.5 56
t-60.5 78t-27 77t-4.5 66q0 61 21 111.5t49.5 81t64.5 53.5t60.5 32t43.5 13q36 10 74.5 16.5t88 12t79.5 10.5q16 3 49.5 7.5t50.5 7.5q71 8 89 19q34 21 34 93q0 180 -202 180q-126 0 -186.5 -56.5t-55.5 -137.5zM780 463v37q-40 -27 -176 -43q-34 -5 -49 -7t-43.5 -6.5
t-41.5 -8t-34.5 -10t-32 -13t-25 -15.5t-21.5 -20t-14.5 -24.5t-10 -30.5t-2.5 -37q0 -64 40 -103t122 -39q41 0 77.5 7t76.5 28t68.5 55t47 93t18.5 137z" />
    <glyph glyph-name="afii10066" unicode="&#x431;" horiz-adv-x="1298" 
d="M909 1513h201q-3 -50 -17 -89.5t-32.5 -66.5t-49.5 -48t-57 -33t-67 -20.5t-68 -12.5t-71 -8q-43 -5 -67.5 -8.5t-69 -12.5t-72.5 -19t-67.5 -28.5t-64.5 -40.5t-52.5 -55.5t-42 -73.5t-23.5 -94t-6 -117h4q48 131 164.5 205t257.5 74q105 0 196 -37.5t159 -106.5
t107 -174.5t39 -234.5q0 -86 -19 -165t-62 -150t-105.5 -123.5t-154.5 -83.5t-205 -31q-87 0 -161 17.5t-126.5 45.5t-94.5 70.5t-68.5 83t-46 93.5t-29 92.5t-14.5 88.5t-6 73.5t-1 54.5q0 377 78 571q64 147 189.5 209t377.5 88q76 6 106.5 19.5t40.5 47.5zM379 512
q0 -83 14.5 -149t39.5 -106t53.5 -67.5t63 -40.5t61 -17.5t53.5 -4.5q34 0 65.5 6t73.5 29.5t72 63t51.5 113.5t21.5 173t-21.5 173t-51.5 113.5t-72 63t-73.5 29.5t-65.5 6q-27 0 -53.5 -4.5t-61 -17.5t-63 -40.5t-53.5 -67.5t-39.5 -106t-14.5 -149z" />
    <glyph glyph-name="afii10067" unicode="&#x432;" horiz-adv-x="1175" 
d="M147 1040h562q166 0 252 -60.5t86 -191.5q0 -56 -19 -101.5t-50 -73t-64 -43.5t-68 -23v-4q237 -51 237 -269q0 -76 -30.5 -131t-85.5 -85.5t-119.5 -44t-142.5 -13.5h-558v1040zM393 872v-249h211q105 0 148 39t43 92q0 118 -164 118h-238zM393 455v-287h234
q202 0 202 137q0 150 -211 150h-225z" />
    <glyph glyph-name="afii10068" unicode="&#x433;" horiz-adv-x="929" 
d="M393 872v-872h-246v1040h758v-168h-512z" />
    <glyph glyph-name="afii10069" unicode="&#x434;" horiz-adv-x="1310" 
d="M0 168h143q58 88 94.5 188t50.5 201.5t17.5 161t3.5 139.5v182h813v-872h181l-21 -438h-205v270h-852v-270h-205zM877 872h-338v-127q0 -176 -29.5 -295t-106.5 -282h474v704z" />
    <glyph glyph-name="afii10070" unicode="&#x435;" horiz-adv-x="1216" 
d="M879 301h233q-9 -47 -25.5 -88t-53.5 -90t-88.5 -83.5t-136.5 -57.5t-192 -23q-23 0 -45.5 1t-62.5 7t-75.5 16t-79 30t-79.5 47t-71.5 68.5t-60 93.5t-39.5 124t-15 156q0 271 134 425t396 154q93 0 169 -21t127 -54.5t90 -83t60.5 -97.5t35.5 -108t19 -104.5t7 -96.5
q0 -12 1 -30t1 -29h-778q0 -43 8.5 -86t29.5 -87.5t52.5 -78.5t82.5 -56t114 -22q89 0 160 46t82 128zM350 625h518q0 33 -5 66.5t-21 75t-41.5 72.5t-72 52.5t-107.5 21.5q-68 0 -122.5 -26t-87 -68t-48 -92t-13.5 -102z" />
    <glyph glyph-name="afii10072" unicode="&#x436;" horiz-adv-x="1548" 
d="M651 0v496l-356 -496h-303l454 549l-432 491h289l348 -456v456h246v-456l348 456h289l-432 -491l454 -549h-303l-356 496v-496h-246z" />
    <glyph glyph-name="afii10073" unicode="&#x437;" horiz-adv-x="1126" 
d="M66 326h233q0 -32 10 -63t34.5 -63.5t76.5 -52.5t125 -20q59 0 103.5 11.5t69.5 29t40.5 41.5t20.5 44.5t5 43.5q0 145 -206 145h-140v168h113q100 0 142 43.5t42 104.5q0 66 -48.5 110.5t-151.5 44.5q-25 0 -47 -3t-51.5 -14t-51 -30t-37.5 -55t-18 -84h-234q2 50 13 94
t41.5 93.5t78 84.5t130 58.5t190.5 23.5q118 0 206.5 -26.5t138.5 -72t74.5 -100t24.5 -118.5q0 -97 -51 -152.5t-125 -68.5v-4q118 -23 169.5 -85.5t51.5 -148.5q0 -51 -11.5 -96t-45 -92.5t-86.5 -81t-143.5 -55t-208.5 -21.5q-85 0 -155 14t-118 36t-85 54t-58 64t-35 70
t-19.5 67.5t-6.5 61.5z" />
    <glyph glyph-name="afii10074" unicode="&#x438;" horiz-adv-x="1298" 
d="M393 291l488 749h270v-1040h-246v750l-487 -750h-271v1040h246v-749z" />
    <glyph glyph-name="afii10075" unicode="&#x439;" horiz-adv-x="1298" 
d="M393 291l488 749h270v-1040h-246v750l-487 -750h-271v1040h246v-749zM246 1434h209q4 -70 58.5 -110t135.5 -40t136 40t59 110h209q-69 -293 -404 -293q-85 0 -153 20t-110 49.5t-73 71t-45 77.5t-22 75z" />
    <glyph glyph-name="afii10076" unicode="&#x43a;" horiz-adv-x="1085" 
d="M393 606l395 434h283l-463 -485l486 -555h-283l-418 504v-504h-246v1040h246v-434z" />
    <glyph glyph-name="afii10077" unicode="&#x43b;" horiz-adv-x="1210" 
d="M27 0v168q58 -11 100.5 1.5t68 40t41 75.5t21.5 96.5t8 114.5v204v340h797v-1040h-246v872h-321v-194q0 -137 -5 -221.5t-30.5 -196t-72.5 -168.5t-138.5 -87.5t-222.5 -4.5z" />
    <glyph glyph-name="afii10078" unicode="&#x43c;" horiz-adv-x="1593" 
d="M709 0l-316 768h-4l4 -55v-713h-246v1040h336l314 -778l313 778h336v-1040h-246v713l4 55h-4l-315 -768h-176z" />
    <glyph glyph-name="afii10079" unicode="&#x43d;" horiz-adv-x="1236" 
d="M393 463v-463h-246v1040h246v-409h451v409h246v-1040h-246v463h-451z" />
    <glyph glyph-name="afii10080" unicode="&#x43e;" horiz-adv-x="1249" 
d="M625 1081q126 0 224.5 -40t155.5 -99.5t94 -138.5t49.5 -147.5t12.5 -135.5t-12.5 -135.5t-49.5 -147.5t-94 -138.5t-155.5 -99.5t-224.5 -40q-91 0 -168.5 21t-131.5 55t-96.5 81.5t-68.5 98t-42.5 106.5t-23 104t-6.5 95q0 46 6.5 94t23 104t42.5 106.5t68.5 98
t96.5 82t131.5 55.5t168.5 21zM625 913q-33 0 -63 -6t-71 -30t-70 -64t-50 -116t-21 -177t21 -177t50 -116t70 -64t71 -30t63 -6q26 0 51 5t58.5 17.5t61 40.5t51.5 69.5t38 108.5t14 152t-14 152t-38 108.5t-51.5 69.5t-61 40.5t-58.5 17.5t-51 5z" />
    <glyph glyph-name="afii10081" unicode="&#x43f;" horiz-adv-x="1253" 
d="M393 872v-872h-246v1040h959v-1040h-246v872h-467z" />
    <glyph glyph-name="afii10082" unicode="&#x440;" horiz-adv-x="1302" 
d="M147 1040h226v-102h4q114 143 336 143q74 0 143.5 -18.5t135.5 -61t114.5 -105.5t78 -158t29.5 -212q0 -51 -5.5 -101t-20.5 -107.5t-38.5 -107.5t-62.5 -97t-89 -80.5t-121 -53.5t-156 -20q-18 0 -37.5 1t-65.5 9t-83 21.5t-78 44t-64 71.5v-485h-246v1419zM375 518
q0 -181 71.5 -286t204.5 -105q38 0 73.5 7.5t79 32.5t74.5 65t52.5 112.5t21.5 167.5q0 206 -82.5 303.5t-207.5 97.5q-37 0 -72 -8t-75.5 -34t-70 -67.5t-49.5 -115t-20 -170.5z" />
    <glyph glyph-name="afii10083" unicode="&#x441;" horiz-adv-x="1175" 
d="M868 381h234q-5 -52 -20 -103t-51 -111t-87.5 -104t-138 -74t-195.5 -30q-257 0 -389.5 151t-132.5 408q0 110 22 198.5t55.5 146t82.5 100t94 64.5t99.5 35t89 16t71.5 3q115 0 208 -32t152 -86.5t93 -122.5t43 -146h-234q-8 89 -71.5 154t-176.5 65q-74 0 -127 -31
t-82.5 -87.5t-43 -124.5t-13.5 -152q0 -94 18.5 -165.5t46.5 -113.5t67 -68t74.5 -35t74.5 -9q64 0 112 25.5t73 66.5t37 81t15 81z" />
    <glyph glyph-name="afii10084" unicode="&#x442;" horiz-adv-x="1011" 
d="M383 872h-356v168h958v-168h-356v-872h-246v872z" />
    <glyph glyph-name="afii10085" unicode="&#x443;" horiz-adv-x="1107" 
d="M215 -375v168q50 -12 94 -12q69 0 102.5 37.5t61.5 134.5l14 49l-473 1038h295l314 -774l239 774h246l-397 -1130q-34 -97 -54 -133q-90 -164 -288 -164q-81 0 -154 12z" />
    <glyph glyph-name="afii10086" unicode="&#x444;" horiz-adv-x="1732" 
d="M743 -379v354q-70 1 -130.5 7.5t-129 22.5t-123.5 41.5t-107 67.5t-87.5 97t-56.5 134t-21 175q0 98 23.5 179t63 137t94.5 98.5t113 67.5t124 40.5t123 20t114 2.5v369h246v-369q83 3 163.5 -7.5t172.5 -46t160.5 -93.5t114 -160.5t45.5 -237.5q0 -96 -21.5 -175
t-57 -134t-88 -97t-108 -67.5t-124 -41.5t-128.5 -22.5t-129 -7.5v-354h-246zM743 141v756q-393 0 -393 -377q0 -86 21.5 -153t58 -109t88 -69t106.5 -37.5t119 -10.5zM989 897v-756q64 0 119 10.5t106.5 37.5t88 69t58 109t21.5 153q0 377 -393 377z" />
    <glyph glyph-name="afii10087" unicode="&#x445;" horiz-adv-x="1067" 
d="M535 690l241 350h268l-374 -497l397 -543h-262l-270 387l-271 -387h-264l397 543l-372 497h268z" />
    <glyph glyph-name="afii10088" unicode="&#x446;" horiz-adv-x="1294" 
d="M393 168h467v872h246v-872h180l-20 -438h-205v270h-914v1040h246v-872z" />
    <glyph glyph-name="afii10089" unicode="&#x447;" horiz-adv-x="1110" 
d="M90 1040h246v-286v-33t2 -29.5t5.5 -28t11 -23.5t18 -22t27 -16.5t38 -13.5t50.5 -7t65 -3q14 0 60.5 1.5t103.5 2.5v458h246v-1040h-246v414q-6 0 -42 -1t-61 -1q-22 0 -67 -1t-64 -1q-77 0 -137 8t-101 21.5t-70 36t-45.5 45t-25.5 56t-11.5 62t-2.5 68.5v333z" />
    <glyph glyph-name="afii10090" unicode="&#x448;" horiz-adv-x="1810" 
d="M393 168h389v872h246v-872h389v872h246v-1040h-1516v1040h246v-872z" />
    <glyph glyph-name="afii10091" unicode="&#x449;" horiz-adv-x="1851" 
d="M393 168h389v872h246v-872h389v872h246v-872h180l-20 -438h-205v270h-1471v1040h246v-872z" />
    <glyph glyph-name="afii10092" unicode="&#x44a;" horiz-adv-x="1280" 
d="M29 872v168h526v-401h240q45 0 77 -1.5t80.5 -8t83 -19t73 -36.5t62.5 -57t40 -84.5t16 -115.5q0 -317 -375 -317h-543v872h-280zM555 471v-303h238q79 0 129.5 37.5t50.5 118.5q0 147 -180 147h-238z" />
    <glyph glyph-name="afii10093" unicode="&#x44b;" horiz-adv-x="1581" 
d="M147 1040h246v-401h240q45 0 77 -1.5t80.5 -8t83 -19t73 -36.5t62.5 -57t40 -84.5t16 -115.5q0 -317 -375 -317h-543v1040zM393 471v-303h238q79 0 129.5 37.5t50.5 118.5q0 147 -180 147h-238zM1188 1040h246v-1040h-246v1040z" />
    <glyph glyph-name="afii10094" unicode="&#x44c;" horiz-adv-x="1112" 
d="M147 1040h246v-401h240q45 0 77 -1.5t80.5 -8t83 -19t73 -36.5t62.5 -57t40 -84.5t16 -115.5q0 -317 -375 -317h-543v1040zM393 471v-303h238q79 0 129.5 37.5t50.5 118.5q0 147 -180 147h-238z" />
    <glyph glyph-name="afii10095" unicode="&#x44d;" horiz-adv-x="1204" 
d="M451 451v167h403q-2 54 -20 105t-50 94.5t-85 69.5t-119 26q-109 0 -183 -52t-84 -146h-233q20 173 159.5 269.5t350.5 96.5q37 0 72 -3t90 -16t101.5 -35t97 -64.5t85 -100t57.5 -146.5t23 -198q0 -31 -1.5 -59.5t-13 -88.5t-31 -109.5t-60.5 -108t-97 -99t-145.5 -67.5
t-200.5 -27q-101 0 -183.5 24t-136.5 62.5t-92 91t-56 105.5t-23 110h233q5 -94 72.5 -159.5t181.5 -65.5q62 0 112 22t82 56t54 78.5t31.5 85.5t11.5 82h-403z" />
    <glyph glyph-name="afii10096" unicode="&#x44e;" horiz-adv-x="1695" 
d="M393 633h154q6 90 44.5 170.5t103.5 142.5t162.5 98.5t213.5 36.5q91 0 168.5 -21t131.5 -55.5t96.5 -82t68.5 -98t42.5 -106.5t23 -104t6.5 -94t-6.5 -94t-23 -104t-42.5 -106.5t-68.5 -98t-96.5 -82t-131.5 -55.5t-168.5 -21q-106 0 -195 29.5t-149 78.5t-102 114.5
t-62 137t-22 146.5h-148v-465h-246v1040h246v-407zM797 520q0 -85 14 -152t38 -108.5t51.5 -69.5t61 -40.5t58.5 -17.5t51 -5q33 0 63 6t71 30t70 64t50 116t21 177t-21 177t-50 116t-70 64t-71 30t-63 6q-26 0 -51 -5t-58.5 -17.5t-61 -40.5t-51.5 -69.5t-38 -108.5
t-14 -152z" />
    <glyph glyph-name="afii10097" unicode="&#x44f;" horiz-adv-x="1181" 
d="M629 387l-283 -387h-270l307 389q-36 3 -70 12.5t-74.5 32t-70.5 55t-50 86.5t-20 123q0 54 11 100.5t28 79t43 59t51 43t57 29t56 18t53 9t43 4t31 0.5h563v-1040h-246v387h-159zM788 872h-217q-114 0 -166.5 -36.5t-52.5 -126.5q0 -80 51.5 -117t167.5 -37h217v317z
" />
    <glyph glyph-name="afii10071" unicode="&#x451;" horiz-adv-x="1216" 
d="M879 301h233q-9 -47 -25.5 -88t-53.5 -90t-88.5 -83.5t-136.5 -57.5t-192 -23q-23 0 -45.5 1t-62.5 7t-75.5 16t-79 30t-79.5 47t-71.5 68.5t-60 93.5t-39.5 124t-15 156q0 271 134 425t396 154q251 0 378.5 -146.5t131.5 -477.5h-778q0 -43 8.5 -86t29.5 -87.5
t52.5 -78.5t82.5 -56t114 -22q89 0 160 46t82 128zM350 625h518q0 33 -5 66.5t-21 75t-41.5 72.5t-72 52.5t-107.5 21.5q-68 0 -122.5 -26t-87 -68t-48 -92t-13.5 -102zM324 1217v217h237v-217h-237zM713 1217v217h237v-217h-237z" />
    <glyph glyph-name="afii10099" unicode="&#x452;" horiz-adv-x="1273" 
d="M164 1434h246v-125h419v-140h-419v-266q51 86 147.5 132t194.5 46q97 0 167.5 -32t114 -86.5t69.5 -140t35 -178.5t9 -216q0 -118 -6 -210.5t-21 -178.5t-40.5 -149t-64.5 -116t-92 -85.5t-124 -50t-160 -17.5v178h29q149 0 194 196q24 107 23 354v75v42q0 79 -1 118.5
t-6.5 102.5t-19 94.5t-36.5 67t-61 50t-91 14.5q-18 0 -36 -2.5t-45 -10.5t-50 -21.5t-47.5 -39t-42 -59t-28.5 -85t-11 -113.5v-582h-246v1169h-164v140h164v125z" />
    <glyph glyph-name="afii10100" unicode="&#x453;" horiz-adv-x="929" 
d="M393 872v-872h-246v1040h758v-168h-512zM457 1434h266l-225 -271h-185z" />
    <glyph glyph-name="afii10101" unicode="&#x454;" horiz-adv-x="1204" 
d="M754 618v-167h-404q2 -41 11 -82t30 -86t52 -78.5t81 -55.5t113 -22q118 0 184 65t74 160h233q-6 -75 -38 -142.5t-90.5 -125t-155 -91.5t-219.5 -34q-248 0 -392.5 141.5t-144.5 417.5q0 109 23.5 198t60 146.5t89 100t101 64.5t106 35t93.5 16t74 3q202 0 335.5 -96.5
t153.5 -269.5h-233q-10 94 -83.5 146t-182.5 52q-68 0 -121 -26t-85 -69.5t-49.5 -94t-19.5 -105.5h404z" />
    <glyph glyph-name="afii10102" unicode="&#x455;" horiz-adv-x="1105" 
d="M74 317h245q0 -50 22 -88t58.5 -59.5t78 -32t85.5 -10.5q38 0 71.5 7t67 24t53 52t19.5 85q0 66 -42.5 97t-149.5 50l-113 19q-178 31 -259 99t-81 208q0 78 32 137.5t78 91.5t108.5 52t113 26t102.5 6q432 0 443 -317h-232q-6 70 -59.5 109.5t-143.5 39.5
q-188 0 -188 -129q0 -35 15.5 -62t32 -41.5t58 -27.5t63 -17.5t76.5 -13.5q5 -1 8 -1.5t7 -1t8 -1.5q134 -24 179 -38q160 -52 193 -188q9 -39 9 -83q0 -74 -25.5 -133.5t-68.5 -99.5t-103 -66.5t-125.5 -38.5t-138.5 -12q-112 0 -199.5 22.5t-141 58t-89 84.5t-50 95.5
t-17.5 97.5z" />
    <glyph glyph-name="afii10103" unicode="&#x456;" horiz-adv-x="540" 
d="M147 1040h246v-1040h-246v1040zM147 1217v217h246v-217h-246z" />
    <glyph glyph-name="afii10104" unicode="&#x457;" horiz-adv-x="634" 
d="M195 1040h245v-1040h-245v1040zM41 1217v217h225v-217h-225zM369 1217v217h225v-217h-225z" />
    <glyph glyph-name="afii10105" unicode="&#x458;" horiz-adv-x="540" 
d="M147 1040h246v-1095q0 -61 -5 -104.5t-23 -89.5t-48.5 -74t-85.5 -46t-131 -18q-84 0 -139 8v168q102 2 144 38t42 132v1081zM147 1217v217h246v-217h-246z" />
    <glyph glyph-name="afii10106" unicode="&#x459;" horiz-adv-x="1781" 
d="M27 0v168q28 -4 41 -4q49 0 83.5 13t56 50t33.5 70t17.5 109t6.5 127t1 162v5v340h797v-401h256q40 0 70 -1.5t76 -8t80 -19t72 -36.5t62 -57t40 -84.5t16 -115.5q0 -317 -375 -317h-543v872h-321v-194q0 -100 -1.5 -156.5t-9 -140t-22.5 -131t-43.5 -103.5t-70 -85.5
t-104 -49.5t-143.5 -20q-42 0 -75 8zM1063 471v-303h237q79 0 130 37.5t51 118.5q0 147 -181 147h-237z" />
    <glyph glyph-name="afii10107" unicode="&#x45a;" horiz-adv-x="1808" 
d="M393 463v-463h-246v1040h246v-409h451v409h246v-401h256q40 0 70 -1.5t76 -8t79.5 -19t71.5 -36.5t62 -57t40 -84.5t16 -115.5q0 -317 -375 -317h-542v463h-451zM1090 471v-303h237q77 0 128.5 38t51.5 118q0 147 -180 147h-237z" />
    <glyph glyph-name="afii10108" unicode="&#x45b;" horiz-adv-x="1257" 
d="M164 1434h246v-125h419v-140h-419v-266q51 86 147.5 132t194.5 46q73 0 131 -18t95 -44.5t63.5 -66t39.5 -72.5t20 -75t8 -63t1 -46v-696h-246v618q0 36 -0.5 56.5t-4 56t-11 57t-21.5 48t-34 41.5t-51.5 25.5t-71.5 10.5q-18 0 -36 -2.5t-45 -10.5t-50 -21.5t-47.5 -39
t-42 -59t-28.5 -85t-11 -113.5v-582h-246v1169h-164v140h164v125z" />
    <glyph glyph-name="afii10109" unicode="&#x45c;" horiz-adv-x="1085" 
d="M393 606l395 434h283l-463 -485l486 -555h-283l-418 504v-504h-246v1040h246v-434zM535 1434h266l-226 -271h-184z" />
    <glyph glyph-name="afii10110" unicode="&#x45e;" horiz-adv-x="1107" 
d="M150 1434h208q4 -70 59 -110t136 -40t136 40t59 110h208q-69 -293 -403 -293q-85 0 -153 20t-110 49.5t-73 71t-45 77.5t-22 75zM215 -375v168q50 -12 94 -12q69 0 102.5 37.5t61.5 134.5l14 49l-473 1038h295l314 -774l239 774h246l-397 -1130q-34 -97 -54 -133
q-90 -164 -288 -164q-81 0 -154 12z" />
    <glyph glyph-name="afii10193" unicode="&#x45f;" horiz-adv-x="1257" 
d="M864 168v872h246v-1040h-373v-379h-217v379h-373v1040h246v-872h471z" />
    <glyph glyph-name="afii10146" unicode="&#x462;" horiz-adv-x="1523" 
d="M588 1434v-136h450v-217h-450v-200h373q41 0 77.5 -2.5t89 -13.5t95.5 -29t88 -52t76 -80t51 -116t20 -156q0 -59 -12 -114.5t-46.5 -115t-88 -103t-144.5 -71.5t-209 -28h-632v1081h-301v217h301v136h262zM588 664v-447h319q46 0 82.5 4.5t75 19t64.5 38.5t42.5 66
t16.5 99q0 59 -18.5 101.5t-44.5 65t-66.5 35t-72 15.5t-73.5 3h-325z" />
    <glyph glyph-name="afii10194" unicode="&#x463;" horiz-adv-x="1269" 
d="M27 872v168h278v394h246v-394h403v-168h-403v-233h240q45 0 77 -1.5t80.5 -8t83 -19t73 -36.5t62.5 -57t40 -84.5t16 -115.5q0 -317 -375 -317h-543v872h-278zM551 471v-303h237q79 0 130 37.5t51 118.5q0 147 -181 147h-237z" />
    <glyph glyph-name="afii10147" unicode="&#x472;" horiz-adv-x="1589" 
d="M795 1477q30 0 57.5 -1.5t81 -9t99.5 -21t105.5 -41t107.5 -64.5t96.5 -96t81 -131.5t53 -174t20.5 -221.5t-20.5 -221.5t-53 -174t-81 -131.5t-96.5 -96t-107.5 -64.5t-105.5 -41t-99.5 -21t-81 -9t-57.5 -1.5t-57.5 1.5t-81 9t-100 21t-105.5 41t-107.5 64.5t-96.5 96
t-81 131.5t-53.5 174t-20.5 221.5t20.5 221.5t53.5 174t81 131.5t96.5 96t107.5 64.5t105.5 41t100 21t81 9t57.5 1.5zM795 1260q-91 0 -163 -29t-116 -73.5t-74.5 -106t-44 -117t-18.5 -115.5h831q-4 49 -14.5 95.5t-29.5 98.5t-51 94.5t-75 78t-106 55t-139 19.5zM795 174
q65 0 121 15.5t97 40.5t73.5 60.5t54 74t36.5 81.5t22 80.5t9 75.5h-827q3 -54 16 -108t43.5 -113t75 -104t117 -74t162.5 -29z" />
    <glyph glyph-name="afii10195" unicode="&#x473;" horiz-adv-x="1249" 
d="M625 1081q126 0 224.5 -40t155.5 -99.5t94 -138.5t49.5 -147.5t12.5 -135.5t-12.5 -135.5t-49.5 -147.5t-94 -138.5t-155.5 -99.5t-224.5 -40q-91 0 -168.5 21t-131.5 55t-96.5 81.5t-68.5 98t-42.5 106.5t-23 104t-6.5 95q0 46 6.5 94t23 104t42.5 106.5t68.5 98
t96.5 82t131.5 55.5t168.5 21zM625 913q-58 0 -105 -21.5t-76.5 -53.5t-50 -74.5t-29 -80t-10.5 -73.5h541q-3 38 -11.5 74t-28.5 79t-48 75t-75.5 53.5t-106.5 21.5zM625 127q62 0 111.5 24.5t77.5 60t47.5 81.5t26.5 81t9 68h-545q2 -33 9.5 -68t26.5 -81t47.5 -81.5
t78 -60t111.5 -24.5z" />
    <glyph glyph-name="afii10148" unicode="&#x474;" horiz-adv-x="1474" 
d="M637 272l209 775q42 158 76 223q73 143 226 177q51 11 114 11q92 0 186 -24v-217q-64 24 -139 24q-95 0 -140.5 -46.5t-83.5 -172.5l-299 -1022h-301l-493 1434h284z" />
    <glyph glyph-name="afii10196" unicode="&#x475;" horiz-adv-x="1159" 
d="M516 242l123 471q34 130 61 181q67 126 222 149q40 6 84 6q64 0 129 -9v-168q-49 9 -88 9q-33 0 -55.5 -5.5t-50 -23t-49.5 -58.5t-40 -106l-195 -688h-284l-381 1040h262z" />
    <glyph glyph-name="afii10050" unicode="&#x490;" horiz-adv-x="1138" 
d="M436 1217v-1217h-262v1434h696v323h230l12 -540h-676z" />
    <glyph glyph-name="afii10098" unicode="&#x491;" horiz-adv-x="929" 
d="M393 872v-872h-246v1040h533v271h205l20 -439h-512z" />
    <glyph glyph-name="uni0492" unicode="&#x492;" horiz-adv-x="1146" 
d="M444 823h420v-184h-420v-639h-262v639h-182v184h182v611h938v-217h-676v-394z" />
    <glyph glyph-name="uni0493" unicode="&#x493;" horiz-adv-x="929" 
d="M393 872v-239h246v-139h-246v-494h-246v494h-167v139h167v407h758v-168h-512z" />
    <glyph glyph-name="uni0494" unicode="&#x494;" horiz-adv-x="1269" 
d="M436 1217v-402q138 14 242 14q38 0 70.5 -2.5t86.5 -16t97 -36t91 -68.5t80 -108t53.5 -159t21.5 -218q0 -112 -18.5 -204.5t-49.5 -156t-74.5 -112.5t-89.5 -77.5t-100 -46.5t-100 -24t-95 -6q-113 0 -219 27v217q71 -26 197 -26q34 0 63 5.5t61 20t56.5 43t45 71
t31.5 108.5t11 151q0 79 -8.5 141.5t-22 104t-35.5 71.5t-43.5 46t-52 25t-54 11t-56.5 2q-79 0 -189 -14v-598h-262v1434h938v-217h-676z" />
    <glyph glyph-name="uni0495" unicode="&#x495;" horiz-adv-x="983" 
d="M393 872v-237h66q88 0 159 -17.5t118 -44.5t81 -68.5t52.5 -81t29.5 -91.5t13.5 -91t2.5 -87q0 -58 -4 -105.5t-17 -105.5t-34.5 -102.5t-60.5 -88.5t-91.5 -72t-130.5 -44.5t-174 -14.5v178h39q47 0 82 13.5t66 49t47 105.5t16 174q0 60 -3 101t-14 87t-31 73.5t-57 46
t-89 18.5h-66v-467h-246v1040h756v-168h-510z" />
    <glyph glyph-name="uni0496" unicode="&#x496;" horiz-adv-x="2039" 
d="M858 0v686l-551 -686h-315l633 770l-594 664h315l512 -607v607h262v-607l512 607h316l-594 -664l454 -553h205l-12 -541h-229v324h-103l-549 686v-686h-262z" />
    <glyph glyph-name="uni0497" unicode="&#x497;" horiz-adv-x="1595" 
d="M651 0v496l-356 -496h-303l454 549l-432 491h289l348 -456v456h246v-456l348 456h289l-432 -491l315 -381h170l-20 -438h-205v270h-109l-356 496v-496h-246z" />
    <glyph glyph-name="uni0498" unicode="&#x498;" horiz-adv-x="1427" 
d="M92 489h260q0 -40 8 -78t32 -82t63 -76.5t107 -54.5t157 -22q62 0 116.5 12.5t101 39t74 74.5t27.5 112q0 65 -21 110t-60.5 69.5t-88 35t-112.5 10.5h-197v217h170q252 0 252 188q0 216 -291 216q-89 0 -153 -21t-98.5 -57.5t-51 -78t-18.5 -91.5h-260q2 110 36 193
t89 134t134.5 82.5t162 43.5t182.5 12q47 0 92 -3.5t100.5 -15t102.5 -29.5t93 -49.5t78 -73t52 -102t20 -133.5q0 -132 -69.5 -217t-169.5 -98v-4q59 -9 111.5 -36t94.5 -71t66.5 -110.5t24.5 -147.5q0 -46 -9 -92t-39.5 -105t-80 -104.5t-140 -81.5t-209.5 -45v-340h-245
v340q-106 3 -192 38t-140 89t-91 124.5t-53 139t-18 139.5z" />
    <glyph glyph-name="uni0499" unicode="&#x499;" horiz-adv-x="1126" 
d="M66 326h233q0 -32 10 -63t34.5 -63.5t76.5 -52.5t125 -20q59 0 103.5 11.5t69.5 29t40.5 41.5t20.5 44.5t5 43.5q0 145 -206 145h-140v168h113q100 0 142 43.5t42 104.5q0 66 -48.5 110.5t-151.5 44.5q-25 0 -47 -3t-51.5 -14t-51 -30t-37.5 -55t-18 -84h-234q2 50 13 94
t41.5 93.5t78 84.5t130 58.5t190.5 23.5q118 0 206.5 -26.5t138.5 -72t74.5 -100t24.5 -118.5q0 -97 -51 -152.5t-125 -68.5v-4q118 -23 169.5 -85.5t51.5 -148.5q0 -44 -10.5 -87t-37.5 -87t-67 -78.5t-105.5 -60t-147.5 -33.5v-338h-217v338q-174 12 -278 113.5
t-109 253.5z" />
    <glyph glyph-name="uni049A" unicode="&#x49a;" horiz-adv-x="1413" 
d="M436 788l576 646h311l-635 -662l494 -555h204l-12 -541h-229v324h-103l-606 743v-743h-262v1434h262v-646z" />
    <glyph glyph-name="uni049B" unicode="&#x49b;" horiz-adv-x="1163" 
d="M393 606l395 434h283l-463 -485l297 -338h250l-16 -541h-226v324h-102l-418 504v-504h-246v1040h246v-434z" />
    <glyph glyph-name="uni049C" unicode="&#x49c;" horiz-adv-x="1351" 
d="M174 1434h262v-562h103v287h184v-287l315 562h262l-393 -662l451 -772h-291l-344 655v-327h-184v327h-103v-655h-262v1434z" />
    <glyph glyph-name="uni049D" unicode="&#x49d;" horiz-adv-x="1191" 
d="M147 1040h246v-401h103v246h139v-246l287 401h256l-381 -485l403 -555h-258l-307 471v-287h-139v287h-103v-471h-246v1040z" />
    <glyph glyph-name="uni04A0" unicode="&#x4a0;" horiz-adv-x="1683" 
d="M752 788l575 646h311l-634 -662l688 -772h-332l-608 743v-743h-263v1217h-462v217h725v-646z" />
    <glyph glyph-name="uni04A1" unicode="&#x4a1;" horiz-adv-x="1245" 
d="M553 606l395 434h283l-463 -485l485 -555h-282l-418 504v-504h-246v872h-282v168h528v-434z" />
    <glyph glyph-name="uni04A2" unicode="&#x4a2;" horiz-adv-x="1560" 
d="M436 643v-643h-262v1434h262v-574h639v574h262v-1217h197l-12 -541h-230v324h-217v643h-639z" />
    <glyph glyph-name="uni04A3" unicode="&#x4a3;" horiz-adv-x="1277" 
d="M393 463v-463h-246v1040h246v-409h451v409h246v-872h180l-21 -438h-205v270h-200v463h-451z" />
    <glyph glyph-name="uni04A4" unicode="&#x4a4;" horiz-adv-x="2039" 
d="M436 643v-643h-262v1434h262v-574h639v574h938v-217h-676v-1217h-262v643h-639z" />
    <glyph glyph-name="uni04A5" unicode="&#x4a5;" horiz-adv-x="1626" 
d="M393 463v-463h-246v1040h246v-409h451v409h758v-168h-512v-872h-246v463h-451z" />
    <glyph glyph-name="uni04AA" unicode="&#x4aa;" horiz-adv-x="1501" 
d="M1163 489h260q-11 -119 -51.5 -213t-93 -149.5t-120.5 -93.5t-123.5 -53t-112.5 -21v-338h-246v338q-50 6 -98.5 18.5t-108.5 39t-111 62.5t-101.5 93.5t-86 129t-57 172t-21.5 218.5q0 172 38.5 308t103.5 224t155.5 146t189 82.5t209.5 24.5q141 0 251 -33.5t175.5 -85
t108.5 -121.5t60 -134t20 -132h-260q-7 51 -25.5 96.5t-56.5 91.5t-108 73.5t-165 27.5q-93 0 -165.5 -30t-119 -80.5t-76 -123t-42 -152t-12.5 -172.5q0 -247 122 -386.5t320 -139.5q86 0 153.5 27.5t107.5 73.5t61.5 99.5t25.5 112.5z" />
    <glyph glyph-name="uni04AB" unicode="&#x4ab;" horiz-adv-x="1175" 
d="M868 381h234q-11 -89 -41.5 -160.5t-69 -117t-87.5 -77.5t-94 -47t-91 -20v-338h-217v338q-64 7 -122 29.5t-112 67t-93.5 106.5t-63 153.5t-23.5 202.5q0 110 22 198.5t56 146t83 100t94 64.5t99.5 35t88.5 16t71 3q115 0 208 -32t152 -86.5t93 -122.5t43 -146h-234
q-8 89 -71.5 154t-176.5 65q-74 0 -127 -31t-82.5 -87.5t-43 -124.5t-13.5 -152q0 -94 18.5 -165.5t46.5 -113.5t67 -68t74.5 -35t74.5 -9q64 0 112 25.5t73 66.5t37 81t15 81z" />
    <glyph glyph-name="uni04AE" unicode="&#x4ae;" horiz-adv-x="1298" 
d="M649 805l348 629h310l-527 -863v-571h-262v571l-526 863h309z" />
    <glyph glyph-name="uni04AF" unicode="&#x4af;" horiz-adv-x="1064" 
d="M410 -379v379l-396 1040h262l256 -774l256 774h263l-396 -1040v-379h-245z" />
    <glyph glyph-name="uni04B0" unicode="&#x4b0;" horiz-adv-x="1298" 
d="M518 0v287h-307v184h307v100l-526 863h309l348 -629l348 629h310l-527 -863v-100h307v-184h-307v-287h-262z" />
    <glyph glyph-name="uni04B1" unicode="&#x4b1;" horiz-adv-x="1064" 
d="M410 -379v178h-246v140h246v61l-396 1040h262l256 -774l256 774h263l-396 -1040v-61h246v-140h-246v-178h-245z" />
    <glyph glyph-name="uni04B2" unicode="&#x4b2;" horiz-adv-x="1417" 
d="M682 915l317 519h328l-481 -701l364 -516h181l-13 -541h-229v324h-123l-344 553l-344 -553h-338l518 733l-481 701h328z" />
    <glyph glyph-name="uni04B3" unicode="&#x4b3;" horiz-adv-x="1155" 
d="M535 690l241 350h268l-374 -497l239 -326h238l-17 -541h-225v324h-102l-268 387l-271 -387h-264l397 543l-372 497h268z" />
    <glyph glyph-name="uni04B6" unicode="&#x4b6;" horiz-adv-x="1427" 
d="M119 1434h262v-387q0 -28 0.5 -45t3.5 -40.5t9 -38t16.5 -32.5t25.5 -29t37.5 -23t52 -18t69 -10t87.5 -4q69 0 164 7l96 7v613h262v-1217h197l-12 -541h-230v324h-217v604q-187 -14 -293 -14q-97 0 -173 10t-145 37t-114 71t-71.5 114.5t-26.5 164.5v447z" />
    <glyph glyph-name="uni04B7" unicode="&#x4b7;" horiz-adv-x="1150" 
d="M90 1040h246v-286v-33t2 -29.5t5.5 -28t11 -23.5t18 -22t27 -16.5t38 -13.5t50.5 -7t65 -3q14 0 60.5 1.5t103.5 2.5v458h246v-872h180l-21 -438h-204v270h-201v414q-6 0 -42 -1t-61 -1q-22 0 -67 -1t-64 -1q-77 0 -137 8t-101 21.5t-70 36t-45.5 45t-25.5 56t-11.5 62
t-2.5 68.5v333z" />
    <glyph glyph-name="uni04B8" unicode="&#x4b8;" horiz-adv-x="1413" 
d="M119 1434h262v-387q0 -24 0.5 -39.5t5 -43t12 -46t23 -41t37.5 -36t56.5 -23t78.5 -9.5v285h184v-285q98 3 199 12v613h262v-1434h-262v604q-100 -9 -199 -12v-330h-184v330q-110 -2 -194.5 19.5t-136.5 57.5t-85.5 89t-46 108.5t-12.5 120.5v447z" />
    <glyph glyph-name="uni04B9" unicode="&#x4b9;" horiz-adv-x="1110" 
d="M90 1040h246v-286v-28.5t3 -30t8 -33t15.5 -29t25.5 -27t39.5 -18t55.5 -10.5v204h140v-204q18 2 49 2t45 2v458h246v-1040h-246v414q-18 -2 -49 -2t-45 -2v-246h-140v246h-30q-72 0 -128.5 10t-94 25t-64.5 40t-41.5 48t-22.5 56.5t-10 58t-2 59.5v333z" />
    <glyph glyph-name="uni04BA" unicode="&#x4ba;" horiz-adv-x="1380" 
d="M1233 0h-262v475q0 30 -0.5 45.5t-3 40.5t-8.5 38.5t-16.5 32.5t-26.5 29t-40 22t-55 18t-73.5 10t-94.5 4q-132 0 -243 -15v-700h-263v1434h263v-516q187 14 292 14q100 0 180.5 -12.5t135.5 -33t95 -52.5t62.5 -64.5t36 -75t17.5 -78.5t4 -81v-535z" />
    <glyph glyph-name="uni04BB" unicode="&#x4bb;" horiz-adv-x="1241" 
d="M147 1434h246v-531q51 86 147.5 132t194.5 46q73 0 131.5 -18t95 -44.5t63.5 -66t39.5 -72.5t20 -75t8.5 -63t1 -46v-696h-246v618q0 35 -0.5 56t-4.5 56.5t-11 57t-21.5 48t-34.5 41.5t-51.5 25.5t-71.5 10.5q-18 0 -36 -2.5t-45 -10.5t-50 -21.5t-47.5 -39t-42 -59
t-28.5 -85t-11 -113.5v-582h-246v1434z" />
    <glyph glyph-name="uni04C0" unicode="&#x4c0;" horiz-adv-x="610" 
d="M174 1434h262v-1434h-262v1434z" />
    <glyph glyph-name="uni04C1" unicode="&#x4c1;" horiz-adv-x="1978" 
d="M858 0v686l-551 -686h-315l633 770l-594 664h315l512 -607v607h262v-607l512 607h316l-594 -664l633 -770h-316l-551 686v-686h-262zM559 1808h211q7 -79 68 -122.5t151 -43.5t151 43.5t68 122.5h211q-26 -139 -136.5 -226t-293.5 -87t-293.5 87t-136.5 226z" />
    <glyph glyph-name="uni04C2" unicode="&#x4c2;" horiz-adv-x="1548" 
d="M651 0v496l-356 -496h-303l454 549l-432 491h289l348 -456v456h246v-456l348 456h289l-432 -491l454 -549h-303l-356 496v-496h-246zM371 1434h209q4 -70 58.5 -110t135.5 -40t136 40t59 110h209q-69 -293 -404 -293q-85 0 -153 20t-110 49.5t-73 71t-45 77.5t-22 75z
" />
    <glyph glyph-name="uni04C3" unicode="&#x4c3;" horiz-adv-x="1449" 
d="M436 788l576 646h311l-635 -662l539 -604q35 0 71 -6.5t80 -25.5t76.5 -49.5t55 -84t22.5 -123.5q0 -63 -13.5 -115t-39 -87t-54 -61.5t-66.5 -42t-67.5 -25.5t-65.5 -13.5t-53 -4.5t-38 -1v168q30 0 57.5 6.5t57 22.5t47.5 50.5t18 82.5q0 141 -150 141h-123l-606 743
v-743h-262v1434h262v-646z" />
    <glyph glyph-name="uni04C4" unicode="&#x4c4;" horiz-adv-x="1150" 
d="M393 606l395 434h283l-463 -485l338 -387q35 -2 68.5 -10.5t70.5 -30t64 -52.5t45 -82t18 -116q0 -82 -25.5 -146t-64.5 -101t-90 -61t-95.5 -32t-88.5 -8v168q21 0 43 4.5t47.5 16t44.5 28.5t32 46.5t13 66.5q0 61 -36.5 101t-98.5 40h-82l-418 504v-504h-246v1040h246
v-434z" />
    <glyph glyph-name="uni04C7" unicode="&#x4c7;" horiz-adv-x="1560" 
d="M436 643v-643h-262v1434h262v-574h639v574h262v-1266q35 0 71 -6.5t80 -25.5t76.5 -49.5t55 -84t22.5 -123.5q0 -63 -13.5 -115t-39 -87t-54 -61.5t-66.5 -42t-67.5 -25.5t-65.5 -13.5t-53 -4.5t-38 -1v168q30 0 57.5 6.5t57 22.5t47.5 50.5t18 82.5q0 141 -149 141h-201
v643h-639z" />
    <glyph glyph-name="uni04C8" unicode="&#x4c8;" horiz-adv-x="1294" 
d="M393 463v-463h-246v1040h246v-409h451v409h246v-872q35 -2 68.5 -10.5t70.5 -30t64 -52.5t45 -82t18 -116q0 -82 -26 -146t-64.5 -101t-90 -61t-96 -32t-88.5 -8v168q21 0 43 4.5t47.5 16t44.5 28.5t32 46.5t13 66.5q0 61 -36.5 101t-98.5 40h-192v463h-451z" />
    <glyph glyph-name="uni04D0" unicode="&#x4d0;" horiz-adv-x="1327" 
d="M233 1808h211q7 -79 68.5 -122.5t151.5 -43.5t151 43.5t68 122.5h211q-26 -139 -136.5 -226t-293.5 -87t-294 87.5t-137 225.5zM377 301l-105 -301h-280l540 1434h263l540 -1434h-280l-105 301h-573zM446 518h435l-217 637z" />
    <glyph glyph-name="uni04D1" unicode="&#x4d1;" horiz-adv-x="1181" 
d="M186 1434h209q4 -70 59 -110t136 -40t135.5 40t58.5 110h209q-69 -293 -403 -293q-85 0 -153 20t-110.5 49.5t-73 71t-45 77.5t-22.5 75zM336 719h-234q-2 73 25 137t82.5 115t150.5 80.5t218 29.5q87 0 157 -14.5t116 -36.5t79.5 -55.5t51.5 -64.5t28.5 -70.5t13 -67
t2.5 -59.5v-416q0 -82 14.5 -106.5t75.5 -20.5v-170q-63 -6 -108 -6q-179 0 -203 135q-121 -154 -346 -154q-102 0 -177.5 24t-113.5 56t-60.5 78t-27 77t-4.5 66q0 61 21 111.5t49.5 81t64.5 53.5t60.5 32t43.5 13q36 10 74.5 16.5t88 12t79.5 10.5q16 3 49.5 7.5t50.5 7.5
q71 8 89 19q34 21 34 93q0 180 -202 180q-126 0 -186.5 -56.5t-55.5 -137.5zM780 463v37q-40 -27 -176 -43q-34 -5 -49 -7t-43.5 -6.5t-41.5 -8t-34.5 -10t-32 -13t-25 -15.5t-21.5 -20t-14.5 -24.5t-10 -30.5t-2.5 -37q0 -64 40 -103t122 -39q41 0 77.5 7t76.5 28t68.5 55
t47 93t18.5 137z" />
    <glyph glyph-name="uni04D2" unicode="&#x4d2;" horiz-adv-x="1327" 
d="M289 1581v180h262v-180h-262zM776 1581v180h262v-180h-262zM377 301l-105 -301h-280l540 1434h263l540 -1434h-280l-105 301h-573zM446 518h435l-217 637z" />
    <glyph glyph-name="uni04D3" unicode="&#x4d3;" horiz-adv-x="1181" 
d="M276 1217v217h238v-217h-238zM666 1217v217h237v-217h-237zM336 719h-234q-2 73 25 137t82.5 115t150.5 80.5t218 29.5q87 0 157 -14.5t116 -36.5t79.5 -55.5t51.5 -64.5t28.5 -70.5t13 -67t2.5 -59.5v-416q0 -82 14.5 -106.5t75.5 -20.5v-170q-63 -6 -108 -6
q-179 0 -203 135q-121 -154 -346 -154q-102 0 -177.5 24t-113.5 56t-60.5 78t-27 77t-4.5 66q0 61 21 111.5t49.5 81t64.5 53.5t60.5 32t43.5 13q36 10 74.5 16.5t88 12t79.5 10.5q16 3 49.5 7.5t50.5 7.5q71 8 89 19q34 21 34 93q0 180 -202 180q-126 0 -186.5 -56.5
t-55.5 -137.5zM780 463v37q-40 -27 -176 -43q-34 -5 -49 -7t-43.5 -6.5t-41.5 -8t-34.5 -10t-32 -13t-25 -15.5t-21.5 -20t-14.5 -24.5t-10 -30.5t-2.5 -37q0 -64 40 -103t122 -39q41 0 77.5 7t76.5 28t68.5 55t47 93t18.5 137z" />
    <glyph glyph-name="uni04D4" unicode="&#x4d4;" horiz-adv-x="2174" 
d="M1042 0v315h-569l-172 -315h-311l813 1434h1315v-217h-813v-373h729v-217h-729v-410h835v-217h-1098zM1042 532v685h-86l-368 -685h454z" />
    <glyph glyph-name="uni04D5" unicode="&#x4d5;" horiz-adv-x="1904" 
d="M336 719h-234q-2 72 25 135.5t82.5 115t150.5 81.5t218 30q133 0 223 -35t131 -126q115 161 375 161q34 0 66.5 -2.5t86 -15.5t98.5 -34.5t95 -64t84.5 -100t57 -147.5t22.5 -201v-59h-779q0 -43 8.5 -86t29.5 -87.5t52.5 -78.5t82.5 -56t114 -22q89 0 160 46t82 128h233
q-9 -47 -25.5 -88t-53.5 -90t-88 -83.5t-136 -57.5t-192 -23q-61 0 -113 7.5t-107.5 27t-103 58t-82.5 95.5q-31 -56 -83 -95t-115.5 -58t-121.5 -27t-120 -8q-383 0 -383 317q0 61 21 111.5t49.5 81t64.5 53.5t60.5 32t43.5 13q30 8 69 15t68.5 11.5t96.5 13t108 14.5
q71 8 89 19q34 21 34 93q0 180 -202 180q-126 0 -186.5 -56.5t-55.5 -137.5zM780 446v54q-40 -27 -176 -43q-42 -6 -61.5 -9t-52.5 -8.5t-48.5 -11.5t-38 -15t-32.5 -20.5t-21.5 -27t-15.5 -35.5t-4 -45q0 -71 40 -114.5t122 -43.5q41 0 77.5 7t76.5 28t68.5 55t47 92.5
t18.5 136.5zM1038 625h518q0 33 -5 66.5t-21 75t-41.5 72.5t-72 52.5t-107.5 21.5q-68 0 -122.5 -26t-87 -68t-48 -92t-13.5 -102z" />
    <glyph glyph-name="uni04D6" unicode="&#x4d6;" horiz-adv-x="1306" 
d="M223 1808h211q7 -79 68 -122.5t151 -43.5t151 43.5t68 122.5h211q-26 -139 -136.5 -226t-293.5 -87t-293.5 87t-136.5 226zM436 844h729v-217h-729v-410h836v-217h-1098v1434h1075v-217h-813v-373z" />
    <glyph glyph-name="uni04D7" unicode="&#x4d7;" horiz-adv-x="1216" 
d="M205 1434h209q4 -70 58.5 -110t135.5 -40t136 40t59 110h209q-69 -293 -404 -293q-85 0 -153 20t-110 49.5t-73 71t-45 77.5t-22 75zM879 301h233q-9 -47 -25.5 -88t-53.5 -90t-88.5 -83.5t-136.5 -57.5t-192 -23q-23 0 -45.5 1t-62.5 7t-75.5 16t-79 30t-79.5 47
t-71.5 68.5t-60 93.5t-39.5 124t-15 156q0 271 134 425t396 154q93 0 169 -21t127 -54.5t90 -83t60.5 -97.5t35.5 -108t19 -104.5t7 -96.5q0 -12 1 -30t1 -29h-778q0 -43 8.5 -86t29.5 -87.5t52.5 -78.5t82.5 -56t114 -22q89 0 160 46t82 128zM350 625h518q0 33 -5 66.5
t-21 75t-41.5 72.5t-72 52.5t-107.5 21.5q-68 0 -122.5 -26t-87 -68t-48 -92t-13.5 -102z" />
    <glyph glyph-name="uni04D8" unicode="&#x4d8;" horiz-adv-x="1585" 
d="M92 752h1120q3 59 -4.5 119.5t-35.5 133t-74.5 127t-131.5 91.5t-198 37q-152 0 -257.5 -63.5t-129.5 -184.5h-260q5 27 12.5 55t28.5 76.5t49.5 90.5t79 88.5t113 79t155 54t201.5 21.5q115 0 213 -22t168 -57t126.5 -87t92.5 -103.5t62.5 -115.5t39.5 -114t20.5 -107.5
t9 -88t1.5 -63.5q0 -121 -21.5 -224.5t-55.5 -176t-84 -131.5t-99 -96t-110 -64t-106.5 -40t-98 -20.5t-76.5 -8.5t-49 -1q-150 0 -272.5 45.5t-203 122.5t-134 180t-75 215.5t-16.5 231.5zM1206 520h-827q5 -47 19.5 -92t46 -92t76 -82t115 -57.5t157.5 -22.5
q175 0 283.5 98.5t129.5 247.5z" />
    <glyph glyph-name="afii10846" unicode="&#x4d9;" horiz-adv-x="1216" 
d="M338 739h-234q8 38 21.5 72t37.5 75t62 74t88.5 61.5t124 44t162.5 15.5q103 0 186.5 -24t137 -61t94 -90t60.5 -101.5t32.5 -105t15 -91t2.5 -69.5q0 -272 -134 -426t-396 -154q-40 0 -76.5 3.5t-92 17.5t-100.5 38.5t-93.5 72t-80.5 111t-51 162t-16 220.5h778
q0 43 -8 85.5t-28.5 87.5t-50.5 79t-79.5 55.5t-111.5 21.5q-89 0 -160 -45.5t-90 -128.5zM866 416h-518q0 -33 5 -66.5t21.5 -75.5t42 -73t72 -52.5t107.5 -21.5q64 0 114 21.5t78.5 53t47 72.5t24.5 75.5t6 66.5z" />
    <glyph glyph-name="uni04DA" unicode="&#x4da;" horiz-adv-x="1585" 
d="M92 752h1120q3 59 -4.5 119.5t-35.5 133t-74.5 127t-131.5 91.5t-198 37q-152 0 -257.5 -63.5t-129.5 -184.5h-260q5 27 12.5 55t28.5 76.5t49.5 90.5t79 88.5t113 79t155 54t201.5 21.5q115 0 213 -22t168 -57t126.5 -87t92.5 -103.5t62.5 -115.5t39.5 -114t20.5 -107.5
t9 -88t1.5 -63.5q0 -121 -21.5 -224.5t-55.5 -176t-84 -131.5t-99 -96t-110 -64t-106.5 -40t-98 -20.5t-76.5 -8.5t-49 -1q-150 0 -272.5 45.5t-203 122.5t-134 180t-75 215.5t-16.5 231.5zM1206 520h-827q5 -47 19.5 -92t46 -92t76 -82t115 -57.5t157.5 -22.5
q175 0 283.5 98.5t129.5 247.5zM418 1581v180h262v-180h-262zM905 1581v180h262v-180h-262z" />
    <glyph glyph-name="uni04DB" unicode="&#x4db;" horiz-adv-x="1216" 
d="M338 739h-234q8 38 21.5 72t37.5 75t62 74t88.5 61.5t124 44t162.5 15.5q103 0 186.5 -24t137 -61t94 -90t60.5 -101.5t32.5 -105t15 -91t2.5 -69.5q0 -272 -134 -426t-396 -154q-40 0 -76.5 3.5t-92 17.5t-100.5 38.5t-93.5 72t-80.5 111t-51 162t-16 220.5h778
q0 43 -8 85.5t-28.5 87.5t-50.5 79t-79.5 55.5t-111.5 21.5q-89 0 -160 -45.5t-90 -128.5zM866 416h-518q0 -33 5 -66.5t21.5 -75.5t42 -73t72 -52.5t107.5 -21.5q64 0 114 21.5t78.5 53t47 72.5t24.5 75.5t6 66.5zM295 1217v217h237v-217h-237zM684 1217v217h238v-217h-238
z" />
    <glyph glyph-name="uni04DC" unicode="&#x4dc;" horiz-adv-x="1978" 
d="M858 0v686l-551 -686h-315l633 770l-594 664h315l512 -607v607h262v-607l512 607h316l-594 -664l633 -770h-316l-551 686v-686h-262zM614 1581v180h263v-180h-263zM1102 1581v180h262v-180h-262z" />
    <glyph glyph-name="uni04DD" unicode="&#x4dd;" horiz-adv-x="1548" 
d="M651 0v496l-356 -496h-303l454 549l-432 491h289l348 -456v456h246v-456l348 456h289l-432 -491l454 -549h-303l-356 496v-496h-246zM461 1217v217h237v-217h-237zM850 1217v217h237v-217h-237z" />
    <glyph glyph-name="uni04DE" unicode="&#x4de;" horiz-adv-x="1427" 
d="M92 489h260q0 -40 8 -78.5t32 -83t63 -77t107 -54.5t157 -22q150 0 234.5 62t84.5 178q0 65 -21 110t-60.5 69.5t-88 35t-112.5 10.5h-197v217h170q252 0 252 188q0 216 -291 216q-89 0 -153 -21t-98.5 -57.5t-51 -78t-18.5 -91.5h-260q2 110 36 193t89 134t134.5 82.5
t162 43.5t182.5 12q47 0 92 -3.5t100.5 -15t102.5 -29.5t93 -49.5t78 -73t52 -102t20 -133.5q0 -132 -69.5 -217t-169.5 -98v-4q127 -19 212 -112.5t85 -252.5q0 -39 -6.5 -77t-24.5 -81.5t-46 -81.5t-75.5 -73.5t-109 -61t-150 -40.5t-195.5 -15q-587 0 -610 532zM338 1581
v180h262v-180h-262zM825 1581v180h262v-180h-262z" />
    <glyph glyph-name="uni04DF" unicode="&#x4df;" horiz-adv-x="1126" 
d="M66 326h233q0 -32 10 -63t34.5 -63.5t76.5 -52.5t125 -20q59 0 103.5 11.5t69.5 29t40.5 41.5t20.5 44.5t5 43.5q0 145 -206 145h-140v168h113q100 0 142 43.5t42 104.5q0 66 -48.5 110.5t-151.5 44.5q-25 0 -47 -3t-51.5 -14t-51 -30t-37.5 -55t-18 -84h-234q2 50 13 94
t41.5 93.5t78 84.5t130 58.5t190.5 23.5q118 0 206.5 -26.5t138.5 -72t74.5 -100t24.5 -118.5q0 -97 -51 -152.5t-125 -68.5v-4q118 -23 169.5 -85.5t51.5 -148.5q0 -51 -11.5 -96t-45 -92.5t-86.5 -81t-143.5 -55t-208.5 -21.5q-85 0 -155 14t-118 36t-85 54t-58 64t-35 70
t-19.5 67.5t-6.5 61.5zM250 1217v217h237v-217h-237zM639 1217v217h238v-217h-238z" />
    <glyph glyph-name="uni04E2" unicode="&#x4e2;" horiz-adv-x="1548" 
d="M436 385l682 1049h256v-1434h-262v1049l-682 -1049h-256v1434h262v-1049zM436 1556v164h676v-164h-338h-338z" />
    <glyph glyph-name="uni04E3" unicode="&#x4e3;" horiz-adv-x="1298" 
d="M393 291l488 749h270v-1040h-246v750l-487 -750h-271v1040h246v-749zM311 1233v168h676v-168h-338h-338z" />
    <glyph glyph-name="uni04E4" unicode="&#x4e4;" horiz-adv-x="1548" 
d="M436 385l682 1049h256v-1434h-262v1049l-682 -1049h-256v1434h262v-1049zM399 1581v180h263v-180h-263zM887 1581v180h262v-180h-262z" />
    <glyph glyph-name="uni04E5" unicode="&#x4e5;" horiz-adv-x="1298" 
d="M393 291l488 749h270v-1040h-246v750l-487 -750h-271v1040h246v-749zM336 1217v217h237v-217h-237zM725 1217v217h238v-217h-238z" />
    <glyph glyph-name="uni04E6" unicode="&#x4e6;" horiz-adv-x="1589" 
d="M420 1581v180h262v-180h-262zM907 1581v180h262v-180h-262zM795 1477q30 0 57.5 -1.5t81 -9t99.5 -21t105.5 -41t107.5 -64.5t96.5 -96t81 -131.5t53 -174t20.5 -221.5t-20.5 -221.5t-53 -174t-81 -131.5t-96.5 -96t-107.5 -64.5t-105.5 -41t-99.5 -21t-81 -9t-57.5 -1.5
t-57.5 1.5t-81 9t-100 21t-105.5 41t-107.5 64.5t-96.5 96t-81 131.5t-53.5 174t-20.5 221.5t20.5 221.5t53.5 174t81 131.5t96.5 96t107.5 64.5t105.5 41t100 21t81 9t57.5 1.5zM795 1260q-101 0 -178.5 -36t-122.5 -91t-73.5 -130.5t-38 -143.5t-9.5 -142t9.5 -142
t38 -143.5t73.5 -130.5t122.5 -91t178.5 -36t178.5 36t122.5 91t73.5 130.5t38 143.5t9.5 142t-9.5 142t-38 143.5t-73.5 130.5t-122.5 91t-178.5 36z" />
    <glyph glyph-name="uni04E7" unicode="&#x4e7;" horiz-adv-x="1249" 
d="M311 1217v217h238v-217h-238zM700 1217v217h238v-217h-238zM625 1081q126 0 224.5 -40t155.5 -99.5t94 -138.5t49.5 -147.5t12.5 -135.5t-12.5 -135.5t-49.5 -147.5t-94 -138.5t-155.5 -99.5t-224.5 -40q-91 0 -168.5 21t-131.5 55t-96.5 81.5t-68.5 98t-42.5 106.5
t-23 104t-6.5 95q0 46 6.5 94t23 104t42.5 106.5t68.5 98t96.5 82t131.5 55.5t168.5 21zM625 913q-33 0 -63 -6t-71 -30t-70 -64t-50 -116t-21 -177t21 -177t50 -116t70 -64t71 -30t63 -6q26 0 51 5t58.5 17.5t61 40.5t51.5 69.5t38 108.5t14 152t-14 152t-38 108.5
t-51.5 69.5t-61 40.5t-58.5 17.5t-51 5z" />
    <glyph glyph-name="uni04E8" unicode="&#x4e8;" horiz-adv-x="1589" 
d="M795 1477q30 0 57.5 -1.5t81 -9t99.5 -21t105.5 -41t107.5 -64.5t96.5 -96t81 -131.5t53 -174t20.5 -221.5t-20.5 -221.5t-53 -174t-81 -131.5t-96.5 -96t-107.5 -64.5t-105.5 -41t-99.5 -21t-81 -9t-57.5 -1.5t-57.5 1.5t-81 9t-100 21t-105.5 41t-107.5 64.5t-96.5 96
t-81 131.5t-53.5 174t-20.5 221.5t20.5 221.5t53.5 174t81 131.5t96.5 96t107.5 64.5t105.5 41t100 21t81 9t57.5 1.5zM795 1260q-91 0 -163 -29t-116 -73.5t-74.5 -106t-44 -117t-18.5 -115.5h831q-4 49 -14.5 95.5t-29.5 98.5t-51 94.5t-75 78t-106 55t-139 19.5zM795 174
q65 0 121 15.5t97 40.5t73.5 60.5t54 74t36.5 81.5t22 80.5t9 75.5h-827q3 -54 16 -108t43.5 -113t75 -104t117 -74t162.5 -29z" />
    <glyph glyph-name="uni04E9" unicode="&#x4e9;" horiz-adv-x="1249" 
d="M625 1081q126 0 224.5 -40t155.5 -99.5t94 -138.5t49.5 -147.5t12.5 -135.5t-12.5 -135.5t-49.5 -147.5t-94 -138.5t-155.5 -99.5t-224.5 -40q-91 0 -168.5 21t-131.5 55t-96.5 81.5t-68.5 98t-42.5 106.5t-23 104t-6.5 95q0 46 6.5 94t23 104t42.5 106.5t68.5 98
t96.5 82t131.5 55.5t168.5 21zM625 913q-58 0 -105 -21.5t-76.5 -53.5t-50 -74.5t-29 -80t-10.5 -73.5h541q-3 38 -11.5 74t-28.5 79t-48 75t-75.5 53.5t-106.5 21.5zM625 127q62 0 111.5 24.5t77.5 60t47.5 81.5t26.5 81t9 68h-545q2 -33 9.5 -68t26.5 -81t47.5 -81.5
t78 -60t111.5 -24.5z" />
    <glyph glyph-name="uni04EA" unicode="&#x4ea;" horiz-adv-x="1589" 
d="M795 1477q30 0 57.5 -1.5t81 -9t99.5 -21t105.5 -41t107.5 -64.5t96.5 -96t81 -131.5t53 -174t20.5 -221.5t-20.5 -221.5t-53 -174t-81 -131.5t-96.5 -96t-107.5 -64.5t-105.5 -41t-99.5 -21t-81 -9t-57.5 -1.5t-57.5 1.5t-81 9t-100 21t-105.5 41t-107.5 64.5t-96.5 96
t-81 131.5t-53.5 174t-20.5 221.5t20.5 221.5t53.5 174t81 131.5t96.5 96t107.5 64.5t105.5 41t100 21t81 9t57.5 1.5zM795 1260q-91 0 -163 -29t-116 -73.5t-74.5 -106t-44 -117t-18.5 -115.5h831q-4 49 -14.5 95.5t-29.5 98.5t-51 94.5t-75 78t-106 55t-139 19.5zM795 174
q65 0 121 15.5t97 40.5t73.5 60.5t54 74t36.5 81.5t22 80.5t9 75.5h-827q3 -54 16 -108t43.5 -113t75 -104t117 -74t162.5 -29zM420 1581v180h262v-180h-262zM907 1581v180h262v-180h-262z" />
    <glyph glyph-name="uni04EB" unicode="&#x4eb;" horiz-adv-x="1249" 
d="M625 1081q126 0 224.5 -40t155.5 -99.5t94 -138.5t49.5 -147.5t12.5 -135.5t-12.5 -135.5t-49.5 -147.5t-94 -138.5t-155.5 -99.5t-224.5 -40q-91 0 -168.5 21t-131.5 55t-96.5 81.5t-68.5 98t-42.5 106.5t-23 104t-6.5 95q0 46 6.5 94t23 104t42.5 106.5t68.5 98
t96.5 82t131.5 55.5t168.5 21zM625 913q-58 0 -105 -21.5t-76.5 -53.5t-50 -74.5t-29 -80t-10.5 -73.5h541q-3 38 -11.5 74t-28.5 79t-48 75t-75.5 53.5t-106.5 21.5zM625 127q62 0 111.5 24.5t77.5 60t47.5 81.5t26.5 81t9 68h-545q2 -33 9.5 -68t26.5 -81t47.5 -81.5
t78 -60t111.5 -24.5zM311 1217v217h238v-217h-238zM700 1217v217h238v-217h-238z" />
    <glyph glyph-name="uni04EE" unicode="&#x4ee;" horiz-adv-x="1275" 
d="M707 659l303 775h274l-481 -1155q-25 -61 -54.5 -109t-56.5 -79t-61 -53t-59.5 -33t-61.5 -17t-57 -7t-56 -1q-46 0 -65 0.5t-53 5.5t-68 16v227q81 -24 149 -24q78 0 130 37t75 135l-547 1057h322zM299 1556v164h676v-164h-338h-338z" />
    <glyph glyph-name="uni04EF" unicode="&#x4ef;" horiz-adv-x="1107" 
d="M215 1233v168h676v-168h-338h-338zM215 -375v168q50 -12 94 -12q69 0 102.5 37.5t61.5 134.5l14 49l-473 1038h295l314 -774l239 774h246l-397 -1130q-34 -97 -54 -133q-90 -164 -288 -164q-81 0 -154 12z" />
    <glyph glyph-name="uni04F0" unicode="&#x4f0;" horiz-adv-x="1275" 
d="M707 659l303 775h274l-481 -1155q-25 -61 -54.5 -109t-56.5 -79t-61 -53t-59.5 -33t-61.5 -17t-57 -7t-56 -1q-46 0 -65 0.5t-53 5.5t-68 16v227q81 -24 149 -24q78 0 130 37t75 135l-547 1057h322zM262 1581v180h262v-180h-262zM750 1581v180h262v-180h-262z" />
    <glyph glyph-name="uni04F1" unicode="&#x4f1;" horiz-adv-x="1107" 
d="M240 1217v217h237v-217h-237zM629 1217v217h237v-217h-237zM215 -375v168q50 -12 94 -12q69 0 102.5 37.5t61.5 134.5l14 49l-473 1038h295l314 -774l239 774h246l-397 -1130q-34 -97 -54 -133q-90 -164 -288 -164q-81 0 -154 12z" />
    <glyph glyph-name="uni04F2" unicode="&#x4f2;" horiz-adv-x="1275" 
d="M707 659l303 775h274l-481 -1155q-25 -61 -54.5 -109t-56.5 -79t-61 -53t-59.5 -33t-61.5 -17t-57 -7t-56 -1q-46 0 -65 0.5t-53 5.5t-68 16v227q81 -24 149 -24q78 0 130 37t75 135l-547 1057h322zM520 1843h266l-241 -287h-185zM872 1843h267l-242 -287h-184z" />
    <glyph glyph-name="uni04F3" unicode="&#x4f3;" horiz-adv-x="1107" 
d="M420 1434h246l-226 -271h-164zM768 1434h246l-226 -271h-163zM215 -375v168q50 -12 94 -12q69 0 102.5 37.5t61.5 134.5l14 49l-473 1038h295l314 -774l239 774h246l-397 -1130q-34 -97 -54 -133q-90 -164 -288 -164q-81 0 -154 12z" />
    <glyph glyph-name="uni04F4" unicode="&#x4f4;" horiz-adv-x="1378" 
d="M119 1434h262v-387q0 -28 0.5 -45t3.5 -40.5t9 -38t16.5 -32.5t25.5 -29t37.5 -23t52 -18t69 -10t87.5 -4q69 0 164 7l96 7v613h262v-1434h-262v604q-187 -14 -293 -14q-97 0 -173 10t-145 37t-114 71t-71.5 114.5t-26.5 164.5v447zM313 1581v180h262v-180h-262z
M801 1581v180h262v-180h-262z" />
    <glyph glyph-name="uni04F5" unicode="&#x4f5;" horiz-adv-x="1110" 
d="M90 1040h246v-286v-33t2 -29.5t5.5 -28t11 -23.5t18 -22t27 -16.5t38 -13.5t50.5 -7t65 -3q14 0 60.5 1.5t103.5 2.5v458h246v-1040h-246v414q-6 0 -42 -1t-61 -1q-22 0 -67 -1t-64 -1q-77 0 -137 8t-101 21.5t-70 36t-45.5 45t-25.5 56t-11.5 62t-2.5 68.5v333z
M242 1217v217h237v-217h-237zM631 1217v217h237v-217h-237z" />
    <glyph glyph-name="uni04F8" unicode="&#x4f8;" horiz-adv-x="1859" 
d="M436 1434v-553h373q41 0 77.5 -2.5t89 -13.5t95.5 -29t88.5 -52t76.5 -80t51 -116t20 -156q0 -59 -12 -114.5t-46.5 -115t-88 -103t-144.5 -71.5t-209 -28h-633v1434h262zM436 664v-447h320q59 0 103.5 8.5t87.5 31t66 69.5t23 118q0 59 -19 101.5t-45.5 65t-67 35
t-71.5 15.5t-71 3h-326zM1423 1434h263v-1434h-263v1434zM555 1581v180h262v-180h-262zM1042 1581v180h263v-180h-263z" />
    <glyph glyph-name="uni04F9" unicode="&#x4f9;" horiz-adv-x="1581" 
d="M147 1040h246v-401h240q45 0 77 -1.5t80.5 -8t83 -19t73 -36.5t62.5 -57t40 -84.5t16 -115.5q0 -317 -375 -317h-543v1040zM393 471v-303h238q79 0 129.5 37.5t50.5 118.5q0 147 -180 147h-238zM1188 1040h246v-1040h-246v1040zM477 1217v217h238v-217h-238zM866 1217
v217h238v-217h-238z" />
    <glyph glyph-name="uni2010" unicode="&#x2010;" horiz-adv-x="860" 
d="M164 442v217h532v-217h-532z" />
    <glyph glyph-name="uni2011" unicode="&#x2011;" horiz-adv-x="860" 
d="M164 442v217h532v-217h-532z" />
    <glyph glyph-name="figuredash" unicode="&#x2012;" 
d="M102 821h1024v-168h-1024v168z" />
    <glyph glyph-name="endash" unicode="&#x2013;" 
d="M102 635h1024v-168h-1024v168z" />
    <glyph glyph-name="emdash" unicode="&#x2014;" horiz-adv-x="2007" 
d="M102 467v168h1803v-168h-1803z" />
    <glyph glyph-name="afii00208" unicode="&#x2015;" horiz-adv-x="2007" 
d="M102 467v168h1803v-168h-1803z" />
    <glyph glyph-name="quoteleft" unicode="&#x2018;" horiz-adv-x="704" 
d="M487 879h-270v284q0 83 24 145.5t65 97t85.5 52t95.5 21.5v-142q-61 -5 -99 -48t-38 -111v-23h137v-276z" />
    <glyph glyph-name="quoteright" unicode="&#x2019;" horiz-adv-x="704" 
d="M217 1434h270v-285q0 -83 -24 -145t-65 -96.5t-85.5 -52t-95.5 -21.5v141q61 5 99 48.5t38 111.5v22h-137v277z" />
    <glyph glyph-name="quotesinglbase" unicode="&#x201a;" horiz-adv-x="704" 
d="M217 276h270v-284q0 -83 -24 -145.5t-65 -97t-85.5 -52t-95.5 -21.5v142q61 5 99 48t38 111v23h-137v276z" />
    <glyph glyph-name="quotedblleft" unicode="&#x201c;" horiz-adv-x="983" 
d="M825 879h-270v284q0 83 24 145.5t65 97t85.5 52t95.5 21.5v-142q-61 -5 -99 -48t-38 -111v-23h137v-276zM428 879h-270v284q0 83 24 145.5t65 97t85.5 52t95.5 21.5v-142q-61 -5 -99 -48t-38 -111v-23h137v-276z" />
    <glyph glyph-name="quotedblright" unicode="&#x201d;" horiz-adv-x="983" 
d="M158 1434h270v-285q0 -83 -24 -145t-65 -96.5t-85.5 -52t-95.5 -21.5v141q61 5 99 48.5t38 111.5v22h-137v277zM555 1434h270v-285q0 -83 -24 -145t-65 -96.5t-85.5 -52t-95.5 -21.5v141q61 5 99 48.5t38 111.5v22h-137v277z" />
    <glyph glyph-name="quotedblbase" unicode="&#x201e;" horiz-adv-x="983" 
d="M158 276h270v-284q0 -83 -24 -145.5t-65 -97t-85.5 -52t-95.5 -21.5v142q61 5 99 48t38 111v23h-137v276zM555 276h270v-284q0 -83 -24 -145.5t-65 -97t-85.5 -52t-95.5 -21.5v142q61 5 99 48t38 111v23h-137v276z" />
    <glyph glyph-name="dagger" unicode="&#x2020;" horiz-adv-x="1077" 
d="M430 1434h217v-394h379v-188h-379v-1231h-217v1231h-379v188h379v394z" />
    <glyph glyph-name="daggerdbl" unicode="&#x2021;" horiz-adv-x="1077" 
d="M430 1434h217v-394h379v-188h-379v-344h379v-189h-379v-698h-217v698h-379v189h379v344h-379v188h379v394z" />
    <glyph glyph-name="bullet" unicode="&#x2022;" 
d="M379 717q0 98 68.5 166.5t166.5 68.5t167 -68.5t69 -166.5t-69 -167t-167 -69t-166.5 69t-68.5 167z" />
    <glyph glyph-name="ellipsis" unicode="&#x2026;" horiz-adv-x="2113" 
d="M217 0v276h270v-276h-270zM922 0v276h270v-276h-270zM1626 0v276h270v-276h-270z" />
    <glyph glyph-name="perthousand" unicode="&#x2030;" horiz-adv-x="2764" 
d="M446 0l863 1434h190l-862 -1434h-191zM459 1450q163 0 255.5 -114t92.5 -296t-92.5 -295.5t-255.5 -113.5t-255.5 113.5t-92.5 295.5t92.5 296t255.5 114zM459 1315q-20 0 -36.5 -2.5t-46.5 -17.5t-50 -42t-36 -82t-16 -131t16 -131t36 -81.5t50 -41.5t46.5 -17.5
t36.5 -2.5t36.5 2.5t46 17.5t50 41.5t36 81.5t15.5 131q0 55 -8 99.5t-20.5 72.5t-30.5 48.5t-34 30.5t-36 16t-31 7t-24 1zM1487 803q163 0 255.5 -114t92.5 -296t-92.5 -295.5t-255.5 -113.5t-255.5 113.5t-92.5 295.5t92.5 296t255.5 114zM1487 668q-13 0 -24 -1t-31 -7
t-36 -16t-34 -30.5t-30.5 -48.5t-20.5 -72.5t-8 -99.5q0 -76 15.5 -131t36 -81.5t50 -41.5t46 -17.5t36.5 -2.5t36.5 2.5t46 17.5t50 41.5t36 81.5t15.5 131q0 55 -8 99.5t-20.5 72.5t-30.5 48.5t-34 30.5t-36 16t-31 7t-24 1zM2306 803q163 0 255.5 -114t92.5 -296
t-92.5 -295.5t-255.5 -113.5t-255.5 113.5t-92.5 295.5t92.5 296t255.5 114zM2306 668q-13 0 -24 -1t-31 -7t-36 -16t-34 -30.5t-30.5 -48.5t-20.5 -72.5t-8 -99.5q0 -76 15.5 -131t36 -81.5t50 -41.5t46 -17.5t36.5 -2.5t36.5 2.5t46 17.5t50 41.5t36 81.5t15.5 131
q0 55 -8 99.5t-20.5 72.5t-30.5 48.5t-34 30.5t-36 16t-31 7t-24 1z" />
    </font>
</defs>
</svg>
